<svg width="1176" height="12" viewBox="0 0 1176 12" fill="none" xmlns="http://www.w3.org/2000/svg">
<g clip-path="url(#clip0_2_1830)">
<g clip-path="url(#clip1_2_1830)">
<path d="M6.99037 0.166687L0 7.26602V11.46L7 4.37042L14 11.46V7.26602L6.99037 0.166687Z" fill="#FF712C"/>
</g>
<path d="M20.9904 0.166687L14 7.26602V11.46L21 4.37042L28 11.46V7.26602L20.9904 0.166687Z" fill="#FF712C"/>
<path d="M20.9904 0.166687L14 7.26602V11.46L21 4.37042L28 11.46V7.26602L20.9904 0.166687Z" fill="#FF712C"/>
<path d="M48.9904 0.166687L42 7.26602V11.46L49 4.37042L56 11.46V7.26602L48.9904 0.166687Z" fill="#FF712C"/>
<path d="M62.9904 0.166687L56 7.26602V11.46L63 4.37042L70 11.46V7.26602L62.9904 0.166687Z" fill="#FF712C"/>
<path d="M76.9904 0.166687L70 7.26602V11.46L77 4.37042L84 11.46V7.26602L76.9904 0.166687Z" fill="#FF712C"/>
<path d="M90.9904 0.166687L84 7.26602V11.46L91 4.37042L98 11.46V7.26602L90.9904 0.166687Z" fill="#FF712C"/>
<path d="M104.99 0.166687L98 7.26602V11.46L105 4.37042L112 11.46V7.26602L104.99 0.166687Z" fill="#FF712C"/>
<path d="M118.99 0.166687L112 7.26602V11.46L119 4.37042L126 11.46V7.26602L118.99 0.166687Z" fill="#FF712C"/>
<path d="M132.99 0.166687L126 7.26602V11.46L133 4.37042L140 11.46V7.26602L132.99 0.166687Z" fill="#FF712C"/>
<path d="M146.99 0.166687L140 7.26602V11.46L147 4.37042L154 11.46V7.26602L146.99 0.166687Z" fill="#FF712C"/>
<path d="M160.99 0.166687L154 7.26602V11.46L161 4.37042L168 11.46V7.26602L160.99 0.166687Z" fill="#FF712C"/>
<path d="M174.99 0.166687L168 7.26602V11.46L175 4.37042L182 11.46V7.26602L174.99 0.166687Z" fill="#FF712C"/>
<path d="M188.99 0.166687L182 7.26602V11.46L189 4.37042L196 11.46V7.26602L188.99 0.166687Z" fill="#FF712C"/>
<path d="M202.99 0.166687L196 7.26602V11.46L203 4.37042L210 11.46V7.26602L202.99 0.166687Z" fill="#FF712C"/>
<path d="M216.99 0.166687L210 7.26602V11.46L217 4.37042L224 11.46V7.26602L216.99 0.166687Z" fill="#FF712C"/>
<path d="M230.99 0.166687L224 7.26602V11.46L231 4.37042L238 11.46V7.26602L230.99 0.166687Z" fill="#FF712C"/>
<path d="M244.99 0.166687L238 7.26602V11.46L245 4.37042L252 11.46V7.26602L244.99 0.166687Z" fill="#FF712C"/>
<path d="M258.99 0.166687L252 7.26602V11.46L259 4.37042L266 11.46V7.26602L258.99 0.166687Z" fill="#FF712C"/>
<path d="M272.99 0.166687L266 7.26602V11.46L273 4.37042L280 11.46V7.26602L272.99 0.166687Z" fill="#FF712C"/>
<path d="M286.99 0.166687L280 7.26602V11.46L287 4.37042L294 11.46V7.26602L286.99 0.166687Z" fill="#FF712C"/>
<path d="M300.99 0.166687L294 7.26602V11.46L301 4.37042L308 11.46V7.26602L300.99 0.166687Z" fill="#FF712C"/>
<path d="M314.99 0.166687L308 7.26602V11.46L315 4.37042L322 11.46V7.26602L314.99 0.166687Z" fill="#FF712C"/>
<path d="M328.99 0.166687L322 7.26602V11.46L329 4.37042L336 11.46V7.26602L328.99 0.166687Z" fill="#FF712C"/>
<path d="M342.99 0.166687L336 7.26602V11.46L343 4.37042L350 11.46V7.26602L342.99 0.166687Z" fill="#FF712C"/>
<path d="M356.99 0.166687L350 7.26602V11.46L357 4.37042L364 11.46V7.26602L356.99 0.166687Z" fill="#FF712C"/>
<path d="M370.99 0.166687L364 7.26602V11.46L371 4.37042L378 11.46V7.26602L370.99 0.166687Z" fill="#FF712C"/>
<path d="M384.99 0.166687L378 7.26602V11.46L385 4.37042L392 11.46V7.26602L384.99 0.166687Z" fill="#FF712C"/>
<path d="M398.99 0.166687L392 7.26602V11.46L399 4.37042L406 11.46V7.26602L398.99 0.166687Z" fill="#FF712C"/>
<path d="M412.99 0.166687L406 7.26602V11.46L413 4.37042L420 11.46V7.26602L412.99 0.166687Z" fill="#FF712C"/>
<path d="M426.99 0.166687L420 7.26602V11.46L427 4.37042L434 11.46V7.26602L426.99 0.166687Z" fill="#FF712C"/>
<path d="M440.99 0.166687L434 7.26602V11.46L441 4.37042L448 11.46V7.26602L440.99 0.166687Z" fill="#FF712C"/>
<path d="M454.99 0.166687L448 7.26602V11.46L455 4.37042L462 11.46V7.26602L454.99 0.166687Z" fill="#FF712C"/>
<path d="M468.99 0.166687L462 7.26602V11.46L469 4.37042L476 11.46V7.26602L468.99 0.166687Z" fill="#FF712C"/>
<path d="M482.99 0.166687L476 7.26602V11.46L483 4.37042L490 11.46V7.26602L482.99 0.166687Z" fill="#FF712C"/>
<path d="M496.99 0.166687L490 7.26602V11.46L497 4.37042L504 11.46V7.26602L496.99 0.166687Z" fill="#FF712C"/>
<path d="M510.99 0.166687L504 7.26602V11.46L511 4.37042L518 11.46V7.26602L510.99 0.166687Z" fill="#FF712C"/>
<path d="M524.99 0.166687L518 7.26602V11.46L525 4.37042L532 11.46V7.26602L524.99 0.166687Z" fill="#FF712C"/>
<path d="M538.99 0.166687L532 7.26602V11.46L539 4.37042L546 11.46V7.26602L538.99 0.166687Z" fill="#FF712C"/>
<path d="M552.99 0.166687L546 7.26602V11.46L553 4.37042L560 11.46V7.26602L552.99 0.166687Z" fill="#FF712C"/>
<path d="M566.99 0.166687L560 7.26602V11.46L567 4.37042L574 11.46V7.26602L566.99 0.166687Z" fill="#FF712C"/>
<path d="M580.99 0.166687L574 7.26602V11.46L581 4.37042L588 11.46V7.26602L580.99 0.166687Z" fill="#FF712C"/>
<path d="M594.99 0.166687L588 7.26602V11.46L595 4.37042L602 11.46V7.26602L594.99 0.166687Z" fill="#FF712C"/>
<path d="M608.99 0.166687L602 7.26602V11.46L609 4.37042L616 11.46V7.26602L608.99 0.166687Z" fill="#FF712C"/>
<path d="M622.99 0.166687L616 7.26602V11.46L623 4.37042L630 11.46V7.26602L622.99 0.166687Z" fill="#FF712C"/>
<path d="M636.99 0.166687L630 7.26602V11.46L637 4.37042L644 11.46V7.26602L636.99 0.166687Z" fill="#FF712C"/>
<path d="M650.99 0.166687L644 7.26602V11.46L651 4.37042L658 11.46V7.26602L650.99 0.166687Z" fill="#FF712C"/>
<path d="M664.99 0.166687L658 7.26602V11.46L665 4.37042L672 11.46V7.26602L664.99 0.166687Z" fill="#FF712C"/>
<path d="M678.99 0.166687L672 7.26602V11.46L679 4.37042L686 11.46V7.26602L678.99 0.166687Z" fill="#FF712C"/>
<path d="M692.99 0.166687L686 7.26602V11.46L693 4.37042L700 11.46V7.26602L692.99 0.166687Z" fill="#FF712C"/>
<path d="M706.99 0.166687L700 7.26602V11.46L707 4.37042L714 11.46V7.26602L706.99 0.166687Z" fill="#FF712C"/>
<path d="M720.99 0.166687L714 7.26602V11.46L721 4.37042L728 11.46V7.26602L720.99 0.166687Z" fill="#FF712C"/>
<path d="M734.99 0.166687L728 7.26602V11.46L735 4.37042L742 11.46V7.26602L734.99 0.166687Z" fill="#FF712C"/>
<path d="M748.99 0.166687L742 7.26602V11.46L749 4.37042L756 11.46V7.26602L748.99 0.166687Z" fill="#FF712C"/>
<path d="M762.99 0.166687L756 7.26602V11.46L763 4.37042L770 11.46V7.26602L762.99 0.166687Z" fill="#FF712C"/>
<path d="M776.99 0.166687L770 7.26602V11.46L777 4.37042L784 11.46V7.26602L776.99 0.166687Z" fill="#FF712C"/>
<path d="M790.99 0.166687L784 7.26602V11.46L791 4.37042L798 11.46V7.26602L790.99 0.166687Z" fill="#FF712C"/>
<path d="M804.99 0.166687L798 7.26602V11.46L805 4.37042L812 11.46V7.26602L804.99 0.166687Z" fill="#FF712C"/>
<path d="M818.99 0.166687L812 7.26602V11.46L819 4.37042L826 11.46V7.26602L818.99 0.166687Z" fill="#FF712C"/>
<path d="M832.99 0.166687L826 7.26602V11.46L833 4.37042L840 11.46V7.26602L832.99 0.166687Z" fill="#FF712C"/>
<path d="M846.99 0.166687L840 7.26602V11.46L847 4.37042L854 11.46V7.26602L846.99 0.166687Z" fill="#FF712C"/>
<path d="M860.99 0.166687L854 7.26602V11.46L861 4.37042L868 11.46V7.26602L860.99 0.166687Z" fill="#FF712C"/>
<path d="M874.99 0.166687L868 7.26602V11.46L875 4.37042L882 11.46V7.26602L874.99 0.166687Z" fill="#FF712C"/>
<path d="M888.99 0.166687L882 7.26602V11.46L889 4.37042L896 11.46V7.26602L888.99 0.166687Z" fill="#FF712C"/>
<path d="M902.99 0.166687L896 7.26602V11.46L903 4.37042L910 11.46V7.26602L902.99 0.166687Z" fill="#FF712C"/>
<path d="M916.99 0.166687L910 7.26602V11.46L917 4.37042L924 11.46V7.26602L916.99 0.166687Z" fill="#FF712C"/>
<path d="M930.99 0.166687L924 7.26602V11.46L931 4.37042L938 11.46V7.26602L930.99 0.166687Z" fill="#FF712C"/>
<path d="M944.99 0.166687L938 7.26602V11.46L945 4.37042L952 11.46V7.26602L944.99 0.166687Z" fill="#FF712C"/>
<path d="M958.99 0.166687L952 7.26602V11.46L959 4.37042L966 11.46V7.26602L958.99 0.166687Z" fill="#FF712C"/>
<path d="M972.99 0.166687L966 7.26602V11.46L973 4.37042L980 11.46V7.26602L972.99 0.166687Z" fill="#FF712C"/>
<path d="M986.99 0.166687L980 7.26602V11.46L987 4.37042L994 11.46V7.26602L986.99 0.166687Z" fill="#FF712C"/>
<path d="M1000.99 0.166687L994 7.26602V11.46L1001 4.37042L1008 11.46V7.26602L1000.99 0.166687Z" fill="#FF712C"/>
<path d="M1014.99 0.166687L1008 7.26602V11.46L1015 4.37042L1022 11.46V7.26602L1014.99 0.166687Z" fill="#FF712C"/>
<path d="M1028.99 0.166687L1022 7.26602V11.46L1029 4.37042L1036 11.46V7.26602L1028.99 0.166687Z" fill="#FF712C"/>
<path d="M1042.99 0.166687L1036 7.26602V11.46L1043 4.37042L1050 11.46V7.26602L1042.99 0.166687Z" fill="#FF712C"/>
<path d="M1056.99 0.166687L1050 7.26602V11.46L1057 4.37042L1064 11.46V7.26602L1056.99 0.166687Z" fill="#FF712C"/>
<path d="M1070.99 0.166687L1064 7.26602V11.46L1071 4.37042L1078 11.46V7.26602L1070.99 0.166687Z" fill="#FF712C"/>
<path d="M1084.99 0.166687L1078 7.26602V11.46L1085 4.37042L1092 11.46V7.26602L1084.99 0.166687Z" fill="#FF712C"/>
<path d="M1098.99 0.166687L1092 7.26602V11.46L1099 4.37042L1106 11.46V7.26602L1098.99 0.166687Z" fill="#FF712C"/>
<path d="M1112.99 0.166687L1106 7.26602V11.46L1113 4.37042L1120 11.46V7.26602L1112.99 0.166687Z" fill="#FF712C"/>
<path d="M1126.99 0.166687L1120 7.26602V11.46L1127 4.37042L1134 11.46V7.26602L1126.99 0.166687Z" fill="#FF712C"/>
<path d="M1140.99 0.166687L1134 7.26602V11.46L1141 4.37042L1148 11.46V7.26602L1140.99 0.166687Z" fill="#FF712C"/>
<path d="M1154.99 0.166687L1148 7.26602V11.46L1155 4.37042L1162 11.46V7.26602L1154.99 0.166687Z" fill="#FF712C"/>
<path d="M1168.99 0L1162 7.09934V11.2933L1169 4.20373L1176 11.2933V7.09934L1168.99 0Z" fill="#FF712C"/>
<path d="M34.9904 0.166687L28 7.26602V11.46L35 4.37042L42 11.46V7.26602L34.9904 0.166687Z" fill="#FF712C"/>
</g>
<defs>
<clipPath id="clip0_2_1830">
<rect width="1176" height="12" fill="white"/>
</clipPath>
<clipPath id="clip1_2_1830">
<rect width="14" height="12" fill="white"/>
</clipPath>
</defs>
</svg>
