<svg width="53" height="53" viewBox="0 0 53 53" fill="none" xmlns="http://www.w3.org/2000/svg">
<path d="M42.6646 8.61002C42.4151 8.40816 42.1235 8.26479 41.8112 8.19044C41.499 8.1161 41.1741 8.11268 40.8603 8.18043C38.5651 8.66145 36.1957 8.66758 33.898 8.19843C31.6003 7.72929 29.4229 6.7948 27.4999 5.4525C27.1404 5.20306 26.7132 5.0694 26.2756 5.0694C25.838 5.0694 25.4108 5.20306 25.0513 5.4525C23.1283 6.7948 20.9509 7.72929 18.6532 8.19843C16.3555 8.66758 13.9861 8.66145 11.6909 8.18043C11.3771 8.11268 11.0522 8.1161 10.74 8.19044C10.4277 8.26479 10.1361 8.40816 9.88656 8.61002C9.63735 8.81219 9.4366 9.06762 9.29907 9.35755C9.16154 9.64748 9.09072 9.96454 9.09181 10.2854V26.2878C9.0899 29.3675 9.82378 32.403 11.2323 35.1417C12.6409 37.8803 14.6834 40.2429 17.1897 42.0325L25.0298 47.6172C25.3936 47.8762 25.829 48.0154 26.2756 48.0154C26.7222 48.0154 27.1576 47.8762 27.5214 47.6172L35.3615 42.0325C37.8678 40.2429 39.9103 37.8803 41.3189 35.1417C42.7274 32.403 43.4613 29.3675 43.4594 26.2878V10.2854C43.4605 9.96454 43.3897 9.64748 43.2521 9.35755C43.1146 9.06762 42.9138 8.81219 42.6646 8.61002ZM39.1634 26.2878C39.1651 28.6823 38.5948 31.0425 37.5002 33.1721C36.4055 35.3017 34.818 37.1391 32.8699 38.5313L26.2756 43.2353L19.6813 38.5313C17.7332 37.1391 16.1457 35.3017 15.051 33.1721C13.9564 31.0425 13.3861 28.6823 13.3878 26.2878V12.7556C17.8908 13.141 22.4007 12.0962 26.2756 9.76993C30.1505 12.0962 34.6604 13.141 39.1634 12.7556V26.2878ZM29.5835 21.369L23.8054 27.1685L21.8937 25.2353C21.4893 24.8308 20.9407 24.6036 20.3687 24.6036C19.7967 24.6036 19.2481 24.8308 18.8436 25.2353C18.4391 25.6398 18.2119 26.1884 18.2119 26.7604C18.2119 27.3324 18.4391 27.881 18.8436 28.2854L22.2804 31.7222C22.4801 31.9235 22.7176 32.0833 22.9794 32.1924C23.2411 32.3014 23.5219 32.3576 23.8054 32.3576C24.089 32.3576 24.3697 32.3014 24.6315 32.1924C24.8932 32.0833 25.1308 31.9235 25.3305 31.7222L32.7195 24.3976C33.124 23.9931 33.3512 23.4446 33.3512 22.8725C33.3512 22.3005 33.124 21.752 32.7195 21.3475C32.3151 20.943 31.7665 20.7158 31.1945 20.7158C30.6224 20.7158 30.0739 20.943 29.6694 21.3475L29.5835 21.369Z" fill="#FF712C"/>
</svg>
