<svg width="53" height="53" viewBox="0 0 53 53" fill="none" xmlns="http://www.w3.org/2000/svg">
<path d="M43.6957 38.3381L32.7195 19.5218V9.36193H34.8675C35.4372 9.36193 35.9835 9.13562 36.3863 8.7328C36.7891 8.32998 37.0155 7.78363 37.0155 7.21395C37.0155 6.64428 36.7891 6.09793 36.3863 5.69511C35.9835 5.29228 35.4372 5.06598 34.8675 5.06598H17.6837C17.114 5.06598 16.5677 5.29228 16.1648 5.69511C15.762 6.09793 15.5357 6.64428 15.5357 7.21395C15.5357 7.78363 15.762 8.32998 16.1648 8.7328C16.5677 9.13562 17.114 9.36193 17.6837 9.36193H19.8317V19.5218L8.85552 38.3381C8.28532 39.3169 7.98326 40.4288 7.97977 41.5617C7.97628 42.6945 8.27149 43.8082 8.83564 44.7906C9.3998 45.773 10.2129 46.5893 11.1931 47.1572C12.1733 47.7251 13.2859 48.0246 14.4188 48.0254H38.0465C39.1793 48.0246 40.2919 47.7251 41.2721 47.1572C42.2523 46.5893 43.0654 45.773 43.6296 44.7906C44.1938 43.8082 44.489 42.6945 44.4855 41.5617C44.482 40.4288 44.1799 39.3169 43.6097 38.3381H43.6957ZM23.8269 21.1543C24.0163 20.8353 24.1199 20.4727 24.1276 20.1018V9.36193H28.4236V20.1018C28.4275 20.48 28.5312 20.8505 28.7243 21.1758L30.5715 24.3977H21.9796L23.8269 21.1543ZM39.9797 42.634C39.7922 42.9587 39.5231 43.2286 39.199 43.417C38.875 43.6054 38.5072 43.7057 38.1324 43.708H14.5047C14.1298 43.7057 13.7621 43.6054 13.438 43.417C13.114 43.2286 12.8449 42.9587 12.6574 42.634C12.4689 42.3075 12.3697 41.9371 12.3697 41.56C12.3697 41.183 12.4689 40.8126 12.6574 40.486L19.4665 28.6937H33.1061L39.9797 40.5075C40.1682 40.8341 40.2674 41.2045 40.2674 41.5815C40.2674 41.9586 40.1682 42.329 39.9797 42.6555V42.634ZM21.9796 32.9896C21.5548 32.9896 21.1395 33.1156 20.7863 33.3516C20.4331 33.5876 20.1577 33.9231 19.9952 34.3156C19.8326 34.7081 19.7901 35.14 19.8729 35.5566C19.9558 35.9733 20.1604 36.356 20.4608 36.6564C20.7612 36.9568 21.1439 37.1614 21.5606 37.2443C21.9773 37.3272 22.4091 37.2846 22.8016 37.1221C23.1941 36.9595 23.5296 36.6842 23.7656 36.3309C24.0016 35.9777 24.1276 35.5624 24.1276 35.1376C24.1276 34.5679 23.9013 34.0216 23.4985 33.6187C23.0957 33.2159 22.5493 32.9896 21.9796 32.9896ZM30.5715 35.1376C30.1467 35.1376 29.7314 35.2636 29.3782 35.4996C29.0249 35.7356 28.7496 36.0711 28.5871 36.4636C28.4245 36.8561 28.3819 37.288 28.4648 37.7046C28.5477 38.1213 28.7523 38.504 29.0527 38.8044C29.3531 39.1048 29.7358 39.3094 30.1525 39.3923C30.5691 39.4751 31.001 39.4326 31.3935 39.27C31.786 39.1075 32.1215 38.8321 32.3575 38.4789C32.5935 38.1257 32.7195 37.7104 32.7195 37.2856C32.7195 36.7159 32.4932 36.1695 32.0904 35.7667C31.6876 35.3639 31.1412 35.1376 30.5715 35.1376Z" fill="#FF712C"/>
</svg>
