<svg width="906" height="723" viewBox="0 0 906 723" fill="none" xmlns="http://www.w3.org/2000/svg">
<g opacity="0.3">
<path opacity="0.4" d="M265 90.4C312.341 40.859 379.067 10 453 10C533.251 10 605.009 46.358 652.703 103.5M213 169.824C200.116 200.655 193 234.496 193 270C193 413.594 309.406 530 453 530C532.579 530 603.808 494.248 651.5 437.93M692.5 168.636C705.7 199.785 713 234.04 713 270C713 303.148 706.797 334.847 695.488 364" stroke="#4D5561"/>
<path opacity="0.3" d="M445.422 -43.644C528.083 -45.629 611.388 -15.135 674.554 47.865C743.117 116.249 773.443 208.46 765.498 297.921M333.316 -20.098C296.036 -4.73501 261.119 18.114 230.866 48.447C108.505 171.128 108.765 369.774 231.447 492.135C299.436 559.946 390.756 590.097 479.493 582.621M743.996 387.483C728.73 425.343 705.778 460.83 675.135 491.553C646.888 519.874 614.577 541.671 580.073 556.941" stroke="#4D5561"/>
<path opacity="0.4" d="M627.935 -54.401C713.424 -8.285 780.654 71.343 808.405 172.405C838.529 282.103 815.765 393.841 755.557 480.484M499.848 -95.669C452.867 -101.708 403.937 -98.7322 355.405 -85.4054C159.12 -31.505 43.6946 171.31 97.5946 367.595C127.466 476.374 203.073 560.32 297.958 604.373M681.459 559.335C643.835 589.07 599.75 611.907 550.595 625.405C505.283 637.848 459.624 641.267 415.528 636.752" stroke="#4D5561"/>
</g>
</svg>
