<svg width="38" height="39" viewBox="0 0 38 39" fill="none" xmlns="http://www.w3.org/2000/svg">
<g clip-path="url(#clip0_2_1396)">
<path d="M22.3892 30.916C22.4887 30.8663 22.6273 30.813 22.702 30.7917C22.773 30.774 22.9472 30.7669 23.0822 30.774C23.2634 30.7882 23.3914 30.8201 23.5548 30.8983C23.6756 30.9551 23.8427 31.0723 23.928 31.154C24.0132 31.2393 24.127 31.4026 24.2904 31.733V36.386L24.2016 36.5813C24.1518 36.6879 24.0381 36.8548 23.9528 36.9507C23.864 37.0431 23.697 37.1709 23.5797 37.2349C23.3843 37.3343 23.3381 37.345 23.0111 37.345C22.6842 37.345 22.638 37.3343 22.4248 37.2313C22.2862 37.1638 22.1298 37.0537 22.0339 36.9472C21.9486 36.8548 21.8349 36.6879 21.6963 36.386V31.733L21.8029 31.5199C21.8598 31.4026 21.9735 31.2393 22.0588 31.1576C22.144 31.0723 22.2933 30.9658 22.3892 30.916Z" fill="#FF712C"/>
<path d="M26.0191 29.7049C26.1043 29.6409 26.2714 29.5593 26.3886 29.5166C26.5521 29.4562 26.6623 29.442 26.8684 29.4527C27.0638 29.4598 27.1917 29.4918 27.3481 29.5628C27.5364 29.6481 27.7426 29.8399 29.1178 31.2109C30.493 32.5819 30.6885 32.7915 30.788 32.994C30.8946 33.2071 30.9017 33.2497 30.9017 33.58C30.9017 33.8926 30.8911 33.9565 30.8058 34.1306C30.7525 34.2371 30.6316 34.4041 30.5392 34.4964C30.4469 34.5888 30.2798 34.7095 30.1732 34.7628C29.9991 34.8481 29.9351 34.8587 29.6224 34.8587C29.2919 34.8587 29.2493 34.8516 29.0361 34.745C28.8335 34.6456 28.6239 34.4502 27.2522 33.0756C25.8769 31.6975 25.6886 31.495 25.6033 31.3068C25.5358 31.1612 25.5002 31.0155 25.4896 30.845C25.4789 30.6532 25.4931 30.5431 25.5535 30.3655C25.5962 30.2377 25.685 30.0636 25.749 29.9748C25.8129 29.886 25.9373 29.7653 26.0191 29.7049Z" fill="#FF712C"/>
<path d="M26.3168 25.6305C26.395 25.5914 26.5371 25.5381 26.6366 25.5133C26.7716 25.4778 27.3438 25.4706 28.9998 25.4742H29.0095C31.1534 25.4813 31.1891 25.4814 31.3807 25.5594C31.4944 25.6021 31.665 25.7157 31.7822 25.8258C31.9244 25.9537 32.0274 26.0887 32.1021 26.245C32.2051 26.451 32.2158 26.5078 32.2158 26.7955C32.2158 27.0832 32.2051 27.14 32.1021 27.3461C32.0274 27.5023 31.9244 27.6373 31.7822 27.7652C31.665 27.8753 31.4944 27.989 31.3807 28.0316C31.1888 28.1097 31.1639 28.1097 26.6721 28.1097L26.4589 28.0209C26.331 27.9712 26.1675 27.8611 26.0503 27.751C25.9223 27.6338 25.8193 27.4917 25.7482 27.3425C25.6523 27.14 25.6416 27.0797 25.6416 26.7778C25.6452 26.4865 25.6558 26.4119 25.7375 26.245C25.7909 26.1384 25.9117 25.9715 26.0041 25.8791C26.0965 25.7832 26.2386 25.6731 26.3168 25.6305Z" fill="#FF712C"/>
<path d="M3.76934 13.0925C3.83686 13.0534 3.95768 12.9966 4.03586 12.9717C4.14247 12.9398 4.72882 12.9327 8.7977 12.9433L9.01091 13.0534C9.12818 13.1174 9.2952 13.2452 9.38404 13.3376C9.46933 13.4335 9.57949 13.6004 9.62924 13.707C9.70387 13.8704 9.72163 13.9556 9.72163 14.222C9.72163 14.5062 9.71097 14.5666 9.61147 14.7726C9.55106 14.9004 9.43379 15.0709 9.35561 15.1526C9.27388 15.2379 9.09975 15.3586 8.72662 15.5362L6.54116 15.5469C5.13037 15.554 4.29528 15.5433 4.18511 15.5185C4.09272 15.5007 3.94347 15.4474 3.84752 15.4048C3.75513 15.3622 3.60943 15.2521 3.51704 15.1633C3.4282 15.0745 3.31093 14.9075 3.25052 14.7903C3.15812 14.5985 3.14746 14.5417 3.14746 14.2398C3.14746 13.945 3.16168 13.8739 3.24696 13.6892C3.30027 13.572 3.41398 13.4086 3.49571 13.3234C3.57745 13.2381 3.70182 13.1351 3.76934 13.0925Z" fill="#FF712C"/>
<path d="M4.88436 6.3795C4.98386 6.30491 5.13667 6.21967 5.22551 6.19481C5.31435 6.16994 5.48492 6.14508 5.6093 6.14508C5.73012 6.14153 5.92201 6.16994 6.03573 6.20546C6.14589 6.24098 6.32002 6.32623 6.41596 6.39726C6.51547 6.4683 7.25106 7.18934 8.05773 7.99563C9.28372 9.22459 9.53603 9.49453 9.61066 9.65792C9.66041 9.76448 9.71726 9.94207 9.73859 10.0486C9.76702 10.1872 9.76702 10.3044 9.73859 10.4571C9.71726 10.5743 9.66396 10.7484 9.61776 10.8478C9.57512 10.9437 9.45785 11.1035 9.3619 11.1959C9.26596 11.2918 9.09894 11.4126 8.99233 11.4623C8.82176 11.5475 8.75424 11.5582 8.44152 11.5582C8.12525 11.5582 8.06128 11.5475 7.87294 11.4587C7.68816 11.3699 7.46428 11.1639 6.12101 9.82486C4.68536 8.39344 4.57164 8.27267 4.45082 8.02759C4.33 7.78251 4.31934 7.73634 4.31934 7.45929C4.31934 7.2 4.3371 7.12185 4.42239 6.94071C4.47569 6.82349 4.56098 6.68142 4.61073 6.62103C4.66048 6.56065 4.78486 6.45409 4.88436 6.3795Z" fill="#FF712C"/>
<path d="M11.6574 3.88593C11.7426 3.82555 11.8955 3.75096 11.9914 3.71544C12.1229 3.66927 12.2508 3.65506 12.4569 3.66571C12.663 3.67282 12.7945 3.70123 12.9367 3.76517C13.0433 3.81489 13.2103 3.925 13.3027 4.01025C13.4057 4.10615 13.5194 4.26244 13.7007 4.63183V9.28484L13.6118 9.4802C13.5621 9.58675 13.4484 9.75369 13.3631 9.84604C13.2742 9.94194 13.1108 10.0663 12.99 10.1266C12.8407 10.1977 12.7021 10.2367 12.528 10.251C12.3325 10.2687 12.2259 10.2545 12.0305 10.1941C11.8919 10.1551 11.7071 10.0627 11.6147 9.99522C11.5188 9.92774 11.3802 9.77145 11.302 9.64714C11.2238 9.52637 11.1421 9.34522 11.1208 9.24932C11.0959 9.13211 11.0888 8.30806 11.1065 4.63183L11.2025 4.43648C11.2558 4.32992 11.3446 4.18429 11.4015 4.11681C11.4584 4.04932 11.5756 3.94632 11.6574 3.88593Z" fill="#FF712C"/>
<path d="M26.9924 1.74039C27.1595 1.71908 27.3514 1.69422 27.4189 1.68711C27.4864 1.68001 27.8702 1.67646 28.2717 1.68356C28.7017 1.69066 29.153 1.71908 29.3734 1.7546C29.5795 1.78301 29.9455 1.8576 30.1907 1.91799C30.4359 1.97837 30.8197 2.09558 31.0436 2.17373C31.2674 2.25542 31.6832 2.43657 31.9675 2.57509C32.2518 2.71717 32.6427 2.94094 32.8381 3.06881C33.0336 3.20023 33.3356 3.424 33.5133 3.56608C33.691 3.70815 33.9895 3.98165 34.1814 4.17345C34.3733 4.36526 34.6505 4.66717 34.7926 4.84476C34.9348 5.02236 35.1586 5.32427 35.2901 5.51963C35.4181 5.71498 35.649 6.12345 35.8018 6.42537C35.9724 6.76635 36.1465 7.18548 36.2567 7.52646C36.3562 7.82837 36.4806 8.28302 36.5303 8.53875C36.5801 8.79449 36.6369 9.15679 36.6583 9.34504C36.676 9.53684 36.6938 9.94531 36.6938 10.2508C36.6938 10.5598 36.6689 11.0215 36.6405 11.2737C36.6085 11.5259 36.5445 11.9202 36.4948 12.1439C36.445 12.3677 36.3313 12.7691 36.246 13.0319C36.1572 13.2948 35.9653 13.7494 35.8232 14.0442C35.6775 14.3355 35.4358 14.7652 35.283 14.9926C35.1302 15.2199 34.8743 15.5644 34.7144 15.7562C34.5545 15.948 32.4686 18.0543 30.077 20.4412C26.7224 23.7907 25.6492 24.8385 25.3756 25.0409C25.1801 25.1866 24.8674 25.3997 24.6826 25.5169C24.4978 25.6306 24.1353 25.8259 23.883 25.9467C23.6307 26.071 23.183 26.2486 22.888 26.348C22.5966 26.4439 22.1453 26.5647 21.893 26.6144C21.6407 26.6642 21.2889 26.721 21.1112 26.7423C20.9335 26.7601 20.5 26.7778 20.1446 26.7778C19.7609 26.7778 19.3202 26.7565 19.0786 26.7245C18.8476 26.6926 18.4745 26.6286 18.2506 26.5754C18.0267 26.5256 17.65 26.4226 17.4155 26.3445C17.1809 26.2663 16.7261 26.0781 16.4027 25.9218C16.0793 25.7655 15.6422 25.5204 15.4255 25.3748C15.2087 25.2327 14.9066 25.0125 14.7503 24.8846C14.5939 24.7603 14.3452 24.5366 14.1959 24.3945C14.0218 24.2204 13.8939 24.0606 13.8228 23.9185C13.7304 23.7267 13.7197 23.6699 13.7197 23.3502C13.7197 23.0377 13.7304 22.9702 13.8192 22.789C13.8725 22.6789 13.9898 22.5084 14.0857 22.4161C14.1781 22.3237 14.3274 22.2101 14.4233 22.1674C14.5157 22.1248 14.6756 22.0715 14.7787 22.0502C14.8818 22.0289 15.0523 22.0183 15.1589 22.0325C15.2655 22.0467 15.4503 22.0999 15.5676 22.1568C15.6991 22.2172 15.8981 22.3628 16.0829 22.5333C16.2499 22.686 16.4951 22.892 16.6337 22.995C16.7723 23.0945 16.9784 23.2366 17.0957 23.304C17.2129 23.3751 17.4439 23.4994 17.6109 23.574C17.7779 23.6521 18.0587 23.7658 18.2328 23.8297C18.4069 23.8901 18.7445 23.9789 18.9791 24.0286C19.2456 24.0819 19.5938 24.1245 19.903 24.1387C20.2086 24.1494 20.5427 24.1423 20.7736 24.1174C20.9797 24.0926 21.2889 24.0428 21.4666 24.0038C21.6443 23.9647 21.9286 23.8866 22.1062 23.8262C22.2839 23.7658 22.6037 23.6273 22.817 23.5207C23.0302 23.4142 23.35 23.2259 23.5241 23.1051C23.6983 22.9879 23.9719 22.7748 24.1282 22.6363C24.2882 22.4942 26.2782 20.5122 28.5596 18.2319C31.9675 14.815 32.7422 14.0193 32.9376 13.7423C33.0691 13.5576 33.2752 13.206 33.4032 12.9609C33.5275 12.7158 33.6839 12.3428 33.755 12.1262C33.8225 11.9095 33.9042 11.6147 33.9362 11.4691C33.9646 11.3234 34.0073 11.018 34.0321 10.7942C34.0535 10.5633 34.0641 10.2081 34.0499 9.97728C34.0392 9.75351 33.9966 9.39477 33.9575 9.1781C33.922 8.96143 33.8331 8.61334 33.7621 8.39668C33.691 8.18001 33.556 7.84613 33.46 7.65078C33.3676 7.45542 33.2042 7.16772 33.1047 7.01143C33.0016 6.85515 32.8168 6.60651 32.696 6.46089C32.5752 6.31526 32.3406 6.06662 32.1736 5.91034C32.0101 5.75405 31.7223 5.51963 31.5375 5.38821C31.3527 5.25679 31.0258 5.06143 30.8126 4.95487C30.5994 4.84832 30.2618 4.70624 30.0663 4.63875C29.8709 4.57127 29.5333 4.47892 29.3201 4.43274C28.9683 4.3546 28.8439 4.3475 28.0941 4.35105C27.3656 4.35105 27.2128 4.3617 26.9036 4.42919C26.7082 4.47537 26.3883 4.56416 26.1929 4.6281C25.9974 4.69558 25.6705 4.83056 25.4644 4.93356C25.2583 5.03657 24.9704 5.19996 24.8247 5.29941C24.6791 5.39531 24.4765 5.54094 24.3805 5.61908C24.2846 5.69722 22.7246 7.2352 20.9158 9.03602C18.016 11.9237 17.6074 12.3215 17.4332 12.3961C17.2698 12.4672 17.1809 12.4814 16.8824 12.4814C16.5697 12.4814 16.5022 12.4707 16.3316 12.3855C16.225 12.3357 16.058 12.215 15.9621 12.1191C15.8661 12.0267 15.7524 11.8775 15.7097 11.7887C15.6635 11.6999 15.6102 11.5401 15.5889 11.4336C15.564 11.3199 15.5569 11.1636 15.5712 11.0606C15.5854 10.9647 15.628 10.7942 15.6635 10.6877C15.7311 10.503 15.9407 10.2863 19.0466 7.17837C20.93 5.28875 22.5078 3.74012 22.7104 3.57318C22.9058 3.4169 23.2185 3.18602 23.4033 3.06526C23.5881 2.94449 23.9079 2.75624 24.114 2.64968C24.3201 2.53957 24.6648 2.37974 24.8781 2.29449C25.0913 2.20925 25.436 2.08848 25.6421 2.0281C25.8482 1.96772 26.168 1.88602 26.3528 1.84695C26.5376 1.80788 26.8254 1.75815 26.9924 1.74039Z" fill="#FF712C"/>
<path d="M15.0165 13.4938C15.1338 13.4725 15.4145 13.4298 15.6384 13.405C15.9049 13.373 16.2816 13.3588 16.7222 13.3695C17.0918 13.3766 17.5324 13.4014 17.6995 13.4227C17.8665 13.444 18.1863 13.5009 18.4102 13.5506C18.6341 13.6003 19.0605 13.7211 19.3519 13.817C19.6468 13.9165 20.1088 14.1047 20.3824 14.2397C20.6561 14.3746 21.047 14.5949 21.2531 14.7298C21.4592 14.8613 21.7861 15.1028 21.9816 15.2591C22.177 15.4189 22.4435 15.6569 22.575 15.7919C22.7065 15.9233 22.8557 16.1222 22.9126 16.2287C23.0014 16.4063 23.0121 16.4596 23.0121 16.7971C23.0121 17.1096 22.9979 17.1984 22.9339 17.3369C22.8877 17.4328 22.7669 17.5962 22.6674 17.7063C22.5608 17.8165 22.3938 17.9443 22.2836 17.9976C22.113 18.0828 22.0455 18.0935 21.7328 18.0935C21.4272 18.0935 21.3526 18.0828 21.182 18.0012C21.0718 17.9514 20.848 17.7845 20.6667 17.6211C20.489 17.4613 20.2047 17.2233 20.0271 17.099C19.8494 16.9711 19.4976 16.7651 19.2453 16.6372C18.993 16.5093 18.6376 16.3602 18.4635 16.3033C18.2894 16.2465 17.9766 16.1613 17.7705 16.1151C17.4436 16.044 17.2979 16.0369 16.5801 16.0369C15.8622 16.0369 15.7165 16.044 15.3896 16.1151C15.1835 16.1613 14.8495 16.2536 14.6434 16.3246C14.4372 16.3921 14.1245 16.5236 13.9504 16.6088C13.7763 16.6976 13.4955 16.8574 13.3285 16.9675C13.1615 17.0741 12.9056 17.2624 12.7599 17.3867C12.6142 17.5074 10.7024 19.4042 8.50983 21.5992C6.31725 23.7943 4.45516 25.6839 4.36632 25.8012C4.27748 25.9184 4.146 26.1102 4.07137 26.2274C3.9932 26.3446 3.85816 26.5932 3.76576 26.7779C3.67337 26.9626 3.54189 27.2752 3.47437 27.4706C3.40685 27.6659 3.31801 27.9785 3.27892 28.1632C3.23628 28.3479 3.18653 28.7102 3.16165 28.9624C3.12612 29.3282 3.12612 29.52 3.16165 29.8859C3.18653 30.138 3.23628 30.4897 3.27181 30.6673C3.3109 30.8449 3.39619 31.1468 3.46371 31.3421C3.53123 31.5375 3.62717 31.7932 3.68048 31.9104C3.73378 32.0277 3.86171 32.2656 3.96477 32.4432C4.06782 32.6208 4.24195 32.8837 4.35566 33.0293C4.46582 33.1749 4.66483 33.4058 4.79631 33.5372C4.92424 33.6722 5.15167 33.8818 5.29737 34.0025C5.44307 34.1268 5.69182 34.3115 5.84818 34.4145C6.00454 34.514 6.29238 34.6774 6.48783 34.7697C6.68328 34.8656 6.98889 34.99 7.16301 35.0503C7.33714 35.1107 7.63564 35.1889 7.82043 35.2315C8.00522 35.2706 8.36413 35.3203 8.61999 35.3451C8.9718 35.3771 9.19212 35.3771 9.54393 35.3451C9.79624 35.3238 10.1338 35.2812 10.2902 35.2492C10.4465 35.2173 10.7486 35.132 10.9654 35.0645C11.1821 34.9935 11.5553 34.8372 11.8005 34.7129C12.0457 34.585 12.3975 34.379 12.5823 34.2476C12.8523 34.0558 13.4849 33.4449 15.7983 31.1432C18.4777 28.4793 18.6909 28.2733 18.8721 28.2058C18.9788 28.1667 19.1387 28.1241 19.2275 28.1099C19.3163 28.0957 19.4763 28.1028 19.5829 28.1206C19.6895 28.1419 19.8494 28.188 19.9382 28.2307C20.0271 28.2697 20.1763 28.3692 20.2723 28.4544C20.3895 28.561 20.4819 28.6889 20.5708 28.8736C20.6845 29.1044 20.6987 29.1755 20.7023 29.4063C20.7023 29.5839 20.6774 29.7331 20.6347 29.8503C20.5956 29.9498 20.521 30.0919 20.4677 30.17C20.4144 30.2481 19.0854 31.5908 17.5147 33.1572C15.3683 35.2954 14.5723 36.0662 14.3058 36.2615C14.1103 36.4072 13.8154 36.6132 13.6483 36.7162C13.4813 36.8227 13.1224 37.0181 12.8488 37.1495C12.5752 37.2809 12.1843 37.4479 11.9781 37.5225C11.772 37.5935 11.4522 37.6894 11.2674 37.7356C11.0826 37.7818 10.7379 37.8563 10.5034 37.8954C10.212 37.9487 9.85309 37.9771 9.36625 37.9913C8.91849 38.0055 8.49917 37.9949 8.22909 37.97C7.99456 37.9451 7.60366 37.8848 7.35846 37.835C7.11326 37.7889 6.67261 37.6681 6.38122 37.5722C6.05784 37.4656 5.6243 37.288 5.2796 37.114C4.96688 36.9613 4.55111 36.7268 4.35566 36.5954C4.16021 36.4675 3.88659 36.2686 3.75155 36.1621C3.61296 36.052 3.31446 35.7785 3.07992 35.5512C2.84893 35.3274 2.54332 35.0006 2.40118 34.823C2.26259 34.6454 2.02805 34.3257 1.88591 34.1126C1.74376 33.8995 1.51989 33.4982 1.38485 33.2247C1.24981 32.9512 1.08279 32.5675 1.01172 32.3722C0.944201 32.1768 0.841146 31.8394 0.784289 31.6263C0.727431 31.4132 0.659912 31.0935 0.62793 30.9159C0.599501 30.7383 0.556858 30.4115 0.53909 30.1878C0.517768 29.964 0.5 29.6017 0.5 29.3886C0.5 29.1755 0.524875 28.7812 0.54975 28.5184C0.578179 28.2555 0.635037 27.879 0.67768 27.6837C0.71677 27.4883 0.798503 27.1615 0.858914 26.9555C0.919326 26.7495 1.04015 26.405 1.12543 26.1919C1.21428 25.9787 1.37419 25.6342 1.48435 25.4282C1.59096 25.2222 1.76864 24.9203 1.87525 24.7533C1.98541 24.5864 2.1702 24.3236 2.28746 24.1673C2.41895 23.9897 4.07493 22.3096 6.66195 19.7167C9.08907 17.2872 10.9725 15.4296 11.1786 15.2591C11.374 15.1028 11.6868 14.8719 11.8715 14.7512C12.0563 14.6304 12.4081 14.4279 12.6533 14.3036C12.8985 14.1793 13.2503 14.0195 13.4351 13.9484C13.6199 13.8774 13.8758 13.7886 14.0037 13.746C14.1316 13.7069 14.3626 13.643 14.519 13.6039C14.6753 13.5648 14.8992 13.5151 15.0165 13.4938Z" fill="#FF712C"/>
</g>
<defs>
<clipPath id="clip0_2_1396">
<rect width="37" height="38" fill="white" transform="translate(0.5 0.860107)"/>
</clipPath>
</defs>
</svg>
