<svg xmlns="http://www.w3.org/2000/svg" width="32" height="40" viewBox="0 0 32 40" fill="none">
  <path d="M16 19.75C16.7563 19.75 17.4039 19.4805 17.9429 18.9415C18.4819 18.4025 18.751 17.7553 18.75 17C18.75 16.2437 18.4805 15.5961 17.9415 15.0571C17.4025 14.5181 16.7553 14.2491 16 14.25C15.2437 14.25 14.5961 14.5195 14.0571 15.0585C13.5181 15.5975 13.2491 16.2447 13.25 17C13.25 17.7563 13.5195 18.4039 14.0585 18.9429C14.5975 19.4819 15.2447 19.751 16 19.75ZM16 29.8563C18.7958 27.2895 20.8698 24.9575 22.2219 22.8603C23.5739 20.763 24.25 18.9012 24.25 17.275C24.25 14.7771 23.4535 12.732 21.8603 11.1398C20.267 9.5475 18.3137 8.75092 16 8.75C13.6854 8.75 11.7315 9.54658 10.1384 11.1398C8.5452 12.7329 7.74908 14.778 7.75 17.275C7.75 18.9021 8.42605 20.7643 9.77812 22.8616C11.1302 24.9589 13.2042 27.2905 16 29.8563ZM16 33.5C12.3104 30.3605 9.55492 27.4445 7.7335 24.7522C5.91208 22.06 5.00092 19.5676 5 17.275C5 13.8375 6.10596 11.099 8.31788 9.05937C10.5298 7.01979 13.0905 6 16 6C18.9105 6 21.4715 7.01979 23.6835 9.05937C25.8955 11.099 27.001 13.8375 27 17.275C27 19.5667 26.0888 22.059 24.2665 24.7522C22.4442 27.4455 19.6887 30.3613 16 33.5Z" fill="#FF712C"/>
</svg>