<svg width="40" height="46" viewBox="0 0 40 46" fill="none" xmlns="http://www.w3.org/2000/svg">
<g clip-path="url(#clip0_3_2234)">
<path fill-rule="evenodd" clip-rule="evenodd" d="M11.3966 7.6101C9.35941 9.57143 8.01848 12.5249 8.01848 16.5029C8.01848 17.419 7.27587 18.1616 6.35982 18.1616C5.44377 18.1616 4.70117 17.419 4.70117 16.5029C4.70117 11.7383 6.33066 7.88252 9.09592 5.2203C11.8483 2.57043 15.5981 1.22583 19.629 1.22583C23.6599 1.22583 27.4097 2.57043 30.1621 5.2203C32.9274 7.88252 34.5569 11.7383 34.5569 16.5029C34.5569 20.0286 32.7378 23.9156 30.6206 27.3062C28.4646 30.7587 25.8218 33.9708 23.8362 36.2079C21.5762 38.7543 17.6818 38.7543 15.4218 36.2079C13.5907 34.1448 11.2045 31.2568 9.15594 28.1179C8.6655 27.3665 8.19257 26.5978 7.75007 25.8201C7.6439 25.6334 7.53944 25.4462 7.43686 25.2585C6.99762 24.4546 7.2932 23.4469 8.09707 23.0076C8.90094 22.5684 9.90869 22.864 10.3479 23.6678C10.4411 23.8384 10.5363 24.009 10.6334 24.1797C11.0384 24.8916 11.4755 25.6024 11.9339 26.3049C13.8598 29.2557 16.1301 32.0085 17.9028 34.0059C18.8431 35.0653 20.415 35.0653 21.3552 34.0059C23.2809 31.8361 25.7893 28.78 27.8068 25.5491C29.863 22.2563 31.2396 19.0447 31.2396 16.5029C31.2396 12.5249 29.8987 9.57143 27.8614 7.6101C25.8113 5.63642 22.9265 4.54314 19.629 4.54314C16.3315 4.54314 13.4467 5.63642 11.3966 7.6101Z" fill="#FF712C"/>
<path fill-rule="evenodd" clip-rule="evenodd" d="M19.6287 11.1778C18.1019 11.1778 16.8642 12.4155 16.8642 13.9422C16.8642 15.469 18.1019 16.7066 19.6287 16.7066C21.1554 16.7066 22.3931 15.469 22.3931 13.9422C22.3931 12.4155 21.1554 11.1778 19.6287 11.1778ZM13.5469 13.9422C13.5469 10.5834 16.2698 7.86047 19.6287 7.86047C22.9875 7.86047 25.7104 10.5834 25.7104 13.9422C25.7104 17.3011 22.9875 20.0239 19.6287 20.0239C16.2698 20.0239 13.5469 17.3011 13.5469 13.9422Z" fill="#FF712C"/>
<path fill-rule="evenodd" clip-rule="evenodd" d="M3.63142 37.0471C3.59484 37.1209 3.59465 37.1552 3.59465 37.1635C3.59459 37.1708 3.59408 37.2333 3.68307 37.3692C3.78142 37.5194 3.97225 37.7306 4.31198 37.9816C5.00017 38.49 6.10202 39.0178 7.61269 39.4899C10.6142 40.4279 14.8627 41.0337 19.6283 41.0337C24.3938 41.0337 28.6423 40.4279 31.6439 39.4899C33.1545 39.0178 34.2564 38.49 34.9446 37.9816C35.2843 37.7306 35.4751 37.5194 35.5735 37.3692C35.6625 37.2333 35.662 37.1712 35.6619 37.1639C35.6619 37.1556 35.6617 37.1209 35.6251 37.0471C35.5853 36.9666 35.5019 36.8404 35.3371 36.6771C34.997 36.3401 34.4139 35.9467 33.5362 35.5472C31.7885 34.7519 29.2032 34.0804 26.0547 33.6821L26.471 30.3911C29.8065 30.813 32.75 31.5448 34.9102 32.5278C35.9863 33.0176 36.9519 33.6071 37.6721 34.3208C38.3973 35.0394 38.9792 35.9974 38.9792 37.1635C38.9792 38.7003 37.9858 39.8592 36.9159 40.6497C35.8135 41.4641 34.3244 42.1277 32.6333 42.6562C29.2316 43.7192 24.6339 44.351 19.6283 44.351C14.6226 44.351 10.025 43.7192 6.62322 42.6562C4.93221 42.1277 3.44308 41.4641 2.34071 40.6497C1.27081 39.8592 0.277344 38.7003 0.277344 37.1635C0.277344 35.9974 0.859298 35.0394 1.58443 34.3208C2.30463 33.6071 3.27023 33.0176 4.34638 32.5278C6.50656 31.5448 9.45011 30.813 12.7855 30.3911L13.2018 33.6821C10.0534 34.0804 7.46811 34.7519 5.72041 35.5472C4.84262 35.9467 4.25952 36.3401 3.9195 36.6771C3.75462 36.8404 3.67131 36.9666 3.63142 37.0471Z" fill="#FF712C"/>
</g>
<defs>
<clipPath id="clip0_3_2234">
<rect width="39" height="45" fill="white" transform="translate(0.0898438 0.25)"/>
</clipPath>
</defs>
</svg>
