<svg xmlns="http://www.w3.org/2000/svg" width="74" height="55" viewBox="0 0 74 55" fill="none">
  <path d="M54.2759 19.024V41.2692H32.0308V47.8112H60.8191V19.024H54.2759Z" fill="#FF712C"/>
  <path d="M51.3064 9.51244H44.7138V31.7071H22.5192V38.2996H51.3064V9.51244Z" fill="#FF712C"/>
  <path d="M13.0076 0H41.7948V28.7872H13.0076V0Z" fill="#FF712C"/>
  <path d="M6.81683 49.9255H66.8146C70.5233 49.9255 73.5394 46.9097 73.5394 43.201C73.5394 39.4922 70.5233 36.4776 66.8146 36.4776H6.81683C3.0899 36.4776 0.0752563 39.4922 0.0752563 43.201C0.0752563 46.9097 3.0899 49.9255 6.81683 49.9255Z" fill="#FFEDE5"/>
  <path d="M11.339 41.0809H15.7776V45.391H14.6176V42.11H12.4955V45.391H11.339V41.0809Z" fill="#FF712C"/>
  <path d="M17.5083 44.4387C17.6799 44.4387 17.7949 44.3982 17.8526 44.3168C17.9101 44.2356 17.9439 44.116 17.9517 43.9569L18.0805 41.0809H22.0059V45.391H20.8459V42.11H19.1614L19.0791 44.0854C19.0655 44.3124 19.034 44.5109 18.9832 44.6836C18.9346 44.8552 18.8578 44.9984 18.7541 45.1146C18.6481 45.2295 18.5103 45.3176 18.3399 45.3786C18.1706 45.4395 17.9621 45.4698 17.7137 45.4698C17.6155 45.4698 17.5164 45.4655 17.4171 45.4566C17.3188 45.4473 17.2319 45.4306 17.1554 45.4046V44.4208C17.2059 44.4286 17.2657 44.4332 17.3347 44.4364C17.4023 44.4375 17.4598 44.4387 17.5083 44.4387Z" fill="#FF712C"/>
  <path d="M24.4553 45.391H23.414V45.1336L25.3308 41.0809H26.4896L28.4066 45.1336V45.391H27.3651L26.9916 44.5548H24.8241L24.4553 45.391ZM25.2554 43.5892H26.5676L25.9108 42.1155L25.2554 43.5892Z" fill="#FF712C"/>
  <path d="M29.6284 43.4029V43.069C29.6284 42.7778 29.6657 42.5026 29.7391 42.2464C29.8113 41.987 29.9355 41.7623 30.1114 41.5716C30.2873 41.381 30.5267 41.2311 30.8269 41.1193C31.127 41.0087 31.5048 40.9523 31.9597 40.9523H32.1896C32.4808 40.9523 32.7641 40.9703 33.0382 41.0064C33.3147 41.0425 33.5853 41.0956 33.8505 41.1644V42.2137C33.7005 42.1698 33.5492 42.1337 33.3958 42.1031C33.2448 42.0739 33.0934 42.0491 32.9458 42.0297C32.7979 42.0107 32.657 41.9971 32.5203 41.9881C32.386 41.9789 32.2653 41.9757 32.1593 41.9757C31.8242 41.9757 31.5657 42.006 31.3829 42.0681C31.2003 42.1302 31.0672 42.2172 30.9846 42.3287C30.9011 42.4393 30.8517 42.5725 30.8358 42.727C30.8211 42.8818 30.8133 43.0508 30.8133 43.2359C30.8133 43.4211 30.8211 43.5903 30.8358 43.7449C30.8517 43.8994 30.9011 44.0337 30.9846 44.1452C31.0672 44.2604 31.2003 44.3485 31.3829 44.4104C31.5657 44.4725 31.8242 44.5031 32.1593 44.5031C32.2653 44.5031 32.386 44.4985 32.5203 44.4907C32.657 44.4817 32.7979 44.4681 32.9458 44.4488C33.0934 44.4309 33.2448 44.4049 33.3958 44.3711C33.5492 44.3393 33.7005 44.302 33.8505 44.2581V45.313C33.5853 45.3786 33.3147 45.4294 33.0382 45.4655C32.7641 45.5016 32.4808 45.5195 32.1896 45.5195H31.9597C31.5048 45.5195 31.127 45.4632 30.8269 45.3526C30.5267 45.2408 30.2873 45.0909 30.1114 44.9002C29.9355 44.7096 29.8113 44.4849 29.7391 44.2255C29.6657 43.9693 29.6284 43.694 29.6284 43.4029Z" fill="#FF712C"/>
  <path d="M38.1031 45.391H36.9442V42.11H35.2721V41.0809H39.7821V42.11H38.1031V45.391Z" fill="#FF712C"/>
  <path d="M40.759 43.0756H43.0189V43.9771H40.759V43.0756Z" fill="#FF712C"/>
  <path d="M44.6844 41.0809H49.123V45.391H47.9665V42.11H45.8432V45.391H44.6844V41.0809Z" fill="#FF712C"/>
  <path d="M50.7919 43.4029V43.069C50.7919 42.7778 50.828 42.5026 50.9002 42.2464C50.9736 41.987 51.101 41.7623 51.2827 41.5716C51.4655 41.381 51.7102 41.2311 52.0195 41.1193C52.3286 41.0087 52.7168 40.9523 53.185 40.9523H53.4152C53.8823 40.9523 54.2716 41.0087 54.5807 41.1193C54.8897 41.2311 55.1347 41.381 55.3164 41.5716C55.4992 41.7623 55.6266 41.987 55.6999 42.2464C55.7722 42.5026 55.8083 42.7778 55.8083 43.069V43.4029C55.8083 43.694 55.7722 43.9693 55.6999 44.2255C55.6266 44.4849 55.4992 44.7096 55.3164 44.9002C55.1347 45.0909 54.8897 45.2408 54.5807 45.3526C54.2716 45.4632 53.8823 45.5195 53.4152 45.5195H53.185C52.7168 45.5195 52.3286 45.4632 52.0195 45.3526C51.7102 45.2408 51.4655 45.0909 51.2827 44.9002C51.101 44.7096 50.9736 44.4849 50.9002 44.2255C50.828 43.9693 50.7919 43.694 50.7919 43.4029ZM51.9485 43.2359C51.9485 43.3994 51.9563 43.5563 51.9721 43.7088C51.9866 43.861 52.0351 43.9953 52.1197 44.1114C52.2032 44.2267 52.3364 44.3191 52.5181 44.3878C52.6997 44.4569 52.9606 44.4907 53.3 44.4907C53.6396 44.4907 53.9002 44.4569 54.0818 44.3878C54.2635 44.3191 54.3967 44.2267 54.4802 44.1114C54.5648 43.9953 54.6133 43.861 54.628 43.7088C54.6439 43.5563 54.6517 43.3994 54.6517 43.2359C54.6517 43.0724 54.6439 42.9156 54.628 42.7654C54.6133 42.6155 54.5648 42.4823 54.4802 42.3671C54.3967 42.2521 54.2635 42.1597 54.0818 42.0895C53.9002 42.0219 53.6396 41.9881 53.3 41.9881C52.9606 41.9881 52.6997 42.0219 52.5181 42.0895C52.3364 42.1597 52.2032 42.2521 52.1197 42.3671C52.0351 42.4823 51.9866 42.6155 51.9721 42.7654C51.9563 42.9156 51.9485 43.0724 51.9485 43.2359Z" fill="#FF712C"/>
  <path d="M57.5199 44.4387C57.6912 44.4387 57.8065 44.3982 57.864 44.3168C57.9226 44.2356 57.9555 44.116 57.9645 43.9569L58.0942 41.0809H62.0172V45.391H60.8607V42.11H59.175L59.0904 44.0854C59.078 44.3124 59.0465 44.5109 58.9979 44.6836C58.9483 44.8552 58.8714 44.9984 58.7654 45.1146C58.6606 45.2295 58.5228 45.3176 58.3535 45.3786C58.1854 45.4395 57.9757 45.4698 57.7265 45.4698C57.6271 45.4698 57.5289 45.4655 57.4307 45.4566C57.3313 45.4473 57.2435 45.4306 57.1667 45.4046V44.4208C57.2187 44.4286 57.2785 44.4332 57.3472 44.4364C57.416 44.4375 57.4737 44.4387 57.5199 44.4387Z" fill="#FF712C"/>
  <path d="M45.1347 49.9142H28.3333C28.2114 49.9142 28.1314 49.7912 28.1314 49.6063C28.1314 49.4223 28.2114 49.2981 28.3333 49.2981H45.1153C45.236 49.2981 45.3163 49.4223 45.3163 49.6063C45.3163 49.7912 45.236 49.9142 45.1347 49.9142Z" fill="#FF712C"/>
  <path d="M30.2084 52.435H30.7003V53.1435H31.0152L31.6087 52.435H32.0894V52.5433L31.4158 53.3489L32.0894 54.1521V54.2628H31.6087L31.0365 53.5802H30.7003V54.2628H30.2084V52.435Z" fill="#FF712C"/>
  <path d="M32.6682 54.2628H32.2257V54.1521L33.0405 52.435H33.5301L34.3447 54.1521V54.2628H33.9024L33.7444 53.9072H32.8239L32.6682 54.2628ZM33.0056 53.4976H33.5651L33.2852 52.8726L33.0056 53.4976Z" fill="#FF712C"/>
  <path d="M34.5116 53.4176V53.2778C34.5116 53.1536 34.5264 53.0363 34.557 52.928C34.5885 52.8186 34.6416 52.7238 34.715 52.6424C34.7904 52.5612 34.8909 52.4971 35.0183 52.4494C35.1448 52.4021 35.3059 52.3784 35.4989 52.3784H35.5959C35.7213 52.3784 35.8409 52.3865 35.9582 52.4021C36.0746 52.4179 36.1884 52.4405 36.3001 52.4688V52.9133C36.2369 52.8963 36.1725 52.8807 36.1083 52.8682C36.0439 52.8547 35.9807 52.8446 35.9177 52.8353C35.8556 52.8287 35.7947 52.822 35.7372 52.8186C35.6794 52.8151 35.6289 52.8139 35.5835 52.8139C35.4426 52.8139 35.3319 52.8264 35.2542 52.8524C35.1774 52.8784 35.1211 52.9156 35.085 52.963C35.0489 53.0104 35.0284 53.0667 35.0229 53.1322C35.0171 53.1987 35.0139 53.2709 35.0139 53.3489C35.0139 53.4266 35.0171 53.4976 35.0229 53.5632C35.0284 53.6296 35.0489 53.6862 35.085 53.7348C35.1211 53.7821 35.1774 53.8194 35.2542 53.8474C35.3319 53.8734 35.4426 53.8858 35.5835 53.8858C35.6289 53.8858 35.6794 53.8835 35.7372 53.8792C35.7947 53.8769 35.8556 53.8711 35.9177 53.8621C35.9807 53.8555 36.0439 53.8442 36.1083 53.8295C36.1725 53.8171 36.2369 53.8012 36.3001 53.7821V54.2301C36.1884 54.2581 36.0746 54.2787 35.9582 54.2931C35.8409 54.309 35.7213 54.3168 35.5959 54.3168H35.4989C35.3059 54.3168 35.1448 54.2931 35.0183 54.2457C34.8909 54.1984 34.7904 54.1342 34.715 54.0528C34.6416 53.9716 34.5885 53.8769 34.557 53.7686C34.5264 53.6591 34.5116 53.5418 34.5116 53.4176Z" fill="#FF712C"/>
  <path d="M36.6014 52.435H37.0933V53.1435H37.4081L38.0014 52.435H38.4823V52.5433L37.8087 53.3489L38.4823 54.1521V54.2628H38.0014L37.4295 53.5802H37.0933V54.2628H36.6014V52.435Z" fill="#FF712C"/>
  <path d="M39.0609 54.2628H38.6187V54.1521L39.4332 52.435H39.9231L40.7376 54.1521V54.2628H40.2954L40.1374 53.9072H39.2166L39.0609 54.2628ZM39.3982 53.4976H39.9557L39.6781 52.8726L39.3982 53.4976Z" fill="#FF712C"/>
  <path d="M41.2555 54.2628V54.5617L40.9283 54.7547H40.8199V53.8249H41.0253C41.0649 53.8024 41.0909 53.7628 41.1033 53.7065C41.118 53.6501 41.127 53.5768 41.1293 53.4852L41.1833 52.435H42.8779V53.8249H43.1512V54.5617L42.8216 54.7547H42.7133V54.2628H41.2555ZM41.5455 53.8249H42.386V52.8705H41.6379L41.6076 53.4638C41.6041 53.536 41.5964 53.6028 41.5862 53.6626C41.5758 53.7223 41.5626 53.7764 41.5455 53.8249Z" fill="#FF712C"/>
</svg>