<svg width="50" height="36" viewBox="0 0 50 36" fill="none" xmlns="http://www.w3.org/2000/svg">
<g clip-path="url(#clip0_3_2244)">
<path fill-rule="evenodd" clip-rule="evenodd" d="M1.26562 6.73072C1.26562 3.37187 3.98851 0.648987 7.34736 0.648987H42.732C46.0908 0.648987 48.8137 3.37187 48.8137 6.73072V28.8461C48.8137 32.205 46.0908 34.9278 42.732 34.9278H18.405C17.489 34.9278 16.7464 34.1852 16.7464 33.2692C16.7464 32.3531 17.489 31.6105 18.405 31.6105H42.732C44.2587 31.6105 45.4964 30.3729 45.4964 28.8461V6.73072C45.4964 5.20397 44.2587 3.96629 42.732 3.96629H7.34736C5.82061 3.96629 4.58293 5.20397 4.58293 6.73072V28.8461C4.58293 30.3729 5.82061 31.6105 7.34736 31.6105H9.55889C10.4749 31.6105 11.2175 32.3531 11.2175 33.2692C11.2175 34.1852 10.4749 34.9278 9.55889 34.9278H7.34736C3.98851 34.9278 1.26562 32.205 1.26562 28.8461V6.73072Z" fill="#FF712C"/>
<path fill-rule="evenodd" clip-rule="evenodd" d="M3.7907 3.54818C4.32704 2.80556 5.36384 2.63834 6.10646 3.17467L25.0392 16.8483L43.9719 3.17467C44.7145 2.63834 45.7513 2.80556 46.2877 3.54818C46.824 4.29081 46.6568 5.32761 45.9142 5.86395L26.0103 20.2389C25.4306 20.6576 24.6478 20.6576 24.0681 20.2389L4.16421 5.86395C3.42159 5.32761 3.25436 4.29081 3.7907 3.54818Z" fill="#FF712C"/>
</g>
<defs>
<clipPath id="clip0_3_2244">
<rect width="49" height="35" fill="white" transform="translate(0.5 0.25)"/>
</clipPath>
</defs>
</svg>
