<svg width="118" height="80" viewBox="0 0 118 80" fill="none" xmlns="http://www.w3.org/2000/svg">
<path fill-rule="evenodd" clip-rule="evenodd" d="M1.45052 57.3883L22.5447 45.8362C41.033 35.7112 43.7054 34.282 44.1379 34.2677C44.4244 34.265 44.783 34.394 45.3305 34.8991L61.5157 25.9497L61.3758 25.6325C61.3153 25.4601 61.3809 25.1159 61.5288 24.8294C61.8145 24.3304 62.062 24.1948 104.094 1.17627L105.237 1.40691L115.892 20.8332L115.586 21.9432L12.7667 78.2683L11.6821 77.9888L1.00488 58.5229L1.45052 57.3883ZM12.8428 75.4692L15.4487 74.0421L6.35736 57.4414L3.75153 58.8684L12.8428 75.4692ZM17.403 72.9718L18.7059 72.2583L17.4072 69.8868L19.3616 68.8165L20.6603 71.188L22.2238 70.3318L20.925 67.9602L22.8794 66.8899L24.1782 69.2615L25.7417 68.4052L24.4429 66.0337L26.3973 64.9634L27.696 67.3349L29.1292 66.5501L27.8305 64.1785L29.7849 63.1082L31.0836 65.4798L32.6471 64.6235L31.3483 62.252L33.3027 61.1817L34.6015 63.5532L36.0347 62.7683L34.7359 60.3968L36.6903 59.3265L37.9891 61.698L39.5525 60.8418L38.2538 58.4703L40.2082 57.4L41.5069 59.7715L42.9401 58.9866L41.6414 56.6151L43.5957 55.5448L44.8945 57.9163L46.458 57.0601L45.1592 54.6885L47.1136 53.6182L48.4124 55.9898L49.9758 55.1335L48.6771 52.762L50.5012 51.7631L51.7999 54.1346L53.3634 53.2784L52.0647 50.9068L54.019 49.8365L55.3178 52.2081L56.8813 51.3518L55.5825 48.9803L57.5369 47.91L58.8357 50.2815L60.2689 49.4966L58.9701 47.1251L60.9245 46.0548L62.2232 48.4263L63.7867 47.5701L62.488 45.1986L64.4423 44.1283L65.7411 46.4998L67.1743 45.7149L65.8755 43.3434L67.8299 42.2731L69.1287 44.6446L70.6922 43.7884L69.3934 41.4169L71.3478 40.3466L72.6465 42.7181L74.21 41.8619L72.9113 39.4903L74.7353 38.4914L76.0341 40.8629L77.5976 40.0067L76.2988 37.6351L78.2532 36.5648L79.552 38.9364L81.1155 38.0801L79.8167 35.7086L81.7711 34.6383L83.0698 37.0098L84.503 36.225L83.2043 33.8534L85.1586 32.7831L86.4574 35.1547L88.0209 34.2984L86.7221 31.9269L88.6765 30.8566L89.9753 33.2281L91.4085 32.4432L90.1097 30.0717L92.0641 29.0014L93.3628 31.3729L94.9263 30.5167L93.6276 28.1452L95.5819 27.0749L96.8807 29.4464L98.3139 28.6615L97.0151 26.29L98.9695 25.2197L100.268 27.5912L101.832 26.735L100.533 24.3634L102.488 23.2932L103.786 25.6647L105.35 24.8085L104.051 22.4369L106.005 21.3666L107.304 23.7382L108.607 23.0246L99.5156 6.42384L63.9461 25.9033C66.3835 30.323 66.4426 30.4619 66.3061 30.8621C66.1826 31.2551 65.9683 31.3896 56.8044 36.4595C47.5233 41.5936 47.4118 41.6375 46.9157 41.5667L46.4066 41.503L43.8812 36.8917L8.31173 56.3711L17.403 72.9718ZM110.561 21.9543L113.167 20.5273L104.076 3.92648L101.47 5.35355L110.561 21.9543ZM47.5673 38.9834L51.2154 36.9855L50.061 34.8775L46.4128 36.8754L47.5673 38.9834ZM52.698 34.9919L53.1989 35.8137L58.0197 33.1736L56.9374 31.1973C52.6017 33.4861 52.1471 33.7693 52.1613 33.9499C52.1799 34.0767 52.4194 34.545 52.698 34.9919ZM60.0752 32.1335L63.7234 30.1356L62.569 28.0276L58.9208 30.0255L60.0752 32.1335Z" fill="white"/>
<path fill-rule="evenodd" clip-rule="evenodd" d="M86.4338 14.8553C87.2242 14.4738 87.7509 14.3223 88.4743 14.2516C89.0125 14.2137 89.759 14.216 90.1538 14.2566C90.5357 14.3044 91.3122 14.5471 91.863 14.8106C92.5222 15.1176 93.1538 15.5595 93.6479 16.0596C94.246 16.6569 94.5434 17.0763 94.9386 17.9217C95.2747 18.6283 95.498 19.3452 95.584 19.9661C95.6713 20.6204 95.6009 21.3269 95.364 22.1931C95.1647 23.0044 94.8295 23.7532 94.4715 24.2746C94.157 24.7209 93.5645 25.3708 93.1387 25.7067C92.5522 26.1821 92.1483 26.4033 91.4058 26.6557C90.8732 26.8275 89.9935 26.9839 89.4481 27.0086C88.9027 27.0332 88.0247 26.9146 87.4854 26.7647C86.9518 26.5945 86.0945 26.1734 85.5656 25.7951C84.6391 25.155 84.5828 25.0831 83.7747 23.6074C83.0171 22.224 82.9349 22.0121 82.8768 21.102C82.8472 20.553 82.9106 19.6791 83.0082 19.1461C83.1363 18.545 83.4324 17.8177 83.8398 17.2007C84.1906 16.6661 84.6775 16.0397 84.9208 15.8037C85.1642 15.5677 85.8461 15.1429 86.4338 14.8553ZM85.2674 19.4674C85.1453 19.8939 85.0779 20.5131 85.0978 20.8277C85.1046 21.1494 85.3336 21.846 85.5818 22.3609C85.9395 23.107 86.1662 23.4281 86.6691 23.8206C87.0144 24.1111 87.6881 24.4443 88.1537 24.5832C88.6324 24.715 89.289 24.8007 89.6276 24.7694L90.2179 24.7031C87.1947 19.1826 86.3086 17.5956 86.2956 17.6027C86.2695 17.617 86.0869 17.8711 85.8652 18.1467C85.6507 18.4354 85.3823 19.0277 85.2674 19.4674ZM92.1723 23.6328C92.7548 22.9027 93.0246 22.3439 93.1669 21.9234C93.2963 21.5101 93.3797 20.7965 93.347 20.3348C93.3015 19.726 93.1763 19.2808 92.83 18.6484C92.4764 18.0028 92.189 17.6635 91.6745 17.3116C91.3103 17.0487 90.8318 16.7626 90.6222 16.689C90.4125 16.6155 90.0553 16.5199 89.8601 16.4727C89.6518 16.4326 89.2048 16.4205 88.8793 16.4446L88.276 16.5181L92.1723 23.6328ZM22.6085 49.7574C22.901 49.5801 23.4973 49.3392 23.9184 49.2113C24.3396 49.0834 25.1281 48.977 25.6807 48.9655C26.2261 48.9408 27.1315 49.0787 27.6854 49.2549C28.2392 49.4312 29.056 49.8402 29.4895 50.168C29.9361 50.4886 30.5472 51.0787 30.8504 51.4778C31.1407 51.8841 31.5447 52.6219 31.7393 53.1319C31.9398 53.6215 32.1295 54.4938 32.1592 55.0428C32.1888 55.5917 32.0747 56.5277 31.9133 57.1299C31.7403 57.7727 31.3602 58.5631 31.0269 59.0368C30.7051 59.4699 30.1054 60.1066 29.6868 60.4557C29.1003 60.9311 28.7095 61.1451 27.9931 61.3833C27.4865 61.5408 26.614 61.7104 26.0686 61.7351C25.5102 61.7669 24.6322 61.6482 24.0046 61.461C23.3901 61.2666 22.5328 60.8455 22.0385 60.4996C21.2003 59.8968 21.1093 59.7925 20.3229 58.3564C19.5364 56.9203 19.4903 56.7743 19.4324 55.7099C19.3928 55.0808 19.4938 54.152 19.6566 53.5833C19.8194 53.0146 20.1734 52.2384 20.443 51.8339C20.7126 51.4293 21.1893 50.8771 21.4906 50.5922C21.8049 50.3002 22.3088 49.9215 22.6085 49.7574ZM22.2858 53.034C22.1481 53.2464 21.9421 53.7361 21.8316 54.122C21.7211 54.5079 21.6624 55.1737 21.695 55.6354C21.7261 56.2178 21.886 56.6954 22.2035 57.2752C22.443 57.7434 22.8589 58.2864 23.1204 58.4856L23.5901 58.8793L25.7993 51.1613C24.9761 51.2353 24.3783 51.4428 23.934 51.6519C23.4896 51.861 22.9959 52.1656 22.8293 52.3254C22.683 52.4911 22.4366 52.8144 22.2858 53.034ZM25.7604 59.626C27.0613 59.3417 27.646 59.1414 27.9196 58.9916C28.1932 58.8417 28.6495 58.4377 28.9479 58.0859C29.2652 57.7066 29.58 57.1061 29.7253 56.5983C29.8518 56.118 29.928 55.3912 29.9112 54.9894C29.8641 54.5014 29.6884 53.9639 29.3925 53.4237C29.1472 52.9758 28.7516 52.4389 28.4972 52.2528C28.2487 52.0464 28.0362 51.9058 28.0232 51.9129C27.9971 51.9272 27.4899 53.6607 26.8723 55.7802L25.7604 59.626Z" fill="white"/>
</svg>
