<svg width="86" height="85" viewBox="0 0 86 85" fill="none" xmlns="http://www.w3.org/2000/svg">
<g clip-path="url(#clip0_2_1492)">
<path fill-rule="evenodd" clip-rule="evenodd" d="M35.5822 0.163596C37.3134 0.149061 37.4298 0.163596 38.1281 0.556035C38.5355 0.788592 39.0011 1.2101 39.1902 1.5008C39.4521 1.95138 39.6266 2.06766 40.2813 2.19847C40.6887 2.30021 41.5907 2.56184 42.2745 2.80893C42.9583 3.04149 44.0349 3.49207 44.675 3.82637C45.3151 4.14613 46.2317 4.66939 46.7118 4.98915C47.1919 5.30892 48.0939 6.00659 48.734 6.52984C49.3596 7.05309 50.3053 7.98332 50.8145 8.57924C51.3382 9.17517 52.0802 10.1636 52.4876 10.7595C52.8804 11.3554 53.4914 12.4455 53.8406 13.1577C54.1752 13.8699 54.6698 15.1054 54.9172 15.8903C55.1645 16.6606 55.47 17.9106 55.5864 18.6374C55.7173 19.4222 55.8046 20.9484 55.8046 24.5676H58.5688V27.3292H52.6039L51.8911 28.1286L51.8765 31.7623C51.8765 33.7681 51.8038 36.021 51.731 36.7768C51.6583 37.5326 51.4692 38.7099 51.2946 39.393C51.12 40.0762 50.7272 41.1808 50.4362 41.864C50.1452 42.5471 49.6069 43.55 49.2432 44.1169C48.8795 44.6837 48.2103 45.5558 47.7738 46.079C47.3228 46.6023 46.5227 47.3872 45.0387 48.6226V50.2651C45.0387 51.8348 45.0533 51.893 45.3588 51.9511C45.5479 51.9947 47.7884 52.4889 50.3489 53.0557C52.9095 53.6081 55.019 54.0586 55.0336 54.0441C55.0481 54.015 54.5389 53.4773 53.9133 52.8377C53.2732 52.1982 52.7494 51.6168 52.7494 51.5296C52.7494 51.4424 54.0297 50.1052 58.4234 45.7157L61.6968 49.0151L63.9518 48.1866V43.4628H66.5705L66.6433 4.29148L74.936 4.21881L75.2997 3.39032C75.5179 2.88161 75.9544 2.25661 76.3908 1.8351C76.7836 1.44266 77.4383 0.96301 77.8457 0.774057C78.2385 0.59964 78.9368 0.367083 79.3733 0.26534C79.9843 0.134527 80.3626 0.134527 80.9736 0.26534C81.4101 0.352548 82.1666 0.628709 82.6467 0.861266C83.1413 1.10836 83.796 1.58801 84.1743 1.99498C84.5235 2.37289 84.9745 3.05602 85.1781 3.49207C85.4837 4.16067 85.5564 4.5095 85.5419 5.59961C85.5419 6.60251 85.4691 7.0967 85.2218 7.70716C85.0472 8.1432 84.5962 8.85541 84.2179 9.29145C83.7524 9.80501 83.2044 10.2169 82.5739 10.5269C81.7156 10.9339 81.5119 10.9775 80.1734 10.9775C78.8932 10.9775 78.6167 10.9339 77.9184 10.5851C77.482 10.3816 76.7982 9.88738 76.4054 9.49494C76.0271 9.11703 75.5325 8.41936 74.936 7.12577H69.3348V17.7362H74.936L75.256 16.9804C75.4452 16.5444 75.9107 15.8758 76.3472 15.4252C76.7836 14.9746 77.4674 14.4659 77.9184 14.2624C78.6167 13.9281 78.9223 13.8845 80.1734 13.8845C81.4246 13.8845 81.7447 13.9426 82.4285 14.2479C82.8649 14.4513 83.5487 14.9165 83.927 15.2653C84.3489 15.6577 84.8144 16.2973 85.0908 16.8641C85.5128 17.7071 85.5564 17.9252 85.5564 19.117C85.5419 20.1199 85.4691 20.6141 85.2218 21.2246C85.0472 21.6606 84.5962 22.3728 84.2179 22.8088C83.7524 23.3224 83.2044 23.7342 82.5739 24.0443C81.7156 24.4513 81.5119 24.4949 80.1734 24.4949C78.8932 24.4949 78.6167 24.4513 77.9184 24.1024C77.482 23.899 76.7982 23.4048 76.4054 23.0123C76.0271 22.6344 75.5325 21.9368 74.936 20.6432H69.3348V43.4628H72.099V48.1866L74.2958 49.0587L77.5547 45.7884L83.3014 51.5296L81.701 53.1284C80.6826 54.1459 80.1152 54.8145 80.1589 54.9453C80.2025 55.0616 80.3771 55.5703 80.9009 56.9801H85.6291V65.1196H83.3014C81.2209 65.1196 80.9591 65.1487 80.8863 65.3813C80.8281 65.5121 80.6244 66.0063 80.028 67.3144L83.3741 70.6429L77.5547 76.4568L74.2085 73.1574L72.099 74.0585V78.637H69.3348V84.1602H1.68408V77.0818C1.68408 71.3987 1.72773 69.7126 1.90231 68.608C2.03325 67.8522 2.36786 66.544 2.64428 65.701C2.92071 64.858 3.40081 63.7243 3.69178 63.1574C3.98275 62.6051 4.62289 61.6167 5.08844 60.9772C5.56854 60.3377 6.38326 59.3929 6.90701 58.8697C7.43076 58.3464 8.36186 57.5615 8.95835 57.14C9.55484 56.7185 10.5732 56.1081 11.2133 55.7883C11.8535 55.454 12.77 55.047 13.2501 54.8726C13.7302 54.6836 16.6836 53.9714 19.797 53.2738C22.9104 52.5906 25.5873 51.9947 25.7328 51.9511C25.951 51.9075 25.9801 51.6895 25.9656 48.6226L24.6271 47.3726C23.8997 46.6895 22.954 45.6721 22.5321 45.1198C22.1247 44.5674 21.5283 43.6227 21.1936 43.0267C20.8736 42.4308 20.408 41.3407 20.1607 40.6285C19.9134 39.9163 19.6224 38.768 19.506 38.0849C19.346 37.1838 19.2878 35.7012 19.2878 28.3466L18.4876 27.3146L12.45 27.3292V24.5676H15.1414L15.2433 21.8496C15.3015 20.2217 15.4324 18.6664 15.5779 18.0269C15.7088 17.431 16.0435 16.2537 16.3199 15.4106C16.5963 14.5676 17.12 13.3322 17.4838 12.649C17.8475 11.9659 18.4585 10.963 18.8222 10.3961C19.2005 9.84377 20.1025 8.78273 20.8154 8.02692C21.5283 7.27111 22.5903 6.31182 23.1431 5.87577C23.7105 5.45426 24.7144 4.77113 25.3982 4.36416C26.0819 3.95718 27.2895 3.37579 28.0896 3.05602C28.8898 2.75079 30.0246 2.37289 30.6065 2.22754C31.1885 2.08219 31.654 1.92231 31.654 1.86417C31.654 1.7915 31.8723 1.51534 32.1341 1.21011C32.3815 0.919405 32.8616 0.57057 33.1816 0.425222C33.6326 0.221735 34.1709 0.163596 35.5822 0.163596ZM34.2728 11.0502H31.5086C31.5086 5.19264 31.494 4.94555 31.2612 4.94555C31.1157 4.94555 30.5484 5.09089 29.981 5.27985C29.4281 5.4688 28.5116 5.8467 27.9442 6.10833C27.3913 6.38449 26.3438 6.99495 25.6164 7.4746C24.9035 7.96878 23.7833 8.88448 23.1431 9.52401C22.503 10.1636 21.5864 11.2828 21.0918 11.995C20.6117 12.7217 19.9861 13.7973 19.6951 14.3932C19.4042 14.9891 18.9968 16.0356 18.7931 16.7188C18.5749 17.4019 18.2985 18.5792 18.1821 19.335C18.0803 20.0908 17.9784 21.5879 17.9784 22.649V24.5676L20.088 24.553C20.8736 25.8466 21.3682 26.4135 21.6883 26.6315C22.0084 26.8495 22.6339 27.1111 23.0704 27.1838C23.5796 27.2856 28.2206 27.3146 36.0186 27.3001C47.3519 27.2565 48.2103 27.242 48.7486 26.9949C49.0686 26.8495 49.5779 26.4861 49.8688 26.1955C50.1743 25.9048 50.5381 25.4106 50.669 25.1053L50.9309 24.553L53.0404 24.5676C53.0404 21.0501 52.9531 19.6257 52.8367 18.899C52.7058 18.2159 52.4439 17.1403 52.2257 16.5007C52.022 15.8612 51.5274 14.713 51.1345 13.9572C50.7417 13.2013 50.0143 12.024 49.5051 11.3409C48.9959 10.6578 48.0939 9.65482 47.4974 9.1025C46.9009 8.56471 45.8971 7.7653 45.2569 7.34379C44.6168 6.90774 43.5402 6.29728 42.8564 5.99205C42.1726 5.67229 41.1833 5.27985 40.645 5.10543L39.6557 4.8002V11.0502H36.8915V3.05602H34.2728V11.0502ZM77.9912 4.20427C77.6274 4.72752 77.5547 4.96008 77.5547 5.65775C77.5547 6.32635 77.642 6.61705 77.9621 7.0967C78.1948 7.46007 78.6022 7.83797 78.9805 8.01239C79.446 8.24494 79.7806 8.31762 80.4062 8.27401C81.0318 8.23041 81.3373 8.11413 81.7738 7.77983C82.0793 7.54727 82.4576 7.08216 82.603 6.7624C82.7485 6.44263 82.8649 5.93391 82.8649 5.64322C82.8649 5.33799 82.7631 4.87287 82.6321 4.62578C82.5012 4.36415 82.2539 3.98625 82.0793 3.81183C81.9193 3.62288 81.5992 3.37579 81.381 3.25951C81.1482 3.14323 80.6244 3.05602 80.2171 3.05602C79.7515 3.05602 79.2423 3.15777 78.9368 3.31765C78.6604 3.47753 78.2239 3.86997 77.9912 4.20427ZM77.9912 17.7217C77.6274 18.2449 77.5547 18.4775 77.5547 19.1751C77.5547 19.8437 77.642 20.1344 77.9621 20.6141C78.1948 20.9775 78.6022 21.3554 78.9805 21.5298C79.446 21.7623 79.7806 21.835 80.4062 21.7914C81.0318 21.7478 81.3373 21.6315 81.7738 21.2972C82.0793 21.0647 82.4576 20.5996 82.603 20.2798C82.7485 19.96 82.8649 19.4513 82.8649 19.1606C82.8649 18.8554 82.7631 18.3903 82.6321 18.1432C82.5012 17.8816 82.2539 17.5036 82.0793 17.3292C81.9193 17.1403 81.5992 16.8932 81.381 16.7769C81.1482 16.6606 80.6244 16.5734 80.2171 16.5734C79.7515 16.5734 79.2423 16.6752 78.9368 16.835C78.6604 16.9949 78.2239 17.3874 77.9912 17.7217ZM22.1975 37.5035C22.2848 38.0268 22.4885 38.8698 22.6485 39.393C22.8085 39.9163 23.1868 40.832 23.4778 41.4279C23.7687 42.0238 24.2925 42.8959 24.6416 43.3465C24.9763 43.8116 25.66 44.5965 26.1692 45.0762C26.6639 45.5703 27.5223 46.268 28.0751 46.6459C28.8607 47.1546 29.108 47.2709 29.1517 47.0965C29.1953 46.9802 29.5881 46.5151 30.0392 46.079C30.6356 45.4831 31.043 45.207 31.5813 45.0616C32.1196 44.9017 33.1671 44.8436 35.7276 44.8436C39.132 44.8436 39.1465 44.8436 39.9467 45.236C40.3832 45.4395 40.9506 45.832 41.1833 46.1081C41.4161 46.3697 41.7216 46.7476 41.838 46.9221L42.0563 47.2418C43.5111 46.2825 44.3258 45.643 44.7914 45.207C45.2715 44.7709 45.9698 43.986 46.3481 43.4628C46.7409 42.9395 47.3519 41.893 47.7156 41.1372C48.0648 40.3814 48.4722 39.364 48.6176 38.8843C48.8213 38.1721 48.8795 37.2419 48.9232 33.9425L48.9814 29.8728C47.672 30.0472 41.7362 30.0908 34.9275 30.0617C28.1187 30.0326 22.4594 29.96 22.3284 29.8873C22.1247 29.7855 22.0956 30.1053 22.0811 33.1576C22.0666 35.0326 22.1247 36.9803 22.1975 37.5035ZM66.6433 50.3523C64.9557 50.7593 64.01 51.1081 63.4426 51.3842C62.8752 51.6459 62.1769 52.0238 61.8714 52.2127L61.3331 52.547L58.4234 49.6401C57.0704 50.9918 56.6775 51.4424 56.6775 51.5296C56.6775 51.6168 57.3031 52.2999 58.0742 53.0557L59.4563 54.4366C58.4379 56.1226 57.9724 57.14 57.7832 57.7796C57.5795 58.4191 57.3904 59.1168 57.3468 59.3493L57.2595 59.7418H53.1859V62.358H57.2595C57.6232 63.9859 57.9287 64.8871 58.1615 65.4103C58.3943 65.9336 58.7871 66.6748 59.049 67.0528L59.5145 67.7504L56.6048 70.6429L58.4961 72.5324L61.4058 69.6545C62.0751 70.1051 62.8025 70.483 63.4426 70.8027C64.0827 71.108 65.0866 71.4859 65.6685 71.6167L66.716 71.8783V75.8754H69.3348V71.8783C70.9642 71.4859 71.9681 71.108 72.6082 70.8027C73.2483 70.483 73.9758 70.0905 74.2085 69.9306L74.645 69.6254L77.5547 72.5324L79.446 70.6429L76.5799 67.8086C77.6274 66.0063 78.0784 64.9597 78.2821 64.3202C78.4713 63.6807 78.6604 62.983 78.704 62.765L78.7913 62.358H82.8649V59.7418H78.7913C78.5586 58.7825 78.384 58.1865 78.2676 57.7796C78.1366 57.3871 77.8602 56.7331 77.6565 56.3261C77.4674 55.9336 77.1328 55.3377 76.9437 55.0179L76.5799 54.4366C78.7477 52.2999 79.3733 51.6168 79.3733 51.5296C79.3733 51.4424 78.9805 50.9918 78.5004 50.5122L77.6274 49.6401L74.7032 52.547C73.8739 52.0383 73.1756 51.6604 72.6082 51.3842C72.0408 51.1081 71.0952 50.7593 70.4987 50.6139L69.4075 50.3523L69.3493 46.2244H66.7306L66.6433 50.3523ZM31.5813 48.3319C32.7015 48.6372 33.88 48.7535 34.9275 48.7971C36.3387 48.8552 37.1243 48.8261 38.0554 48.6372C38.7246 48.5064 39.3211 48.361 39.3648 48.3174C39.3939 48.2738 39.2629 48.1139 39.0738 47.954C38.7246 47.6924 38.4628 47.6779 35.4658 47.6779C32.3233 47.6779 32.2214 47.6924 31.9014 48.0122L31.5813 48.3319ZM39.3648 51.2098C38.4482 51.4715 37.8517 51.5151 35.5822 51.5296C33.2107 51.5296 32.7452 51.486 31.654 51.1953C30.9703 51.0063 30.1119 50.7302 29.7336 50.5703C29.3408 50.425 28.9771 50.2941 28.8898 50.2941C28.8025 50.2941 28.7443 50.7011 28.7443 51.2098V52.111L35.5094 55.4976L42.2745 52.111C42.2745 50.5994 42.2599 50.1633 42.2454 50.1779C42.2163 50.1779 41.8089 50.3523 41.3288 50.5558C40.8487 50.7447 39.9613 51.0499 39.3648 51.2098ZM25.5873 54.8871C25.5582 54.9307 26.6348 56.4133 27.9878 58.2156L30.4174 61.4714C33.2398 58.6807 34.0255 57.8377 33.9818 57.8086C33.9382 57.7796 32.4542 57.0237 30.6793 56.1226C28.7443 55.1633 27.2749 54.5238 27.0422 54.5238C26.8094 54.5383 26.402 54.611 26.1256 54.6836C25.8492 54.7709 25.6018 54.8581 25.5873 54.8871ZM36.9643 57.8813C39.7867 60.672 40.645 61.4423 40.7032 61.3842C40.7614 61.326 41.8817 59.829 43.2056 58.0703C45.1551 55.4831 45.5625 54.8581 45.3588 54.7854C45.2278 54.7273 44.7914 54.6546 44.384 54.5964C43.6857 54.5238 43.5548 54.5674 40.3104 56.1953L36.9643 57.8813ZM18.0512 56.486L17.9784 75.8899H34.1273L34.1418 71.0208C25.0927 58.9423 22.4594 55.5557 22.343 55.5557C22.2266 55.5557 21.2082 55.7738 20.088 56.0208L18.0512 56.486ZM36.8333 71.0934L36.8915 75.8899H53.0404C53.0404 71.6748 52.9968 70.9626 52.8658 70.8318C52.7058 70.6865 52.9968 70.3376 54.3207 69.015L55.9501 67.3871L55.0045 65.1196L50.4217 65.1342V56.9947C53.7533 56.9947 54.6844 56.9656 54.6407 56.922C54.5971 56.8784 53.2586 56.5586 51.6583 56.1953C50.0579 55.8319 48.7049 55.5412 48.6613 55.5412C48.6031 55.5412 45.9262 59.0441 42.6964 63.3173L36.8333 71.0934ZM13.0319 57.954C12.6682 58.1139 11.8826 58.5644 11.2861 58.9423C10.6896 59.3348 9.77307 60.0179 9.26387 60.4685C8.75467 60.9191 7.93995 61.8057 7.45985 62.4452C6.97975 63.0848 6.35416 64.1022 6.04864 64.6981C5.74312 65.2941 5.33577 66.3115 5.13209 66.951C4.92841 67.5905 4.69563 68.6225 4.60834 69.233C4.52105 69.887 4.4483 72.6777 4.4483 75.8899V81.4131H15.2142C15.2142 62.6051 15.1996 57.14 15.1851 57.14C15.156 57.14 14.8214 57.2708 14.414 57.4162C14.0212 57.5615 13.3956 57.8086 13.0319 57.954ZM33.8363 61.9801C32.9198 62.8813 32.1923 63.6807 32.2069 63.7534C32.2214 63.826 32.9634 64.858 33.8363 66.0353C34.7238 67.2272 35.4803 68.1865 35.5531 68.1865C35.6112 68.1719 36.3387 67.2562 37.1825 66.1225C38.0263 65.0033 38.7537 64.0004 38.8119 63.9132C38.8701 63.826 38.2009 63.0412 37.2116 62.0383L35.5094 60.3377L33.8363 61.9801ZM58.4234 76.3986C56.5612 74.5382 55.9647 74.044 55.9065 74.1021C55.8483 74.1748 55.7901 75.8463 55.7901 77.823L55.8046 81.4131H66.5705V78.6515H63.9518L63.9373 74.044C62.3078 73.3899 61.8132 73.1864 61.7695 73.1719C61.7259 73.1428 60.9548 73.8696 60.0528 74.7707L58.4234 76.3986ZM17.9784 81.4131H34.1273V78.6515H17.9784V81.4131ZM36.8915 81.4131H53.0404V78.6515H36.8915V81.4131Z" fill="white"/>
<path fill-rule="evenodd" clip-rule="evenodd" d="M67.9963 54.3638C68.7382 54.3638 69.5093 54.4656 70.0185 54.6254C70.4841 54.7708 71.2115 55.1051 71.6479 55.3812C72.0844 55.6574 72.7245 56.2243 73.0883 56.6167C73.4374 57.0237 73.9175 57.7359 74.1358 58.2155C74.3685 58.6952 74.6304 59.5382 74.7322 60.1051C74.8777 60.9626 74.8632 61.3114 74.6595 62.2853C74.5286 62.9248 74.2521 63.8114 74.0339 64.2475C73.8011 64.6835 73.2628 65.3957 72.8264 65.8463C72.3754 66.2823 71.6916 66.8201 71.2988 67.0382C70.8914 67.2562 70.1785 67.5323 69.6984 67.6486C69.2183 67.7794 68.4618 67.8812 68.0254 67.8812C67.5889 67.8812 66.8324 67.7794 66.3523 67.6486C65.8722 67.5323 65.1447 67.2562 64.7519 67.0382C64.3446 66.8201 63.6608 66.2823 63.2098 65.8463C62.7151 65.3521 62.2205 64.6835 61.9441 64.1021C61.6967 63.5789 61.4203 62.7068 61.3185 62.1399C61.173 61.355 61.173 60.8899 61.3039 60.1051C61.4058 59.5382 61.6676 58.6806 61.915 58.1719C62.1477 57.6777 62.6424 56.9655 62.9916 56.5876C63.3407 56.1952 63.9081 55.6865 64.2573 55.4539C64.5919 55.2214 65.3048 54.8725 65.8285 54.6981C66.5123 54.4656 67.1379 54.3638 67.9817 54.3638H67.9963ZM65.0138 58.5208C64.5919 58.9859 64.3009 59.5091 64.1554 60.0324C64.01 60.5847 63.9663 61.0644 64.0391 61.5585C64.0973 61.951 64.2864 62.576 64.461 62.9393C64.6501 63.3027 65.0866 63.8405 65.4357 64.1457C65.8285 64.48 66.3959 64.7853 66.876 64.9306C67.3707 65.0614 67.9526 65.1341 68.4036 65.076C68.7964 65.0469 69.3929 64.8725 69.713 64.7126C70.0331 64.5527 70.5132 64.2475 70.775 64.0149C71.0515 63.7824 71.4443 63.23 71.6479 62.794C71.9535 62.169 72.0262 61.7911 72.0262 61.0498C72.0117 60.3376 71.9244 59.9306 71.6334 59.3783C71.4297 58.9713 71.0515 58.4481 70.775 58.1865C70.5132 57.9394 70.004 57.5905 69.6402 57.4307C69.2038 57.2272 68.68 57.1254 68.0399 57.1254C67.3561 57.1254 66.8906 57.2272 66.3668 57.4597C65.9449 57.6632 65.3775 58.0993 65.0138 58.5208Z" fill="white"/>
<path d="M21.8783 23.2887C21.8638 22.5765 21.9074 21.9515 21.9802 21.9079C22.0529 21.8497 28.1633 21.8207 49.0405 21.8788L49.1132 24.5677H21.9074L21.8783 23.2887Z" fill="white"/>
</g>
<defs>
<clipPath id="clip0_2_1492">
<rect width="85" height="84" fill="white" transform="translate(0.689941 0.160156)"/>
</clipPath>
</defs>
</svg>
