<svg width="89" height="81" viewBox="0 0 89 81" fill="none" xmlns="http://www.w3.org/2000/svg">
<g clip-path="url(#clip0_2_1627)">
<path fill-rule="evenodd" clip-rule="evenodd" d="M9.57265 46.7231C9.61653 46.7231 9.80084 46.7582 9.9676 46.8109C10.1344 46.8548 10.4065 47.0216 10.5645 47.1797C10.7751 47.3904 10.8716 47.5748 10.9068 47.8646C10.9419 48.1192 10.9155 48.3651 10.8365 48.5583C10.7663 48.7251 10.5908 48.9622 10.4416 49.0851C10.266 49.2431 9.15137 49.6734 7.04496 50.411C5.32472 51.0168 3.94678 51.5349 3.98189 51.5612C4.01699 51.5876 12.6358 54.4852 23.1327 57.9974C33.6297 61.5009 42.4941 64.4336 42.8364 64.5038C43.1787 64.5741 43.8545 64.6355 44.3548 64.6355C44.8463 64.6355 45.5397 64.5741 45.8907 64.5038C46.233 64.4336 47.7689 63.9594 49.2873 63.4414C50.8057 62.9321 59.3805 60.0609 68.3328 57.0667C77.285 54.0725 84.6399 51.5963 84.675 51.5612C84.7101 51.5349 83.3146 50.9905 81.5768 50.3671C79.2422 49.5241 78.3558 49.1641 78.2066 49.0061C78.1012 48.8831 77.9608 48.6987 77.9082 48.5934C77.8555 48.4792 77.8116 48.2421 77.8116 48.0665C77.8116 47.8646 77.8818 47.6187 78.0047 47.4343C78.1188 47.2675 78.3207 47.048 78.4523 46.9514C78.6366 46.8197 78.8209 46.767 79.1106 46.7846C79.3914 46.7933 80.6904 47.2148 83.2093 48.1192C85.2367 48.848 87.0447 49.5417 87.229 49.6646C87.4046 49.7875 87.6766 50.0685 87.8171 50.3056C87.9663 50.5339 88.1243 50.8588 88.1681 51.0256C88.2208 51.2188 88.2471 54.213 88.2383 58.8842C88.212 65.8824 88.2032 66.4531 88.0628 66.7253C87.9751 66.8746 87.7995 67.0766 87.6679 67.1731C87.5274 67.261 86.6761 67.5771 85.7545 67.8844C84.833 68.1829 75.8544 71.1332 65.7875 74.4435C55.7206 77.7538 47.216 80.5285 46.8737 80.6163C46.5314 80.7041 45.8205 80.827 45.2939 80.8797C44.5654 80.9587 44.1003 80.9587 43.4069 80.8885C42.8979 80.8358 42.1343 80.6953 41.6955 80.5724C41.2654 80.4582 31.9972 77.4377 21.1141 73.8552C10.2309 70.2727 1.226 67.2785 1.10313 67.1907C0.980253 67.1029 0.795942 66.9009 0.47998 66.4356L0.488757 51.0256L0.708175 50.6129C0.822272 50.3758 0.971476 50.13 1.03291 50.0597C1.09435 49.9807 1.28744 49.8139 1.45419 49.6909C1.6385 49.5592 3.08666 48.9885 5.00876 48.3036C6.79921 47.6714 8.537 47.0568 8.87051 46.9338C9.2128 46.8197 9.52877 46.7231 9.57265 46.7231ZM3.12177 65.1185C8.52822 66.9185 17.2084 69.7722 25.8974 72.6347C34.5863 75.4972 41.9763 77.9118 42.3098 78.0084C42.7048 78.1138 43.3279 78.1928 44.0652 78.2192C44.9165 78.2543 45.3729 78.2279 45.8644 78.1226C46.2242 78.0435 54.2286 75.4445 63.6372 72.3537C73.0546 69.2541 81.8314 66.3741 83.1479 65.9439L85.5351 65.1624V54.0988L80.7957 55.6793V63.1428C80.2515 63.7048 80.1374 63.7575 79.839 63.7575C79.5406 63.7575 79.4265 63.7048 79.172 63.4502L78.8648 63.1428C78.8648 57.9008 78.8385 56.3818 78.8034 56.3818C78.7595 56.3818 77.5044 56.7857 76.0124 57.2862L73.2916 58.1994C73.2038 65.8385 73.1951 65.9439 73.0195 66.1897C72.9142 66.3214 72.7036 66.4883 72.5368 66.5585C72.2735 66.6639 72.2033 66.6551 71.8873 66.5146C71.6591 66.4092 71.4836 66.2336 71.3871 66.0404C71.2466 65.7595 71.2291 65.3907 71.2291 62.335C71.2291 59.6482 71.2028 58.9369 71.1238 58.9633C71.0623 58.9721 69.7985 59.3935 68.3152 59.8852L65.612 60.7721C65.612 67.6473 65.5944 68.2795 65.4803 68.499C65.4101 68.6395 65.2258 68.8239 65.0854 68.8941C64.945 68.9644 64.7431 69.0259 64.6466 69.0259C64.55 69.0259 64.3481 68.9644 64.2077 68.8941C64.0673 68.8239 63.883 68.6746 63.8128 68.5693C63.6987 68.3937 63.6811 67.8493 63.6811 64.9253C63.6811 63.0287 63.6548 61.4745 63.6197 61.4745C63.5758 61.4745 62.3471 61.8784 60.8726 62.3614C59.3981 62.8531 58.143 63.3185 58.0816 63.3975C58.0026 63.5029 57.9762 64.3897 57.9762 67.2697C57.985 70.8873 57.9762 71.0103 57.8007 71.2473C57.7042 71.3791 57.4848 71.5283 57.318 71.5722C57.0898 71.6337 56.9406 71.6249 56.73 71.5371C56.572 71.4756 56.3613 71.3352 56.2648 71.221C56.098 71.0366 56.0893 70.8873 56.0717 67.5244C56.0542 65.6014 56.019 64.0209 55.9839 64.0209C55.9401 64.0209 54.685 64.4248 53.1929 64.9253L50.4722 65.8385C50.4019 72.1342 50.3493 73.4337 50.2879 73.5479C50.2352 73.6445 50.0421 73.7937 49.8666 73.8815C49.691 73.9606 49.4892 74.0308 49.419 74.0308C49.3487 74.0308 49.1644 73.9693 49.024 73.8991C48.8836 73.8288 48.6993 73.6796 48.629 73.5742C48.515 73.3986 48.4974 72.8542 48.4974 69.9742V66.5673C48.1902 66.62 47.7514 66.7341 47.3125 66.8658C46.8737 66.9975 46.2857 67.138 45.996 67.1819C45.7064 67.2346 44.9428 67.2697 44.3109 67.2697C43.4947 67.2697 42.8803 67.217 42.2923 67.0941C41.8183 66.9975 41.1952 66.8395 40.9055 66.7429C40.6159 66.6463 40.3702 66.5673 40.3614 66.5673C40.3438 66.5673 40.3263 68.1039 40.3175 69.9829L40.2912 73.4074C39.8874 73.8201 39.668 73.9606 39.5452 73.9869C39.4223 74.0132 39.1941 73.9957 39.0449 73.943C38.8869 73.8991 38.6763 73.7498 38.5797 73.6181C38.4042 73.381 38.3954 73.2581 38.4042 69.6405V65.9087C34.1563 64.4951 32.8661 64.0736 32.8134 64.056C32.7257 64.0297 32.6993 64.7585 32.6993 67.5156C32.6993 70.703 32.6905 71.0191 32.5501 71.2122C32.4624 71.3352 32.2605 71.4844 32.1113 71.5459C31.927 71.6161 31.7163 71.6337 31.5496 71.5986C31.3916 71.5547 31.1546 71.3966 31.023 71.2473L30.7684 70.9576L30.7509 63.336C26.582 61.9399 25.3181 61.5184 25.2654 61.5097C25.1777 61.4833 25.1426 62.2209 25.1338 64.9429L25.1075 68.4112C24.5809 68.9293 24.4668 68.982 24.1508 68.982C23.8875 68.982 23.7032 68.9293 23.5715 68.8063C23.4574 68.7098 23.317 68.499 23.2556 68.3497C23.159 68.1215 23.1327 67.2785 23.1239 64.4248L23.1152 60.7896C18.9462 59.3935 17.6824 58.9721 17.6297 58.9633C17.5419 58.9369 17.5156 59.6657 17.5156 62.4228C17.5156 65.7507 17.5068 65.9175 17.3401 66.1985C17.226 66.3829 17.0504 66.5146 16.8398 66.5761C16.559 66.6639 16.4536 66.6463 16.164 66.5146C15.9797 66.418 15.769 66.2424 15.7076 66.1107C15.6111 65.9175 15.5847 65.0746 15.576 62.0628L15.5584 58.2696L9.94127 56.3993C9.9676 62.1331 9.94127 62.9497 9.8535 63.1692C9.79207 63.3185 9.64286 63.5204 9.51999 63.6082C9.40589 63.6872 9.15137 63.7575 8.95828 63.7575C8.76519 63.7575 8.51067 63.6872 8.39657 63.6082C8.2737 63.5204 8.12449 63.3185 8.06306 63.1692C7.97529 62.9409 7.94896 62.0804 7.96651 59.2969L7.98407 55.7232C4.38561 54.5115 3.2973 54.1427 3.24464 54.1164C3.17443 54.09 3.1481 55.6442 3.13932 59.5955L3.12177 65.1185Z" fill="white"/>
<path d="M1.42751 38.3549C1.65571 38.1881 2.93711 37.7315 5.53502 36.8973C7.60632 36.2212 9.44943 35.668 9.61619 35.668C9.78294 35.6592 10.0638 35.7295 10.2306 35.8173C10.3974 35.9139 10.6255 36.1158 10.7396 36.2827C10.8713 36.4846 10.9415 36.7129 10.9415 36.9763C10.9415 37.2397 10.8742 37.471 10.7396 37.67C10.6255 37.8368 10.4149 38.0388 10.2744 38.1266C10.1252 38.2056 8.65953 38.6973 7.0095 39.2242C5.3507 39.751 4.0342 40.2076 4.0693 40.2339C4.10441 40.2691 6.50045 41.0857 9.39677 42.0515C12.2931 43.0174 20.8855 45.8887 28.4862 48.435C36.0868 50.9726 42.5991 53.1151 42.9414 53.1853C43.2925 53.2556 43.9156 53.3083 44.3281 53.3083C44.7406 53.3083 45.3813 53.2468 45.7499 53.1766C46.1273 53.1063 55.0269 50.1736 65.5239 46.6701C76.0208 43.1579 84.6396 40.2603 84.6747 40.2339C84.7098 40.2076 83.3494 39.7334 81.6467 39.1803C79.9528 38.6359 78.4608 38.1178 78.3379 38.03C78.215 37.951 78.0482 37.7402 77.9693 37.5559C77.8815 37.3802 77.8113 37.0905 77.8113 36.9061C77.8113 36.7305 77.8903 36.4495 77.9868 36.2914C78.0834 36.1422 78.294 35.9314 78.4432 35.8349C78.61 35.7383 78.882 35.6592 79.0839 35.6592C79.2945 35.6592 80.8831 36.1334 83.0334 36.8358C85.0082 37.4856 86.7372 38.0563 86.8688 38.109C87.0093 38.1617 87.2638 38.3373 87.4393 38.4954C87.6236 38.6622 87.8694 39.0047 87.9835 39.2681C88.1502 39.6544 88.1854 39.8476 88.1502 40.313C88.1327 40.6291 88.0361 41.033 87.9484 41.2349C87.8518 41.4193 87.65 41.6915 87.5095 41.832C87.3691 41.9725 87.1058 42.1657 86.9391 42.2447C86.7723 42.3325 77.7674 45.3706 66.9282 48.997C56.0889 52.6234 46.9699 55.6527 46.654 55.7317C46.3117 55.8107 45.5218 55.8898 44.6792 55.9161C43.4856 55.9512 43.1433 55.9337 42.3972 55.7756C41.8619 55.6703 33.8751 53.0448 21.7281 48.9794C10.845 45.3355 1.81369 42.2974 1.67326 42.2184C1.52406 42.1481 1.28709 41.9549 1.13789 41.7881C0.979905 41.6301 0.786818 41.3579 0.707827 41.191C0.628837 41.0242 0.532293 40.7081 0.505963 40.4886C0.488409 40.2691 0.505963 39.9091 0.5674 39.672C0.62006 39.4437 0.760488 39.11 0.874585 38.9256C0.997459 38.75 1.24321 38.4954 1.42751 38.3549Z" fill="white"/>
<path d="M1.67362 26.8524C1.86671 26.7558 3.63961 26.1324 5.62314 25.4651C8.00163 24.6661 9.35324 24.2534 9.61655 24.2534C9.87107 24.2446 10.1168 24.3061 10.3011 24.4202C10.4504 24.5168 10.661 24.7275 10.7576 24.8856C10.8541 25.0348 10.9331 25.3158 10.9331 25.5002C10.9331 25.6758 10.8629 25.9744 10.7839 26.15C10.6961 26.3256 10.5294 26.5363 10.4153 26.6066C10.2924 26.6856 8.77398 27.2212 3.8678 28.8632L23.0888 35.2906C34.4547 39.0926 42.5995 41.7707 43.012 41.8497C43.3981 41.92 43.9686 41.9726 44.2846 41.9814C44.6006 41.9814 45.1886 41.9287 45.6011 41.8585C46.1189 41.7707 50.8408 40.2341 61.2236 36.757C69.4035 34.0174 78.0311 31.1286 80.4008 30.3383C82.7705 29.5393 84.7189 28.8808 84.7452 28.8544C84.7716 28.8368 83.3848 28.3627 81.6734 27.792C79.9619 27.23 78.4611 26.6944 78.3382 26.6154C78.2154 26.5363 78.0486 26.3256 77.9608 26.1412C77.8818 25.9656 77.8116 25.6758 77.8116 25.5002C77.8116 25.3158 77.8906 25.0348 77.9872 24.8856C78.0837 24.7275 78.2943 24.5168 78.4436 24.4202C78.6191 24.3148 78.8912 24.2446 79.1018 24.2446C79.3534 24.2446 80.6553 24.6426 83.0074 25.4388L83.4297 25.5834C85.1985 26.1891 86.687 26.6989 86.8253 26.7558C86.9833 26.8261 87.2554 27.0105 87.4397 27.1685C87.6152 27.3178 87.8522 27.6515 87.9663 27.8885C88.1009 28.1812 88.1682 28.4885 88.1682 28.8105C88.1682 29.0739 88.1155 29.4515 88.0541 29.6359C88.0014 29.8291 87.7907 30.1539 87.5977 30.3735C87.4046 30.593 87.1237 30.8213 86.9833 30.9003C86.8429 30.9705 77.8731 33.9911 67.0602 37.6087C56.2473 41.2263 47.0844 44.2644 46.6982 44.361C46.2506 44.4751 45.5484 44.5541 44.7673 44.5893C43.8545 44.6244 43.3192 44.598 42.6609 44.4927C41.9675 44.3785 38.1409 43.1229 24.4931 38.557C14.9792 35.3784 5.9391 32.3491 4.3944 31.831C1.65607 30.9091 1.57708 30.8739 1.18213 30.4876C0.927606 30.233 0.734518 29.9256 0.637974 29.6447C0.550207 29.4076 0.48877 29.0476 0.48877 28.8544C0.48877 28.6612 0.550207 28.3276 0.620421 28.1081C0.690635 27.8885 0.883722 27.5549 1.03293 27.3705C1.19091 27.1861 1.48053 26.949 1.67362 26.8524Z" fill="white"/>
<path fill-rule="evenodd" clip-rule="evenodd" d="M44.2846 1.7749C44.8551 1.7749 45.6362 1.81881 46.0838 1.89783C46.6543 1.99442 52.4996 3.90859 66.753 8.67646C77.6888 12.3292 86.7727 15.3848 86.9394 15.4638C87.1062 15.5516 87.4046 15.7887 87.5977 16.0082C87.7907 16.2277 88.0014 16.5526 88.0541 16.7458C88.1155 16.9302 88.1682 17.3078 88.1682 17.5712C88.1682 17.8961 88.0979 18.2034 87.9663 18.4931C87.8522 18.739 87.5889 19.0814 87.3695 19.2658C87.036 19.5468 86.641 19.7137 84.5258 20.4161C83.1742 20.8727 74.2132 23.8669 64.6027 27.0894C54.9922 30.3031 46.8211 32.9987 46.4349 33.0865C45.9258 33.2007 45.3466 33.2446 44.3285 33.2446C43.2665 33.2446 42.7574 33.2007 42.2221 33.0777C41.8359 32.9899 32.6291 29.9431 21.7723 26.3079C10.9068 22.6727 1.86671 19.6258 1.67362 19.5293C1.48053 19.4327 1.19091 19.1956 1.03293 19.0112C0.883722 18.8268 0.690635 18.4931 0.620421 18.2736C0.550207 18.0541 0.48877 17.7205 0.48877 17.5273C0.48877 17.3341 0.550207 16.9741 0.637974 16.737C0.734518 16.456 0.927606 16.1575 1.18213 15.9029C1.5683 15.5165 1.67362 15.4726 4.21887 14.6121C5.66703 14.1204 14.6544 11.1087 24.1859 7.92133C33.7174 4.73397 41.7745 2.06466 42.0904 1.99442C42.4064 1.92417 42.8013 1.84515 42.9681 1.82759C43.1348 1.81002 43.7317 1.78368 44.2846 1.7749ZM24.7564 10.5292C15.102 13.7604 6.44815 16.6492 5.53538 16.9565L3.8678 17.5097C12.7148 20.4688 21.3774 23.3752 28.8376 25.8689C38.1233 28.9684 42.6433 30.4436 43.1875 30.5401C43.7404 30.6279 44.2144 30.6543 44.7673 30.6192C45.2061 30.5928 45.7942 30.505 46.0838 30.4348C46.3734 30.3733 54.9834 27.5108 65.217 24.0776C75.4507 20.6532 84.0431 17.7731 84.3064 17.6765L84.7891 17.5097C78.8736 15.5341 70.2198 12.6365 61.7503 9.80038C53.2807 6.96424 46.0487 4.59348 45.6889 4.52323C45.329 4.46177 44.7147 4.40908 44.3285 4.40908C43.9423 4.41786 43.3279 4.47055 42.9681 4.53201C42.6082 4.60226 34.4108 7.29791 24.7564 10.5292Z" fill="white"/>
<path d="M43.3631 24.5339C43.4333 24.4198 43.6264 24.253 43.7844 24.1476H43.7756C43.9863 24.0247 44.1794 23.9808 44.4778 23.9983C44.785 24.0159 44.9517 24.0861 45.1624 24.2881C45.3116 24.4286 45.4695 24.6744 45.5046 24.8149C45.5485 24.9554 45.5573 25.2013 45.5398 25.3418C45.5134 25.4823 45.3993 25.7369 45.2852 25.8949C45.1448 26.0823 44.9488 26.211 44.6972 26.2813C44.4163 26.3515 44.2496 26.3515 43.9951 26.2813C43.8107 26.2198 43.5738 26.053 43.4509 25.8949C43.2841 25.6754 43.2315 25.4998 43.2227 25.1662C43.2227 24.9203 43.2841 24.6393 43.3631 24.5339Z" fill="white"/>
<path d="M56.2738 20.3811C56.344 20.2406 56.5371 20.0387 56.6863 19.9333C56.9145 19.8016 57.0725 19.7665 57.4147 19.7928C57.7834 19.8279 57.8975 19.8894 58.1344 20.1528C58.2924 20.3284 58.4504 20.6006 58.4767 20.7587C58.5206 20.9431 58.4767 21.1538 58.3714 21.3909C58.2749 21.5841 58.0642 21.8299 57.8975 21.9441C57.7307 22.0494 57.485 22.1372 57.3445 22.1372C57.2129 22.1372 56.9671 22.0758 56.8004 22.0055C56.6336 21.9353 56.4142 21.7421 56.3177 21.5928C56.2211 21.4348 56.1421 21.1538 56.1421 20.9782C56.1421 20.7938 56.2036 20.5216 56.2738 20.3811Z" fill="white"/>
<path d="M30.558 20.1967C30.6809 20.0475 30.8652 19.8894 30.9793 19.8543C31.0846 19.8104 31.304 19.7753 31.4532 19.7753C31.6112 19.7665 31.857 19.8279 32.0062 19.8982C32.1466 19.9684 32.3485 20.1616 32.445 20.3197C32.5415 20.4777 32.6205 20.7587 32.6205 20.9519C32.6205 21.145 32.5415 21.426 32.445 21.5928C32.3485 21.7421 32.129 21.9353 31.9623 22.0055C31.7955 22.0758 31.5498 22.1372 31.4094 22.1372C31.2777 22.1372 31.032 22.0494 30.8652 21.9441C30.6984 21.8299 30.4878 21.5841 30.3913 21.3909C30.2859 21.1538 30.242 20.9431 30.2859 20.7587C30.3123 20.6006 30.4351 20.346 30.558 20.1967Z" fill="white"/>
<path d="M69.4475 16.0433C69.5704 15.9028 69.7635 15.7535 69.8688 15.7184C69.9653 15.6833 70.1584 15.6482 70.2901 15.6482C70.4305 15.6394 70.6763 15.7096 70.8518 15.7974C71.0273 15.8765 71.2467 16.0696 71.3345 16.2101C71.4223 16.3594 71.4925 16.6316 71.4925 16.8248C71.4925 17.0355 71.4223 17.2901 71.2994 17.4745C71.1941 17.6414 70.9747 17.8345 70.8167 17.896C70.6675 17.9575 70.4305 18.0102 70.2901 18.0102C70.1584 18.0102 69.9215 17.9399 69.7547 17.8609C69.5967 17.7731 69.3861 17.5623 69.2895 17.3955C69.1667 17.1672 69.1316 16.9828 69.1667 16.6931C69.193 16.4296 69.2895 16.2101 69.4475 16.0433Z" fill="white"/>
<path d="M43.4245 16.2012C43.5298 16.0608 43.7317 15.8676 43.8809 15.7886C44.0739 15.6832 44.2846 15.6481 44.5567 15.6744C44.8024 15.7008 45.0306 15.7973 45.1535 15.9203C45.2676 16.0344 45.4168 16.2276 45.487 16.3681C45.5572 16.4998 45.6099 16.7105 45.6099 16.851C45.6099 16.9827 45.5397 17.2286 45.4431 17.3954C45.3553 17.5622 45.1447 17.773 44.9867 17.8608C44.82 17.9398 44.5567 18.0101 44.3987 18.0101C44.2495 18.0101 43.995 17.9486 43.8545 17.8783C43.7053 17.8081 43.5122 17.6149 43.4157 17.4657C43.3191 17.2988 43.2402 17.0178 43.2402 16.8247C43.2402 16.6139 43.3104 16.3681 43.4245 16.2012Z" fill="white"/>
<path d="M17.5421 16.184C17.6475 16.0259 17.8581 15.8415 17.9985 15.7713C18.1477 15.7011 18.3847 15.6396 18.5339 15.6396C18.6743 15.6396 18.9376 15.7274 19.1044 15.8328C19.2712 15.9469 19.4818 16.1752 19.5696 16.342C19.6749 16.5469 19.71 16.7518 19.6749 16.9567C19.6486 17.1235 19.5696 17.3518 19.4994 17.466C19.4291 17.5713 19.2361 17.7382 19.0781 17.8347C18.9289 17.9313 18.6656 18.0104 18.5076 18.0104C18.3584 18.0104 18.1039 17.9489 17.9634 17.8786C17.8142 17.8084 17.6211 17.6152 17.5246 17.466C17.428 17.2991 17.3491 17.0181 17.3491 16.825C17.3491 16.6142 17.428 16.3596 17.5421 16.184Z" fill="white"/>
<path d="M56.1687 12.5225C56.2038 12.1625 56.274 12.0308 56.5285 11.8025C56.7918 11.5566 56.9147 11.5127 57.257 11.5127C57.5027 11.5127 57.7836 11.5742 57.9416 11.6708C58.082 11.7586 58.2751 11.9781 58.3541 12.1537C58.4418 12.3293 58.512 12.5576 58.512 12.6542C58.512 12.7508 58.4594 12.9615 58.3979 13.1196C58.3277 13.2688 58.161 13.4883 58.0205 13.6025C57.8801 13.7079 57.6431 13.822 57.5027 13.8571C57.3272 13.8922 57.1078 13.8483 56.8445 13.7254C56.5987 13.6113 56.3881 13.4357 56.2828 13.2513C56.1599 13.0317 56.1335 12.8561 56.1687 12.5225Z" fill="white"/>
<path d="M30.4002 12.1537C30.488 11.9781 30.6723 11.7586 30.8215 11.6708C30.9883 11.5742 31.2516 11.5127 31.5236 11.5127C31.9098 11.5215 31.9976 11.5566 32.2872 11.8464C32.5769 12.1361 32.612 12.2239 32.612 12.6103C32.612 12.8825 32.5505 13.1459 32.454 13.3127C32.3574 13.462 32.1292 13.6464 31.9098 13.7342C31.6816 13.8308 31.4183 13.8747 31.2603 13.8483C31.1111 13.822 30.8829 13.7079 30.7425 13.6025C30.6021 13.4883 30.4353 13.2688 30.3651 13.1196C30.3037 12.9615 30.251 12.7508 30.251 12.6542C30.251 12.5576 30.3212 12.3293 30.4002 12.1537Z" fill="white"/>
<path d="M43.4334 7.78956C43.53 7.65786 43.7319 7.49102 43.8898 7.42078C44.039 7.35931 44.2497 7.30663 44.355 7.29785C44.4691 7.29785 44.6973 7.35931 44.864 7.42956C45.0308 7.4998 45.2327 7.64907 45.3029 7.76322C45.3731 7.86859 45.4696 8.07932 45.5135 8.21981C45.5662 8.37787 45.5662 8.61494 45.5223 8.79055C45.4784 8.96617 45.3117 9.2208 45.1361 9.38764C44.864 9.62471 44.75 9.66862 44.3813 9.66862C44.0127 9.66862 43.8986 9.62471 43.6265 9.38764C43.4598 9.22958 43.2842 8.98373 43.2491 8.83446C43.2053 8.69397 43.1965 8.45689 43.2228 8.30762C43.2404 8.16713 43.3457 7.93005 43.4334 7.78956Z" fill="white"/>
</g>
<defs>
<clipPath id="clip0_2_1627">
<rect width="88" height="80" fill="white" transform="translate(0.359863 0.939941)"/>
</clipPath>
</defs>
</svg>
