<svg width="70" height="68" viewBox="0 0 70 68" fill="none" xmlns="http://www.w3.org/2000/svg">
<g clip-path="url(#clip0_2_1652)">
<path fill-rule="evenodd" clip-rule="evenodd" d="M28.7481 1.09375C30.4062 1.09375 31.1316 1.16306 31.857 1.40564C32.3752 1.57891 33.1524 1.8908 33.5842 2.11606C34.016 2.34131 34.8623 3.0344 35.484 3.65819C36.1058 4.2993 36.9003 5.3216 37.263 5.92806C37.6084 6.55184 38.1439 7.67812 38.4375 8.44052C38.7311 9.20292 39.1283 10.5891 39.3011 11.5247C39.4738 12.4431 39.6292 13.8812 39.6292 14.713C39.6292 15.562 39.4738 17.2427 39.2838 18.4903C39.0938 19.7379 38.7311 21.7998 38.4893 23.082C38.2475 24.3642 38.023 25.5945 37.9021 26.2009L64.414 26.2876L65.3984 26.7554C65.9511 27.0326 66.7974 27.6044 67.281 28.055C67.8165 28.5574 68.3691 29.3198 68.6973 30.0129C69.1809 31.0006 69.25 31.2952 69.25 32.612C69.25 33.6517 69.1636 34.3101 68.9218 34.8646C68.7491 35.2978 68.3691 35.9909 68.0583 36.4067C67.7646 36.8052 67.1256 37.429 66.6593 37.7756C66.1757 38.1221 65.7784 38.4167 65.7439 38.4513C65.7266 38.486 65.8993 38.7979 66.1411 39.1444C66.3656 39.5083 66.6765 40.1494 66.832 40.5826C66.9701 41.0158 67.091 41.8821 67.091 42.5232C67.091 43.2856 66.9701 44.0307 66.7456 44.6025C66.5556 45.105 66.1411 45.8501 65.8302 46.2486C65.5193 46.6298 64.8803 47.2536 63.4986 48.2932L63.9822 48.9863C64.2412 49.3675 64.6039 50.1126 64.7767 50.6324C64.9839 51.2908 65.053 51.8973 64.9839 52.625C64.9321 53.1968 64.7076 54.0979 64.483 54.6177C64.2412 55.1375 63.7404 55.9172 63.3431 56.3504C62.9631 56.7836 62.2032 57.3727 61.6678 57.6499C61.1324 57.9272 60.7178 58.2044 60.7524 58.2564C60.7869 58.3084 60.9942 58.7242 61.236 59.2094C61.5814 59.9198 61.6505 60.3357 61.6505 61.5486C61.6505 62.7962 61.5814 63.16 61.1842 63.8878C60.9424 64.3556 60.3897 65.0834 59.9924 65.4992C59.5779 65.9151 58.8352 66.4349 58.3689 66.6775C57.8853 66.9027 57.3671 67.0933 57.1944 67.0933C57.039 67.0933 56.8663 67.1626 56.8145 67.2666C56.7626 67.3879 51.253 67.4399 40.8382 67.4399C31.8743 67.4399 24.8102 67.3706 24.6375 67.2839C24.482 67.1973 23.9121 67.0067 23.3939 66.8681C22.8758 66.7121 21.9777 66.2789 21.4077 65.9151C20.8377 65.5512 20.0605 64.8928 19.6805 64.4769C19.3006 64.061 18.8688 63.5412 18.7306 63.3333C18.4888 62.9694 18.3679 62.9348 15.3799 63.0214L15.4145 65.014C15.449 66.1057 15.3972 67.1106 15.3281 67.2146C15.2245 67.3879 13.86 67.4225 3.61796 67.3532L3.32434 64.321C3.1689 62.6575 2.8062 58.603 2.51258 55.3108C2.21896 52.0186 1.82171 47.7734 1.63173 45.8674C1.44174 43.9614 1.06177 40.0108 0.768148 37.0651C0.491802 34.1368 0.25 31.4684 0.25 30.5328L18.4715 30.5501L26.1574 13.9852L26.1228 7.62613C26.0883 2.22002 26.1228 1.26702 26.3474 1.19771C26.4683 1.14573 27.5564 1.09375 28.7481 1.09375ZM28.4027 8.96033V14.3318L19.9569 32.5254L15.449 32.6987V60.7689L19.076 60.8555C19.076 61.8605 19.1278 62.207 19.1969 62.2937C19.2833 62.363 19.4905 62.207 19.6978 61.9471L20.0605 61.462C20.6132 62.3976 21.0795 62.9694 21.4768 63.316C21.874 63.6798 22.5131 64.1477 22.9103 64.3556C23.3248 64.5462 24.033 64.8234 24.5166 64.9447C25.2074 65.1353 28.4718 65.1873 40.6655 65.1873C53.8956 65.1873 56.0718 65.1527 56.8145 64.9274C57.2808 64.7888 57.9544 64.4422 58.2653 64.1823C58.6107 63.9224 59.0598 63.2986 59.2843 62.7615C59.5952 62.0857 59.6815 61.6179 59.6297 61.1154C59.5952 60.7342 59.4052 60.1104 59.2152 59.7292C59.0252 59.3307 58.3689 58.6203 57.6435 57.9965C56.9526 57.4247 56.3999 56.8876 56.3827 56.7836C56.3827 56.6796 57.0735 56.5583 57.9717 56.5063C59.0598 56.437 59.837 56.2984 60.3551 56.0385C60.7869 55.8479 61.3914 55.3801 61.7196 55.0162C62.0477 54.6523 62.4277 54.0805 62.5659 53.7513C62.7041 53.4221 62.8077 52.7117 62.8077 52.1919C62.8077 51.6201 62.6868 50.927 62.4795 50.4591C62.2895 50.0259 61.9441 49.4888 61.7196 49.2462C61.4951 49.0036 60.8215 48.4492 60.2342 48.0333C59.6297 47.6001 59.1979 47.2016 59.2325 47.115C59.2843 47.0457 59.8888 46.907 60.5624 46.8031C61.2533 46.6991 62.065 46.5085 62.3414 46.4045C62.6177 46.2833 63.1704 45.9194 63.5331 45.5902C63.9131 45.2609 64.3967 44.6025 64.6212 44.1347C64.863 43.5975 65.0185 42.9391 65.0185 42.4019C65.0185 41.8475 64.863 41.2237 64.6039 40.6692C64.3794 40.1841 63.9303 39.5603 63.6195 39.2657C63.2913 38.9711 62.6695 38.486 62.2032 38.1741C61.7541 37.8795 61.3914 37.5676 61.3914 37.4637C61.3914 37.3597 61.5987 37.2557 61.8578 37.2038C62.1341 37.1691 62.8422 37.0305 63.464 36.9092C64.1894 36.7706 64.863 36.5107 65.3639 36.1641C65.8648 35.8003 66.3138 35.2804 66.6247 34.674C67.0047 33.9636 67.1256 33.4784 67.1256 32.6987C67.1429 31.867 67.0392 31.4684 66.642 30.7234C66.3656 30.2209 65.8302 29.5798 65.4502 29.2852C65.0703 29.008 64.3621 28.6787 63.8958 28.5401C63.1704 28.3149 60.8733 28.2802 49.1631 28.2802C41.5464 28.2802 35.3113 28.2629 35.3113 28.2282C35.3113 28.2109 35.5013 27.2232 35.7431 26.0277C35.9849 24.8321 36.4167 22.5276 36.6931 20.9161C36.9694 19.3047 37.2803 17.2254 37.3839 16.3244C37.5221 15.1461 37.5221 14.2451 37.4012 13.1535C37.2976 12.3218 37.0039 11.0049 36.7621 10.2079C36.5203 9.42817 36.0367 8.24992 35.674 7.57415C35.3286 6.91572 34.6205 5.8934 34.085 5.3216C33.4805 4.6805 32.8069 4.14335 32.2715 3.90077C31.6843 3.64086 30.9762 3.51957 29.9053 3.46759C29.0763 3.45026 28.4027 3.45026 28.4027 3.50224C28.3854 3.55422 28.3854 5.99737 28.4027 8.96033ZM2.56439 33.2705C2.61621 33.617 2.70257 34.3794 2.75438 34.9512C2.8062 35.523 3.03073 37.9835 3.27253 40.4093C3.49706 42.8351 3.89431 46.8551 4.11884 49.3329C4.36064 51.8107 4.75788 56.2118 4.99969 59.1228C5.25876 62.0338 5.48329 64.5809 5.53511 64.7888L5.60419 65.1873H13.2037V32.612H2.46076L2.56439 33.2705Z" fill="white"/>
<path d="M8.86883 61.8952C8.85156 61.7392 8.97246 61.4447 9.14517 61.2367C9.31789 60.9941 9.61151 60.8555 9.9224 60.8555C10.216 60.8555 10.5614 60.9768 10.6996 61.1154C10.8378 61.2541 10.9587 61.6179 10.9587 61.8952C10.9587 62.1724 10.8378 62.5363 10.6823 62.6749C10.5442 62.8135 10.1815 62.9348 9.90512 62.9348C9.57696 62.9348 9.31789 62.7962 9.14517 62.5536C9.007 62.3283 8.86883 62.0338 8.86883 61.8952Z" fill="white"/>
<path d="M8.86883 57.5635C8.85156 57.4076 8.97246 57.113 9.14517 56.9051C9.31789 56.6625 9.61151 56.5239 9.9224 56.5239C10.216 56.5239 10.5614 56.6452 10.6996 56.7838C10.8378 56.9224 10.9587 57.2863 10.9587 57.5635C10.9587 57.8408 10.8378 58.2047 10.6823 58.3433C10.5442 58.4819 10.1815 58.6032 9.90512 58.6032C9.57696 58.6032 9.31789 58.4646 9.14517 58.222C9.007 57.9967 8.86883 57.7022 8.86883 57.5635Z" fill="white"/>
<path d="M8.86883 53.2315C8.85156 53.0756 8.97246 52.781 9.14517 52.5731C9.31789 52.3305 9.61151 52.1919 9.9224 52.1919C10.216 52.1919 10.5614 52.3132 10.6996 52.4518C10.8378 52.5904 10.9587 52.9543 10.9587 53.2315C10.9587 53.5088 10.8378 53.8726 10.6823 54.0112C10.5442 54.1499 10.1815 54.2712 9.90512 54.2712C9.57696 54.2712 9.31789 54.1325 9.14517 53.89C9.007 53.6647 8.86883 53.3701 8.86883 53.2315Z" fill="white"/>
<path d="M8.86883 48.9C8.85156 48.7441 8.97246 48.4495 9.14517 48.2416C9.31789 47.999 9.61151 47.8604 9.9224 47.8604C10.216 47.8604 10.5614 47.9817 10.6996 48.1203C10.8378 48.2589 10.9587 48.6228 10.9587 48.9C10.9587 49.1772 10.8378 49.5411 10.6823 49.6797C10.5442 49.8183 10.1815 49.9396 9.90512 49.9396C9.57696 49.9396 9.31789 49.801 9.14517 49.5584C9.007 49.3332 8.86883 49.0386 8.86883 48.9Z" fill="white"/>
<path d="M8.86883 44.568C8.85156 44.412 8.97246 44.1175 9.14517 43.9095C9.31789 43.667 9.61151 43.5283 9.9224 43.5283C10.216 43.5283 10.5614 43.6496 10.6996 43.7883C10.8378 43.9269 10.9587 44.2907 10.9587 44.568C10.9587 44.8452 10.8378 45.2091 10.6823 45.3477C10.5442 45.4863 10.1815 45.6076 9.90512 45.6076C9.57696 45.6076 9.31789 45.469 9.14517 45.2264C9.007 45.0012 8.86883 44.7066 8.86883 44.568Z" fill="white"/>
<path d="M8.86883 40.2365C8.85156 40.0805 8.97246 39.786 9.14517 39.578C9.31789 39.3354 9.61151 39.1968 9.9224 39.1968C10.216 39.1968 10.5614 39.3181 10.6996 39.4567C10.8378 39.5954 10.9587 39.9592 10.9587 40.2365C10.9587 40.5137 10.8378 40.8776 10.6823 41.0162C10.5442 41.1548 10.1815 41.2761 9.90512 41.2761C9.57696 41.2761 9.31789 41.1375 9.14517 40.8949C9.007 40.6696 8.86883 40.3751 8.86883 40.2365Z" fill="white"/>
<path d="M8.86883 35.9043C8.85156 35.7484 8.97246 35.4538 9.14517 35.2459C9.31789 35.0033 9.61151 34.8647 9.9224 34.8647C10.216 34.8647 10.5614 34.986 10.6996 35.1246C10.8378 35.2632 10.9587 35.6271 10.9587 35.9043C10.9587 36.1989 10.8378 36.5455 10.6823 36.6841C10.5442 36.8227 10.1815 36.944 9.90512 36.944C9.57696 36.944 9.31789 36.8054 9.14517 36.5628C9.007 36.3375 8.86883 36.043 8.86883 35.9043Z" fill="white"/>
</g>
<defs>
<clipPath id="clip0_2_1652">
<rect width="69" height="67" fill="white" transform="translate(0.25 0.439941)"/>
</clipPath>
</defs>
</svg>
