<svg width="17" height="16" viewBox="0 0 17 16" fill="none" xmlns="http://www.w3.org/2000/svg">
<g clip-path="url(#clip0_2_1866)">
<path d="M16.2505 7.5625C16.2505 7.02083 16.0578 6.55729 15.6724 6.17188C15.2869 5.78646 14.8234 5.59375 14.2817 5.59375C14.063 5.59375 13.8521 5.6276 13.6489 5.69531C13.4458 5.76302 13.2609 5.85938 13.0942 5.98438C12.5422 5.60938 11.9146 5.30729 11.2114 5.07812C10.5083 4.84896 9.77132 4.70833 9.00049 4.65625L9.82861 2.70312L12.2505 3.26562C12.2817 3.64062 12.438 3.95573 12.7192 4.21094C13.0005 4.46615 13.3338 4.59375 13.7192 4.59375C14.1255 4.59375 14.4744 4.45052 14.7661 4.16406C15.0578 3.8776 15.2036 3.53125 15.2036 3.125C15.2036 2.70833 15.0578 2.35677 14.7661 2.07031C14.4744 1.78385 14.1255 1.64062 13.7192 1.64062C13.4588 1.64062 13.2192 1.70052 13.0005 1.82031C12.7817 1.9401 12.6099 2.09896 12.4849 2.29688L9.65674 1.64062C9.53174 1.61979 9.41716 1.63542 9.31299 1.6875C9.20882 1.73958 9.13591 1.82292 9.09424 1.9375L7.93799 4.625C7.10465 4.65625 6.30518 4.78646 5.53955 5.01562C4.77393 5.24479 4.09424 5.5625 3.50049 5.96875C3.34424 5.84375 3.16716 5.75 2.96924 5.6875C2.77132 5.625 2.56299 5.59375 2.34424 5.59375C1.79216 5.59375 1.3234 5.78646 0.937988 6.17188C0.552572 6.55729 0.359863 7.02083 0.359863 7.5625C0.359863 7.92708 0.451009 8.26302 0.633301 8.57031C0.815592 8.8776 1.05778 9.11458 1.35986 9.28125C1.35986 9.32292 1.35986 9.36719 1.35986 9.41406C1.35986 9.46094 1.35986 9.50521 1.35986 9.54688C1.35986 10.224 1.53695 10.8646 1.89111 11.4688C2.2557 12.0729 2.75309 12.599 3.3833 13.0469C4.01351 13.4948 4.74528 13.849 5.57861 14.1094C6.42236 14.3594 7.3234 14.4844 8.28174 14.4844C9.22966 14.4844 10.1255 14.3594 10.9692 14.1094C11.813 13.849 12.5474 13.4948 13.1724 13.0469C13.7974 12.599 14.2922 12.0729 14.6567 11.4688C15.0213 10.8646 15.2036 10.224 15.2036 9.54688C15.2036 9.50521 15.201 9.46615 15.1958 9.42969C15.1906 9.39323 15.188 9.35417 15.188 9.3125C15.5109 9.15625 15.7687 8.91927 15.9614 8.60156C16.1541 8.28385 16.2505 7.9375 16.2505 7.5625ZM13.7192 2.625C13.8547 2.625 13.9692 2.67188 14.063 2.76562C14.1567 2.85938 14.2036 2.97917 14.2036 3.125C14.2036 3.26042 14.1567 3.375 14.063 3.46875C13.9692 3.5625 13.8547 3.60938 13.7192 3.60938C13.5838 3.60938 13.4666 3.5625 13.3677 3.46875C13.2687 3.375 13.2192 3.26042 13.2192 3.125C13.2192 2.97917 13.2687 2.85938 13.3677 2.76562C13.4666 2.67188 13.5838 2.625 13.7192 2.625ZM4.81299 9.04688C4.81299 8.77604 4.90934 8.54427 5.10205 8.35156C5.29476 8.15885 5.52653 8.0625 5.79736 8.0625C6.07861 8.0625 6.31559 8.15885 6.5083 8.35156C6.70101 8.54427 6.79736 8.77604 6.79736 9.04688C6.79736 9.32812 6.70101 9.5651 6.5083 9.75781C6.31559 9.95052 6.07861 10.0469 5.79736 10.0469C5.52653 10.0469 5.29476 9.95052 5.10205 9.75781C4.90934 9.5651 4.81299 9.32812 4.81299 9.04688ZM10.563 12.3281C10.2192 12.5781 9.85205 12.7656 9.46143 12.8906C9.0708 13.0156 8.67757 13.0781 8.28174 13.0781C7.87549 13.0781 7.47705 13.0156 7.08643 12.8906C6.6958 12.7656 6.32861 12.5781 5.98486 12.3281C5.8807 12.2552 5.8182 12.151 5.79736 12.0156C5.77653 11.8802 5.80257 11.7552 5.87549 11.6406C5.95882 11.5365 6.0682 11.4714 6.20361 11.4453C6.33903 11.4193 6.45882 11.4479 6.56299 11.5312C7.0734 11.8958 7.64372 12.0781 8.27393 12.0781C8.90413 12.0781 9.47445 11.8958 9.98486 11.5312C10.089 11.4479 10.2088 11.4167 10.3442 11.4375C10.4797 11.4583 10.589 11.526 10.6724 11.6406C10.7557 11.7552 10.7843 11.8802 10.7583 12.0156C10.7323 12.151 10.6672 12.2552 10.563 12.3281ZM10.7505 10.0469C10.4797 10.0469 10.2479 9.95052 10.0552 9.75781C9.86247 9.5651 9.76611 9.32812 9.76611 9.04688C9.76611 8.77604 9.86247 8.54427 10.0552 8.35156C10.2479 8.15885 10.4797 8.0625 10.7505 8.0625C11.0213 8.0625 11.2531 8.15885 11.4458 8.35156C11.6385 8.54427 11.7349 8.77604 11.7349 9.04688C11.7349 9.32812 11.6385 9.5651 11.4458 9.75781C11.2531 9.95052 11.0213 10.0469 10.7505 10.0469Z" fill="#99A9B5"/>
</g>
<defs>
<clipPath id="clip0_2_1866">
<rect width="16" height="16" fill="white" transform="matrix(1 0 0 -1 0.359863 16)"/>
</clipPath>
</defs>
</svg>
