<svg width="17" height="16" viewBox="0 0 17 16" fill="none" xmlns="http://www.w3.org/2000/svg">
<g clip-path="url(#clip0_2_1858)">
<path d="M16.2324 1.73438C15.9095 1.92188 15.5736 2.08333 15.2246 2.21875C14.8757 2.35417 14.5137 2.45833 14.1387 2.53125C13.847 2.21875 13.4928 1.96875 13.0762 1.78125C12.6595 1.59375 12.2168 1.5 11.748 1.5C11.2897 1.5 10.8626 1.58854 10.4668 1.76562C10.071 1.93229 9.72461 2.16406 9.42773 2.46094C9.13086 2.75781 8.89388 3.10417 8.7168 3.5C8.55013 3.90625 8.4668 4.33333 8.4668 4.78125C8.4668 4.90625 8.47461 5.03125 8.49023 5.15625C8.50586 5.28125 8.52409 5.40625 8.54492 5.53125C7.86784 5.5 7.21159 5.39583 6.57617 5.21875C5.93034 5.04167 5.32096 4.80469 4.74805 4.50781C4.17513 4.21094 3.63867 3.85938 3.13867 3.45312C2.63867 3.04688 2.18555 2.59375 1.7793 2.09375C1.64388 2.34375 1.53711 2.60677 1.45898 2.88281C1.38086 3.15885 1.3418 3.44792 1.3418 3.75C1.3418 4.32292 1.47461 4.84896 1.74023 5.32812C2.00586 5.80729 2.35742 6.19271 2.79492 6.48438C2.52409 6.47396 2.26367 6.43229 2.01367 6.35938C1.76367 6.28646 1.5293 6.1875 1.31055 6.0625C1.31055 6.07292 1.31055 6.08073 1.31055 6.08594C1.31055 6.09115 1.31055 6.09896 1.31055 6.10938C1.31055 6.90104 1.56315 7.59896 2.06836 8.20312C2.57357 8.80729 3.20117 9.18229 3.95117 9.32812C3.80534 9.36979 3.66211 9.39844 3.52148 9.41406C3.38086 9.42969 3.23242 9.4375 3.07617 9.4375C2.97201 9.4375 2.86784 9.4349 2.76367 9.42969C2.65951 9.42448 2.56055 9.41146 2.4668 9.39062C2.67513 10.0365 3.05794 10.5729 3.61523 11C4.17253 11.4271 4.81055 11.651 5.5293 11.6719C4.9668 12.1094 4.33919 12.4531 3.64648 12.7031C2.95378 12.9531 2.22201 13.0781 1.45117 13.0781C1.31576 13.0781 1.18294 13.0729 1.05273 13.0625C0.922526 13.0521 0.794922 13.0417 0.669922 13.0312C1.03451 13.2604 1.41471 13.4635 1.81055 13.6406C2.20638 13.8281 2.61523 13.9844 3.03711 14.1094C3.45898 14.2344 3.89388 14.3333 4.3418 14.4062C4.7793 14.4688 5.23242 14.5 5.70117 14.5C7.21159 14.5 8.54492 14.2188 9.70117 13.6562C10.8678 13.0833 11.847 12.349 12.6387 11.4531C13.4303 10.5573 14.0293 9.55729 14.4355 8.45312C14.8418 7.33854 15.0449 6.23958 15.0449 5.15625C15.0449 5.08333 15.0423 5.01302 15.0371 4.94531C15.0319 4.8776 15.0293 4.80729 15.0293 4.73438C15.3522 4.50521 15.6517 4.2474 15.9277 3.96094C16.2038 3.67448 16.4512 3.36458 16.6699 3.03125C16.3783 3.16667 16.0736 3.27865 15.7559 3.36719C15.4382 3.45573 15.1126 3.52083 14.7793 3.5625C15.123 3.35417 15.4199 3.09375 15.6699 2.78125C15.9199 2.46875 16.1074 2.11979 16.2324 1.73438Z" fill="#99A9B5"/>
</g>
<defs>
<clipPath id="clip0_2_1858">
<rect width="16" height="16" fill="white" transform="matrix(1 0 0 -1 0.669922 16)"/>
</clipPath>
</defs>
</svg>
