<svg width="17" height="16" viewBox="0 0 17 16" fill="none" xmlns="http://www.w3.org/2000/svg">
<g clip-path="url(#clip0_2_1864)">
<path d="M0.721191 5H3.68994V16H0.721191V5ZM9.78369 5C9.23161 5 8.80192 5.10156 8.49463 5.30469C8.18734 5.50781 7.91911 5.69792 7.68994 5.875V5H4.70557V16H7.68994V9.07812C7.68994 9.07812 7.73942 8.84896 7.83838 8.39062C7.93734 7.93229 8.40348 7.70312 9.23682 7.70312C9.73682 7.70312 10.104 7.83073 10.3384 8.08594C10.5728 8.34115 10.6899 8.67188 10.6899 9.07812V16H13.8306V9.17188C13.8306 8.23438 13.6691 7.48958 13.3462 6.9375C13.0233 6.38542 12.6405 5.96615 12.1978 5.67969C11.755 5.39323 11.3045 5.20833 10.8462 5.125C10.3879 5.04167 10.0337 5 9.78369 5ZM0.689941 2.5C0.689941 2.91667 0.835775 3.27083 1.12744 3.5625C1.41911 3.85417 1.77327 4 2.18994 4C2.60661 4 2.96077 3.85417 3.25244 3.5625C3.54411 3.27083 3.68994 2.91667 3.68994 2.5C3.68994 2.08333 3.54411 1.72917 3.25244 1.4375C2.96077 1.14583 2.60661 1 2.18994 1C1.77327 1 1.41911 1.14583 1.12744 1.4375C0.835775 1.72917 0.689941 2.08333 0.689941 2.5Z" fill="#99A9B5"/>
</g>
<defs>
<clipPath id="clip0_2_1864">
<rect width="16" height="16" fill="white" transform="matrix(1 0 0 -1 0.689941 16)"/>
</clipPath>
</defs>
</svg>
