<svg xmlns="http://www.w3.org/2000/svg" width="24" height="24" viewBox="0 0 24 24" fill="none">
  <path d="M19 11.95C19 10 18.3207 8.346 16.962 6.988C15.6033 5.63 13.9493 4.95067 12 4.95V2.95C13.25 2.95 14.421 3.18767 15.513 3.663C16.605 4.13833 17.555 4.78 18.363 5.588C19.171 6.396 19.8127 7.346 20.288 8.438C20.7633 9.53 21.0007 10.7007 21 11.95H19ZM15 11.95C15 11.1167 14.7083 10.4083 14.125 9.825C13.5417 9.24167 12.8333 8.95 12 8.95V6.95C13.3833 6.95 14.5627 7.43767 15.538 8.413C16.5133 9.38833 17.0007 10.5673 17 11.95H15ZM19.95 21C17.8 21 15.704 20.525 13.662 19.575C11.62 18.625 9.81167 17.3583 8.237 15.775C6.66233 14.1917 5.39567 12.379 4.437 10.337C3.47833 8.295 2.99933 6.19933 3 4.05V3.525C3 3.34167 3.01667 3.16667 3.05 3H8.9L9.825 8.025L6.975 10.9C7.675 12.1 8.55433 13.225 9.613 14.275C10.6717 15.325 11.834 16.2333 13.1 17L16 14.1L21 15.1V20.95C20.8333 20.9667 20.6583 20.9793 20.475 20.988C20.2917 20.9967 20.1167 21.0007 19.95 21Z" fill="#FF712C"/>
</svg>