<svg width="44" height="42" viewBox="0 0 44 42" fill="none" xmlns="http://www.w3.org/2000/svg">
<g clip-path="url(#clip0_2_1423)">
<path fill-rule="evenodd" clip-rule="evenodd" d="M19.6859 0.139893C19.9946 0.139893 20.5126 0.155573 20.8371 0.17648C21.1615 0.197388 21.5958 0.233975 21.8051 0.254883C22.0144 0.278404 22.3781 0.325445 22.6162 0.362033C22.8543 0.398621 23.231 0.463956 23.4534 0.505771C23.6758 0.550199 24.029 0.625988 24.2383 0.675643C24.4476 0.725298 24.8008 0.819381 25.0232 0.882102C25.2456 0.944824 25.659 1.07549 25.9389 1.16958C26.2189 1.26627 26.6427 1.42046 26.8808 1.51455C27.1189 1.60863 27.5192 1.7785 27.7704 1.89349C28.0215 2.00587 28.3983 2.18881 28.6076 2.29857C28.8169 2.40572 29.1466 2.58605 29.3402 2.69842C29.5338 2.8108 29.8111 2.97544 29.955 3.0643C30.0989 3.15577 30.3396 3.31257 30.4914 3.41188C30.6431 3.51381 30.9126 3.70197 31.0931 3.83264C31.2736 3.96331 31.5667 4.18545 31.7472 4.32919C31.9277 4.47293 32.2443 4.73688 32.4536 4.91721C32.6629 5.09754 33.0815 5.49216 33.3824 5.79532C33.6859 6.09586 34.0679 6.49571 34.2301 6.68388C34.3949 6.86943 34.6696 7.19872 34.8423 7.41563C35.015 7.62993 35.2949 8.00104 35.4624 8.23886C35.6325 8.47668 35.8653 8.81642 35.9778 8.99675C36.0929 9.17707 36.2918 9.49852 36.4174 9.71544C36.5456 9.92974 36.7627 10.3322 36.904 10.604C37.0453 10.8758 37.2363 11.2704 37.3278 11.4795C37.422 11.6886 37.5685 12.0335 37.6549 12.2505C37.7412 12.4648 37.8537 12.7601 37.9034 12.9038C37.9531 13.0475 38.0002 13.2226 38.0107 13.2958C38.0212 13.3716 38.0159 13.4866 38.0002 13.5702C37.9819 13.6486 37.9322 13.7845 37.8851 13.8682C37.8406 13.9544 37.7517 14.0694 37.6863 14.1243C37.6209 14.1792 37.5188 14.2497 37.4587 14.2759C37.3959 14.3046 37.2834 14.3412 37.2101 14.3569C37.1342 14.3726 37.0139 14.3804 36.9406 14.3699C36.87 14.3621 36.7575 14.336 36.6921 14.3151C36.6267 14.2915 36.5194 14.234 36.4514 14.1844C36.3807 14.1347 36.2865 14.038 36.2368 13.9675C36.1871 13.8995 36.1269 13.7845 36.1008 13.714C36.0772 13.6408 35.9804 13.3899 35.8889 13.1521C35.7973 12.9143 35.6612 12.585 35.588 12.4203C35.5147 12.2557 35.3551 11.9212 35.2322 11.6755C35.1118 11.4298 34.9156 11.0614 34.7952 10.8523C34.6775 10.6432 34.4839 10.3191 34.3635 10.1336C34.2458 9.94803 34.1438 9.78861 34.1385 9.78077C34.1333 9.77293 33.9423 9.85133 33.7173 9.95326C33.4897 10.0552 33.0684 10.2355 32.7806 10.3505C32.4928 10.4655 31.9931 10.6537 31.6687 10.7687C31.3443 10.8836 30.8262 11.0561 30.5175 11.1528C30.2088 11.2495 29.7666 11.3802 29.5364 11.4455C29.3062 11.5109 28.8117 11.6363 28.4375 11.7278C28.0634 11.8192 27.6081 11.9264 27.425 11.9682C27.2445 12.0074 27.1006 12.0518 27.1058 12.0675C27.111 12.0832 27.1555 12.3759 27.2052 12.7209C27.2549 13.0658 27.3256 13.6016 27.3622 13.91C27.3988 14.2184 27.4512 14.7306 27.4799 15.0468C27.5087 15.363 27.5506 15.8857 27.5715 16.2098C27.5977 16.6122 27.6029 16.8396 27.5846 16.9285C27.5715 16.999 27.5323 17.1166 27.4956 17.1898C27.4616 17.2604 27.3753 17.378 27.3073 17.4459C27.2392 17.5139 27.1241 17.6001 27.0509 17.6367C26.9802 17.6707 26.8494 17.7099 26.7631 17.7256C26.6636 17.7386 26.5538 17.7386 26.4622 17.7229C26.3837 17.7099 26.2555 17.6707 26.1822 17.6341C26.1064 17.5975 25.9913 17.5165 25.9258 17.4512C25.8604 17.3858 25.7715 17.2551 25.7244 17.1558C25.6459 16.9886 25.6407 16.9572 25.6093 16.445C25.5883 16.1497 25.5543 15.6923 25.5334 15.4258C25.5098 15.1592 25.4628 14.6705 25.4261 14.3412C25.3895 14.0119 25.3189 13.4526 25.2691 13.0998C25.2194 12.747 25.1723 12.4386 25.1671 12.4125C25.1593 12.389 25.1462 12.3733 25.1357 12.3785C25.1226 12.3837 24.7904 12.4308 24.3953 12.4831C24.0002 12.5353 23.4351 12.6007 23.1394 12.6294C22.8438 12.6582 22.3545 12.6974 22.0537 12.7209C21.7528 12.7418 21.2452 12.7705 20.9286 12.7862C20.6121 12.7993 19.8455 12.8123 19.228 12.8123C18.6106 12.8123 17.8492 12.7993 17.5405 12.7862C17.2318 12.7705 16.6666 12.7366 16.2846 12.7078C15.9027 12.6764 15.3271 12.6242 15.0026 12.5902C14.6782 12.5536 14.3956 12.5196 14.3747 12.5144C14.3433 12.5092 14.325 12.5824 14.2753 12.8881C14.2439 13.0972 14.189 13.4997 14.1523 13.7793C14.1183 14.0589 14.0608 14.5999 14.0241 14.9815C13.9875 15.363 13.9404 15.9511 13.9169 16.2882C13.8959 16.6253 13.8671 17.1898 13.8515 17.5426C13.8384 17.8954 13.8253 18.5906 13.8253 19.9992L13.9378 20.0123C13.998 20.0201 14.2831 20.041 14.5709 20.0646C14.8587 20.0855 15.3951 20.1194 15.7614 20.143C16.1277 20.1639 16.6771 20.1926 16.978 20.2083C17.2789 20.2214 18.1344 20.2449 18.8748 20.2606C19.6152 20.2736 20.4289 20.2893 20.6801 20.2945C21.0882 20.3024 21.151 20.3076 21.2635 20.3599C21.3316 20.3912 21.4467 20.4723 21.5199 20.5402C21.5932 20.6108 21.6821 20.7127 21.7162 20.7702C21.7502 20.8277 21.7946 20.961 21.8182 21.0629C21.8496 21.2145 21.8522 21.2876 21.8287 21.4157C21.813 21.5072 21.7633 21.6509 21.7188 21.7345C21.6717 21.8208 21.5775 21.941 21.5042 22.0037C21.4336 22.0664 21.308 22.1422 21.2295 22.1762C21.0856 22.2337 21.0804 22.2337 19.5943 22.2311C18.7728 22.2311 17.7681 22.2154 17.3573 22.1971C16.9466 22.1814 16.2114 22.1422 15.7221 22.1135C15.2329 22.0847 14.6207 22.0455 14.3616 22.0246C14.1026 22.0037 13.8907 21.9907 13.8881 21.9933C13.8855 21.9959 13.8959 22.1631 13.9064 22.3644C13.9195 22.5656 13.9535 23.0125 13.9823 23.3575C14.011 23.7024 14.0581 24.1964 14.0895 24.4551C14.1183 24.7138 14.1706 25.1424 14.2073 25.409C14.2413 25.6756 14.3172 26.18 14.3773 26.5328C14.4349 26.8856 14.5343 27.437 14.6023 27.7611C14.6677 28.0851 14.7279 28.3752 14.7384 28.4092C14.7515 28.4562 14.7672 28.4667 14.8195 28.4562C14.8561 28.4484 15.157 28.4118 15.4867 28.3778C15.8163 28.3412 16.2663 28.2994 16.4809 28.2811C16.698 28.2655 16.9387 28.2576 17.0172 28.2655C17.0957 28.2759 17.2318 28.3177 17.3181 28.3595C17.4201 28.4092 17.5248 28.4902 17.6137 28.5895C17.6975 28.6784 17.776 28.7986 17.8074 28.8848C17.8466 28.9868 17.8623 29.0887 17.8623 29.2376C17.8623 29.3866 17.8466 29.4885 17.8074 29.5905C17.7786 29.6689 17.6975 29.7969 17.6268 29.8753C17.5588 29.9537 17.4594 30.0426 17.4097 30.0739C17.36 30.1053 17.2605 30.1497 17.1873 30.1732C17.1166 30.1968 16.8341 30.2334 16.5594 30.2569C16.2846 30.2778 15.8817 30.317 15.662 30.3431C15.3454 30.3771 15.2643 30.3954 15.2643 30.4268C15.2643 30.4477 15.3742 30.79 15.5102 31.1846C15.6463 31.5793 15.7928 32.0079 15.8399 32.1385C15.9131 32.3424 15.9236 32.3973 15.9131 32.5567C15.9053 32.6638 15.8765 32.7945 15.8425 32.8703C15.8111 32.9409 15.7535 33.0454 15.7143 33.1029C15.675 33.1578 15.5913 33.2414 15.5259 33.2911C15.4605 33.3381 15.3375 33.4008 15.2512 33.4322C15.1282 33.4766 15.0497 33.4871 14.8849 33.4792C14.7305 33.4714 14.639 33.4505 14.5317 33.4008C14.4532 33.3642 14.3355 33.2884 14.2727 33.2336C14.2099 33.1761 14.1314 33.0846 14.0974 33.0271C14.0634 32.9696 13.9797 32.771 13.909 32.5828C13.8384 32.3947 13.6788 31.9373 13.5584 31.5636C13.4355 31.1899 13.3256 30.8423 13.3125 30.7926C13.2889 30.7116 13.2785 30.7012 13.2104 30.709C13.166 30.7142 12.907 30.7665 12.6349 30.824C12.3628 30.8815 11.8787 30.9912 11.5622 31.0697C11.2456 31.1481 10.7275 31.2892 10.411 31.3806C10.0944 31.4721 9.59467 31.6289 9.29903 31.7282C9.00338 31.8275 8.60831 31.9661 8.08243 32.1594L8.22633 32.2901C8.30482 32.3633 8.51151 32.541 8.68419 32.6847C8.85686 32.8285 9.17606 33.0768 9.3906 33.2388C9.60775 33.3982 9.93741 33.6334 10.1232 33.7589C10.3089 33.8843 10.6517 34.0986 10.8819 34.2371C11.1121 34.373 11.5255 34.6004 11.7976 34.7415C12.0697 34.8826 12.4779 35.0786 12.7003 35.1779C12.9227 35.2772 13.3046 35.4341 13.5506 35.5281C13.7965 35.6222 14.1602 35.7529 14.3616 35.8182C14.5631 35.8836 14.9451 35.9986 15.2119 36.0717C15.4788 36.1449 15.7431 36.2338 15.8006 36.2651C15.8582 36.2991 15.9655 36.3906 16.0361 36.4664C16.1355 36.5735 16.1826 36.6519 16.2297 36.7904C16.2794 36.9368 16.2899 37.0126 16.2794 37.1694C16.2716 37.3157 16.2506 37.4072 16.1931 37.5326C16.1407 37.6441 16.0666 37.7443 15.9707 37.8332C15.8843 37.9142 15.7692 37.99 15.6829 38.0239C15.6044 38.0527 15.4736 38.0867 15.3951 38.0945C15.2826 38.1102 15.1832 38.0971 14.9372 38.0344C14.7646 37.9926 14.4297 37.8985 14.1916 37.8279C13.9535 37.7548 13.5715 37.6293 13.3413 37.5483C13.111 37.4673 12.7395 37.3262 12.5171 37.2347C12.2947 37.1432 11.952 36.9969 11.7584 36.908C11.5648 36.8218 11.1933 36.6388 10.9342 36.5056C10.6752 36.3723 10.2854 36.1606 10.0708 36.0325C9.85631 35.9071 9.44292 35.6484 9.15513 35.4602C8.86733 35.2694 8.44087 34.9715 8.2054 34.7964C7.97254 34.6213 7.60887 34.3312 7.39433 34.1535C7.18241 33.9758 6.85798 33.6909 6.66961 33.5184C6.48123 33.3459 6.14634 33.0166 5.92395 32.7893C5.70156 32.5593 5.37975 32.2143 5.21231 32.0209C5.04486 31.8275 4.76753 31.4904 4.59747 31.2761C4.42741 31.0592 4.15008 30.6907 3.98263 30.4529C3.81519 30.2151 3.57448 29.857 3.4489 29.6558C3.3207 29.4546 3.11924 29.12 2.99889 28.911C2.87854 28.7019 2.65353 28.2785 2.49917 27.9701C2.3448 27.6618 2.12765 27.1966 2.01776 26.9378C1.90788 26.6791 1.74305 26.261 1.65148 26.0101C1.5599 25.7592 1.42909 25.375 1.36368 25.1607C1.29565 24.9438 1.20147 24.6145 1.14914 24.429C1.09681 24.2434 1.00524 23.854 0.939832 23.5665C0.87704 23.2791 0.788084 22.8269 0.746223 22.5604C0.701745 22.2938 0.644186 21.8652 0.615406 21.6065C0.586626 21.3478 0.547381 20.9531 0.529067 20.731C0.513369 20.5088 0.497671 19.8973 0.500287 19.372C0.500287 18.7108 0.513369 18.2613 0.544765 17.9085C0.568312 17.6289 0.610174 17.2107 0.64157 16.9807C0.670349 16.7508 0.727909 16.3561 0.772386 16.1052C0.814248 15.8544 0.89797 15.4414 0.952914 15.1906C1.01047 14.9397 1.10989 14.5398 1.1753 14.302C1.24071 14.0642 1.38199 13.612 1.48665 13.2958C1.5913 12.9796 1.7509 12.5432 1.83724 12.3289C1.92357 12.1119 2.05962 11.7827 2.14335 11.5971C2.22707 11.4116 2.38928 11.0692 2.50178 10.8392C2.6169 10.6092 2.78435 10.293 2.87069 10.1336C2.95703 9.97417 3.11662 9.69976 3.22389 9.51943C3.33116 9.33911 3.54832 8.99936 3.70792 8.76154C3.8649 8.52372 4.11345 8.17091 4.25735 7.97752C4.40124 7.78413 4.6341 7.48358 4.77276 7.3111C4.91405 7.13861 5.1312 6.87988 5.25679 6.73615C5.38237 6.59241 5.65709 6.29448 5.86639 6.07234C6.07832 5.8502 6.43414 5.5 6.65653 5.29616C6.87892 5.09231 7.22689 4.78654 7.42835 4.61928C7.6298 4.44941 7.98301 4.16977 8.21325 3.99729C8.44348 3.8248 8.86733 3.52687 9.15513 3.3361C9.44292 3.14793 9.85369 2.8892 10.0708 2.76376C10.2854 2.6357 10.6988 2.41356 10.9866 2.2646C11.2744 2.11824 11.7218 1.90394 11.9808 1.78895C12.2398 1.67396 12.6506 1.50409 12.8965 1.41001C13.1424 1.31854 13.5401 1.1748 13.786 1.0964C14.032 1.018 14.448 0.892556 14.7148 0.819381C14.9817 0.748818 15.3925 0.646895 15.6306 0.594627C15.8686 0.542359 16.2977 0.458729 16.5855 0.411688C16.8733 0.364647 17.3312 0.299311 17.6059 0.270564C17.8806 0.239202 18.3332 0.197388 18.6132 0.179094C18.8931 0.1608 19.3772 0.142506 19.6859 0.139893ZM18.9271 2.32209C18.8199 2.37436 18.642 2.47628 18.5347 2.54946C18.4274 2.62525 18.2103 2.80819 18.0533 2.95976C17.8989 3.11134 17.6792 3.34655 17.5693 3.48245C17.4594 3.61834 17.2658 3.8823 17.1428 4.07046C17.0198 4.25863 16.8262 4.57485 16.7137 4.77609C16.6012 4.97732 16.4102 5.35365 16.2899 5.61238C16.1695 5.87111 15.9838 6.29971 15.8791 6.56627C15.7718 6.83284 15.5965 7.31371 15.4893 7.63777C15.382 7.96184 15.2329 8.43748 15.1596 8.69621C15.0864 8.95493 14.9739 9.37831 14.9111 9.63704C14.8483 9.89576 14.7698 10.2094 14.741 10.3348L14.6887 10.5648C14.8195 10.5831 14.9634 10.6014 15.0942 10.6171C15.225 10.6301 15.505 10.6615 15.7221 10.6824C15.9367 10.7033 16.3631 10.7373 16.664 10.7582C16.9649 10.7817 17.5797 10.8131 18.0245 10.8288C18.5059 10.8471 19.2071 10.8523 19.7513 10.8444C20.2536 10.834 20.8789 10.8157 21.1379 10.8C21.397 10.7843 21.8444 10.7556 22.1322 10.7347C22.42 10.7112 22.9668 10.6589 23.3488 10.6171C23.7307 10.5753 24.2069 10.5152 24.4084 10.4864C24.6098 10.455 24.7773 10.4289 24.7825 10.4263C24.7851 10.4237 24.7459 10.2381 24.6935 10.016C24.6438 9.79384 24.5366 9.37569 24.4607 9.08822C24.3822 8.80074 24.2592 8.37476 24.186 8.13955C24.1153 7.90696 23.9898 7.53062 23.9086 7.30326C23.8275 7.0785 23.6915 6.71524 23.6052 6.50094C23.5162 6.28403 23.3697 5.94428 23.2781 5.74305C23.1865 5.54182 23.0322 5.23082 22.938 5.05049C22.8438 4.87017 22.6842 4.58792 22.5822 4.42327C22.4827 4.25863 22.3179 4.00513 22.2159 3.86139C22.1138 3.71765 21.9438 3.50074 21.8417 3.37791C21.7397 3.25508 21.5461 3.04862 21.41 2.92056C21.274 2.78989 21.0647 2.61741 20.9417 2.53639C20.8188 2.45537 20.6435 2.35345 20.5493 2.30902C20.4551 2.2646 20.285 2.20449 20.1699 2.17574C20.0365 2.14176 19.8821 2.12347 19.7382 2.12347C19.6074 2.12608 19.4347 2.14699 19.3196 2.17835C19.2123 2.20449 19.0344 2.26982 18.9271 2.32209ZM14.4925 2.93624C14.2622 3.00942 13.875 3.14793 13.6291 3.2394C13.3831 3.33348 13.0299 3.47722 12.8442 3.56085C12.6584 3.64448 12.2973 3.81435 12.0462 3.93979C11.795 4.06524 11.4418 4.25079 11.2613 4.35271C11.0808 4.45464 10.7746 4.63757 10.581 4.75779C10.3874 4.88062 10.0918 5.07401 9.92695 5.18901C9.76212 5.304 9.46647 5.5183 9.27286 5.66726C9.07925 5.81361 8.74175 6.08279 8.52721 6.26573C8.31005 6.45128 7.86266 6.87204 7.533 7.20395C7.20072 7.53585 6.82136 7.93309 6.68792 8.08728C6.55449 8.24409 6.44722 8.37998 6.44722 8.39566C6.44722 8.41134 6.66176 8.50543 6.92339 8.60735C7.18764 8.70927 7.59056 8.86085 7.8208 8.94448C8.05103 9.02811 8.42779 9.15617 8.65802 9.23196C8.88826 9.30513 9.33565 9.44103 9.65223 9.5325C9.96881 9.62397 10.4397 9.75202 10.6988 9.81736C10.9578 9.8827 11.3345 9.97155 11.536 10.016C11.7375 10.0604 12.0723 10.1336 12.2816 10.1754C12.491 10.2172 12.6819 10.2512 12.7055 10.2512C12.7421 10.2512 12.7604 10.2094 12.7945 10.0473C12.818 9.93758 12.8991 9.58215 12.9802 9.25809C13.0587 8.93403 13.1974 8.41134 13.2889 8.09512C13.3805 7.7789 13.5218 7.32155 13.6029 7.07589C13.684 6.83023 13.8227 6.44344 13.909 6.21346C13.9927 5.98348 14.1419 5.61238 14.2361 5.39024C14.3302 5.1681 14.516 4.76041 14.6521 4.48861C14.7855 4.21682 14.9922 3.82742 15.1099 3.62618C15.2276 3.42495 15.4186 3.11918 15.5364 2.9467C15.6541 2.77421 15.7509 2.62525 15.7535 2.61218C15.7588 2.60173 15.7404 2.59389 15.7143 2.5965C15.6907 2.5965 15.4997 2.64354 15.2904 2.70104C15.0811 2.75853 14.7227 2.86307 14.4925 2.93624ZM24.0055 2.97283C24.131 3.15838 24.3246 3.47199 24.4345 3.66538C24.547 3.85878 24.7066 4.15932 24.7956 4.33181C24.8819 4.50429 25.0284 4.81529 25.1226 5.02436C25.2142 5.23343 25.3764 5.62022 25.4811 5.88679C25.5857 6.15335 25.7453 6.58195 25.8343 6.84068C25.9206 7.09941 26.0462 7.4862 26.1142 7.70311C26.1796 7.91741 26.3 8.34862 26.3837 8.657C26.4648 8.96539 26.5799 9.4149 26.6349 9.65272L26.7369 10.0865C27.2837 9.96894 27.7259 9.86702 28.0712 9.78339C28.4166 9.69714 28.9634 9.55079 29.2878 9.45932C29.6123 9.36524 30.0989 9.21628 30.3736 9.12742C30.6483 9.03856 31.1193 8.87392 31.4202 8.76154C31.721 8.64916 32.171 8.47407 32.4144 8.36953C32.6577 8.26761 32.867 8.17614 32.8774 8.16568C32.8879 8.15523 32.7571 7.9932 32.587 7.80765C32.417 7.62209 32.0742 7.26667 31.8231 7.02362C31.5719 6.77796 31.2161 6.44867 31.0303 6.29187C30.8472 6.13245 30.5227 5.87111 30.3108 5.70907C30.1015 5.54704 29.6751 5.24389 29.3663 5.03743C29.0576 4.83097 28.6154 4.55656 28.3852 4.42327C28.155 4.2926 27.773 4.08614 27.5349 3.96854C27.2968 3.84832 26.9488 3.68368 26.7631 3.60005C26.5747 3.51903 26.2764 3.39098 26.0959 3.32041C25.9154 3.24724 25.5282 3.10873 25.2325 3.01203C24.9369 2.91272 24.5261 2.78466 24.3168 2.72978C24.1075 2.67229 23.8982 2.61741 23.8511 2.60695C23.804 2.5965 23.77 2.59911 23.7726 2.60957C23.7778 2.62263 23.8825 2.78466 24.0055 2.97283ZM4.60532 11.0744C4.49282 11.2757 4.31752 11.6154 4.21025 11.8323C4.1056 12.0466 3.94862 12.389 3.86228 12.5902C3.77332 12.7914 3.64512 13.1103 3.57448 13.2958C3.50384 13.4814 3.38611 13.8185 3.31285 14.0406C3.23959 14.2628 3.13232 14.6208 3.07476 14.8377C3.01459 15.052 2.92563 15.4179 2.8733 15.6479C2.82098 15.8779 2.7451 16.2647 2.70586 16.5103C2.664 16.756 2.60382 17.1898 2.57243 17.4773C2.53841 17.7648 2.5201 18.0183 2.52795 18.0392C2.5358 18.0653 2.82098 18.1489 3.45413 18.3057C3.95647 18.4312 4.66288 18.5984 5.02132 18.6768C5.38237 18.7552 5.91087 18.8676 6.19867 18.9251C6.48646 18.9826 6.98095 19.0767 7.29753 19.1342C7.61411 19.1917 8.08505 19.2753 8.34406 19.3171C8.60308 19.3616 9.09233 19.4373 9.42984 19.487C9.76735 19.5393 10.4162 19.6281 10.8688 19.6856C11.3215 19.7431 11.7244 19.7902 11.7662 19.7902H11.8369C11.8369 19.0114 11.85 18.4129 11.863 17.9608C11.8787 17.5086 11.9075 16.837 11.9311 16.4711C11.952 16.1052 11.9939 15.5407 12.02 15.2167C12.0488 14.8926 12.1011 14.3569 12.1404 14.0276C12.177 13.6983 12.2476 13.1547 12.2947 12.8254C12.3418 12.4961 12.3732 12.2165 12.3654 12.2086C12.3549 12.2008 12.1534 12.1538 11.9154 12.1093C11.6773 12.0623 11.2011 11.9604 10.8557 11.8794C10.5104 11.801 9.95834 11.6624 9.62607 11.571C9.29641 11.4821 8.82547 11.3462 8.57953 11.2704C8.33621 11.1946 7.89405 11.0509 7.59841 10.9516C7.30276 10.8497 6.83967 10.6824 6.56495 10.5779C6.29286 10.4733 5.88209 10.3113 5.65709 10.2146C5.42946 10.1205 5.23847 10.0421 5.23062 10.0421C5.22539 10.0421 5.12597 10.1911 5.01347 10.374C4.89835 10.5596 4.7152 10.8732 4.60532 11.0744ZM2.53841 20.9793C2.55934 21.2249 2.60644 21.63 2.64307 21.8809C2.6797 22.1318 2.74772 22.5447 2.79743 22.7956C2.84714 23.0465 2.93348 23.4359 2.99104 23.658C3.0486 23.8802 3.15587 24.2617 3.22913 24.5074C3.305 24.753 3.44105 25.1581 3.53524 25.409C3.62943 25.6599 3.78379 26.0414 3.87536 26.2584C3.96955 26.4727 4.15269 26.8621 4.28089 27.1208C4.41171 27.3795 4.61317 27.7611 4.73352 27.9701C4.85125 28.1792 5.04486 28.5007 5.16522 28.6888C5.28295 28.877 5.44778 29.1227 5.52627 29.2376C5.60738 29.3526 5.79314 29.6061 5.93703 29.7995C6.08355 29.9929 6.29286 30.2621 6.40274 30.3928C6.51263 30.5261 6.6199 30.6306 6.63821 30.6254C6.65391 30.6201 6.78734 30.5653 6.93124 30.5052C7.07514 30.4477 7.42311 30.3118 7.70306 30.2046C7.98301 30.1001 8.44348 29.938 8.72343 29.844C9.00338 29.7499 9.49263 29.5983 9.80921 29.5042C10.1258 29.4101 10.6674 29.2638 11.0127 29.1775C11.3581 29.0913 11.897 28.9659 12.211 28.9005C12.5224 28.8352 12.784 28.7803 12.7918 28.7803C12.7997 28.7803 12.7683 28.6183 12.7238 28.4196C12.6819 28.2236 12.593 27.7741 12.5276 27.4213C12.4648 27.0685 12.3654 26.457 12.3078 26.0624C12.2503 25.6677 12.1744 25.0849 12.1404 24.7687C12.1037 24.4525 12.0514 23.922 12.0226 23.5927C11.9939 23.2634 11.9572 22.7433 11.9389 22.4428C11.9232 22.1422 11.9023 21.8704 11.8918 21.8417C11.8735 21.7973 11.8343 21.7868 11.6642 21.7685C11.5517 21.7554 11.1331 21.7058 10.738 21.6561C10.3429 21.6065 9.73595 21.5228 9.3906 21.4732C9.04524 21.4235 8.4147 21.3242 7.99086 21.2537C7.56701 21.1831 6.90246 21.0655 6.51263 20.9923C6.12541 20.9192 5.52889 20.8015 5.19138 20.7284C4.85387 20.6578 4.36985 20.5507 4.11868 20.4932C3.86751 20.4357 3.4018 20.3233 3.08523 20.2449C2.76865 20.1665 2.50178 20.1038 2.4887 20.1038C2.47824 20.1038 2.47562 20.2005 2.48347 20.3181C2.49394 20.4383 2.51748 20.7336 2.53841 20.9793Z" fill="#FF712C"/>
<path fill-rule="evenodd" clip-rule="evenodd" d="M40.2927 16.4321L40.4601 16.5157C40.5753 16.5706 40.6747 16.6464 40.7689 16.7509C40.85 16.8371 40.9337 16.9626 40.9651 17.0462C41.02 17.1795 41.0226 17.2292 41.0174 17.791C41.0148 18.1203 40.9991 18.5803 40.9834 18.8103C40.9677 19.0403 40.9363 19.3983 40.9154 19.6074C40.8945 19.8164 40.8474 20.1849 40.8133 20.4306C40.7793 20.6762 40.7192 21.0395 40.6825 21.2407C40.6459 21.442 40.5674 21.8183 40.5098 22.077C40.4523 22.3358 40.3555 22.7356 40.2901 22.9656C40.2273 23.1956 40.1148 23.5771 40.0415 23.815C39.9657 24.0528 39.8139 24.4944 39.7014 24.795C39.5889 25.0955 39.4136 25.532 39.3142 25.762C39.2148 25.9919 39.0996 26.2507 39.0578 26.3343C39.0159 26.4205 38.94 26.5381 38.8877 26.5956C38.8354 26.6557 38.7255 26.7394 38.6392 26.7864C38.5554 26.8308 38.4089 26.8831 38.3147 26.8988C38.1839 26.9249 38.1107 26.9249 38.0008 26.9014C37.9223 26.8857 37.7941 26.8413 37.7208 26.8073C37.645 26.7707 37.5298 26.6897 37.4644 26.6244C37.399 26.559 37.3179 26.4441 37.2813 26.3709C37.2473 26.2951 37.2054 26.1618 37.1897 26.0756C37.1688 25.9632 37.1688 25.8769 37.1897 25.775C37.2054 25.6966 37.3022 25.4431 37.4043 25.2131C37.5063 24.9832 37.6685 24.5885 37.7653 24.3376C37.8621 24.0868 38.0034 23.6974 38.0793 23.4752C38.1525 23.2531 38.2781 22.848 38.354 22.5736C38.4299 22.2992 38.5397 21.8601 38.5973 21.5936C38.6575 21.327 38.7281 20.9742 38.7569 20.8095C38.7857 20.6449 38.8328 20.3443 38.8616 20.1431C38.8903 19.9419 38.9322 19.6074 38.9531 19.3983C38.9741 19.1892 39.0028 18.8808 39.0342 18.4026L38.8903 18.4156C38.8118 18.4235 38.5816 18.4444 38.3802 18.4601C38.1787 18.4758 37.7967 18.515 37.5298 18.5489C37.263 18.5855 36.8156 18.6535 36.5356 18.7057C36.2557 18.7554 35.7429 18.8678 35.3975 18.954C35.0522 19.0403 34.5577 19.1761 34.2987 19.2572C34.0396 19.3356 33.621 19.4793 33.3699 19.5734C33.1187 19.6675 32.7289 19.8217 32.5065 19.9157C32.2841 20.0098 31.8472 20.2137 31.5384 20.3679C31.2297 20.5194 30.8268 20.7285 30.6436 20.8304C30.4579 20.935 30.1701 21.1022 30.0026 21.2068C29.8326 21.3087 29.5186 21.5125 29.3015 21.6563C29.0869 21.8026 28.7206 22.0614 28.4904 22.2338C28.2602 22.4063 27.9305 22.6624 27.7578 22.8062C27.5851 22.9499 27.2921 23.206 27.1037 23.3733C26.918 23.5406 26.5517 23.8934 26.2927 24.1573C26.0337 24.4213 25.7014 24.7741 25.5549 24.9387C25.411 25.1034 25.1415 25.4274 24.9557 25.66C24.77 25.89 24.4926 26.2559 24.3409 26.4702C24.1865 26.6845 23.9432 27.0451 23.7967 27.2725C23.6502 27.4973 23.4252 27.8684 23.297 28.0957C23.1662 28.3205 22.9542 28.7125 22.8286 28.9634C22.7004 29.2143 22.5199 29.5906 22.4257 29.7997C22.3315 30.0087 22.185 30.3563 22.0987 30.5706C22.0124 30.7875 21.8685 31.1743 21.7821 31.4331C21.6932 31.6918 21.5728 32.0629 21.5179 32.2563C21.4629 32.4497 21.3687 32.7973 21.3112 33.0272C21.2536 33.2572 21.1751 33.597 21.1385 33.7851C21.1019 33.9733 21.0731 34.1275 21.0783 34.1301C21.0836 34.1353 21.251 33.9655 21.4525 33.7538C21.6539 33.5421 21.9836 33.218 22.185 33.0325C22.3865 32.8443 22.6978 32.5699 22.8784 32.4183C23.0589 32.2694 23.3938 32.0028 23.624 31.8303C23.8543 31.6578 24.2258 31.3965 24.4482 31.2501C24.6705 31.1012 25.0081 30.8921 25.1938 30.7797C25.3822 30.6673 25.7119 30.4844 25.9264 30.3694C26.1435 30.2544 26.502 30.0767 26.7244 29.9722C26.9468 29.8676 27.3418 29.6951 27.6008 29.5906C27.8599 29.4861 28.2785 29.3319 28.5296 29.2456C28.7808 29.162 29.189 29.0339 29.4323 28.9634C29.6782 28.8954 30.089 28.7909 30.348 28.7334C30.607 28.6733 30.989 28.5975 31.1983 28.5609C31.4076 28.5243 31.7085 28.4773 31.8655 28.4564C32.0251 28.4329 32.3233 28.3989 32.5326 28.3754C32.7419 28.3545 33.1841 28.3231 33.5138 28.3074C33.8617 28.2917 34.3484 28.2865 34.665 28.2944C34.9684 28.3048 35.3609 28.3231 35.5414 28.3388C35.722 28.3518 36.0385 28.3806 36.2478 28.4041C36.4571 28.4276 36.8627 28.4851 37.1505 28.5322C37.4383 28.5792 37.8673 28.6628 38.1054 28.7151C38.3435 28.77 38.7255 28.8641 38.9557 28.9294C39.186 28.9921 39.581 29.1123 39.8322 29.196C40.0834 29.2822 40.4549 29.4155 40.6564 29.4939C40.8578 29.5723 41.177 29.703 41.3628 29.7866C41.5512 29.8676 41.9567 30.0636 42.2654 30.2204C42.5741 30.3772 42.9143 30.5602 43.0163 30.6281C43.1367 30.7065 43.2465 30.8085 43.3146 30.8973C43.3721 30.9757 43.4401 31.1064 43.4611 31.1848C43.4846 31.2632 43.5029 31.4043 43.5003 31.4984C43.5003 31.5977 43.4794 31.7205 43.4506 31.7989C43.4244 31.8721 43.3198 32.0655 43.2204 32.2302C43.1236 32.3948 42.9221 32.7136 42.7756 32.9358C42.6291 33.1579 42.3491 33.5525 42.1555 33.8113C41.9593 34.07 41.6506 34.4594 41.4648 34.6737C41.2817 34.8906 40.9232 35.2748 40.6721 35.5335C40.4183 35.7896 40.0468 36.1477 39.8453 36.328C39.6438 36.5083 39.3377 36.7697 39.1651 36.9082C38.9924 37.0467 38.715 37.261 38.5502 37.3838C38.3854 37.5066 38.0426 37.7418 37.7915 37.9091C37.5403 38.0737 37.1583 38.3116 36.9412 38.437C36.7266 38.5625 36.3499 38.7689 36.1039 38.8944C35.8606 39.0172 35.5074 39.1871 35.319 39.2707C35.1333 39.3543 34.8036 39.4928 34.5865 39.5791C34.3719 39.6653 34.0056 39.8012 33.7754 39.8796C33.5452 39.958 33.1396 40.0835 32.8728 40.1593C32.6059 40.2377 32.2004 40.3422 31.9701 40.3918C31.7399 40.4441 31.3919 40.5147 31.1983 40.5513C31.0047 40.5878 30.675 40.6401 30.4657 40.6689C30.2564 40.7002 29.9032 40.7394 29.6808 40.7603C29.4584 40.7839 29.0451 40.8126 28.7651 40.8309C28.4564 40.8492 28.0325 40.8544 27.6924 40.8466C27.3837 40.8361 26.9232 40.8126 26.672 40.7917C26.4209 40.7708 26.0624 40.7342 25.8741 40.7107C25.6883 40.6872 25.4214 40.6506 25.2854 40.6297C25.1493 40.6088 24.8851 40.5617 24.6967 40.5251C24.511 40.4885 24.2048 40.4232 24.0165 40.3814C23.8307 40.3396 23.488 40.2507 23.2577 40.1854C23.0275 40.12 22.6507 40.0051 22.4205 39.9267C22.1903 39.8509 21.8371 39.7228 21.6356 39.6444C21.4341 39.566 21.1176 39.4353 20.9292 39.3517C20.7434 39.2681 20.3902 39.1008 20.1443 38.978C19.901 38.8578 19.5949 38.6984 19.464 38.6252C19.3358 38.5546 19.1815 38.4579 19.1239 38.4109C19.0664 38.3664 18.9826 38.2698 18.9355 38.1992C18.8911 38.1286 18.8335 38.0006 18.8073 37.9143C18.7681 37.7758 18.7655 37.6817 18.7786 37.1434C18.789 36.8062 18.8073 36.3698 18.823 36.1764C18.8387 35.983 18.8675 35.6485 18.8884 35.4316C18.912 35.2173 18.9591 34.8331 18.9957 34.5822C19.0323 34.3313 19.1135 33.8661 19.1762 33.5499C19.239 33.2337 19.3385 32.7816 19.3986 32.5438C19.4562 32.3059 19.5582 31.9374 19.621 31.7205C19.6838 31.5062 19.8172 31.0881 19.9193 30.7928C20.0187 30.4975 20.1888 30.0401 20.296 29.7735C20.4033 29.507 20.5577 29.1385 20.6414 28.9503C20.7251 28.7622 20.9213 28.3623 21.0731 28.0618C21.2275 27.7612 21.4446 27.3535 21.5571 27.1601C21.667 26.9667 21.8763 26.6192 22.0202 26.3892C22.1641 26.1592 22.4179 25.7776 22.5853 25.5398C22.7502 25.302 22.9987 24.9622 23.1374 24.7819C23.276 24.6016 23.5037 24.3141 23.6476 24.1416C23.7915 23.9692 24.0426 23.6738 24.2101 23.4883C24.3749 23.3027 24.7464 22.9133 25.0368 22.6259C25.3246 22.3384 25.7485 21.9385 25.9787 21.7373C26.209 21.5361 26.5438 21.2512 26.7244 21.1075C26.9049 20.9637 27.2162 20.7233 27.4177 20.5717C27.6192 20.4227 27.9959 20.1588 28.2549 19.9863C28.5139 19.8112 28.9273 19.5525 29.1706 19.4061C29.414 19.2624 29.7462 19.0742 29.9032 18.9854C30.0628 18.8991 30.3689 18.7423 30.5835 18.6326C30.8006 18.5254 31.1826 18.3477 31.4338 18.2353C31.6849 18.1229 32.08 17.9583 32.3103 17.8694C32.5405 17.778 32.9225 17.6395 33.1606 17.5558C33.3986 17.4748 33.8094 17.3468 34.0763 17.2684C34.3431 17.19 34.7539 17.0802 34.992 17.0201C35.2301 16.9626 35.6592 16.8685 35.947 16.811C36.2348 16.7561 36.7188 16.6725 37.0197 16.6307C37.3232 16.5863 37.7705 16.534 38.0139 16.5105C38.2572 16.4869 38.613 16.4582 38.7988 16.4477C38.9871 16.4347 39.3979 16.4268 40.2927 16.4321ZM32.6242 30.3485C32.4803 30.3642 32.1925 30.4008 31.9832 30.4295C31.7739 30.4583 31.4285 30.5184 31.2114 30.5602C30.9969 30.602 30.607 30.6909 30.348 30.7562C30.089 30.8215 29.618 30.9626 29.3015 31.0672C28.9849 31.1717 28.5663 31.3233 28.3727 31.4017C28.1791 31.4801 27.8363 31.6291 27.6139 31.731C27.3915 31.8329 27.02 32.0185 26.7898 32.1439C26.5595 32.2667 26.2351 32.4523 26.0703 32.5516C25.9055 32.6535 25.6281 32.8312 25.4555 32.9462C25.2828 33.0612 24.9819 33.2755 24.7883 33.4219C24.5947 33.5682 24.2833 33.8139 24.095 33.9707C23.9092 34.1275 23.4958 34.5117 23.1766 34.8305C22.86 35.1467 22.4911 35.5309 22.3603 35.6877C22.2269 35.8419 22.1222 35.9726 22.1275 35.9804C22.1301 35.9882 23.4984 35.6224 25.1677 35.1676C26.8369 34.7155 28.2863 34.3261 28.3857 34.3026C28.5401 34.2686 28.5951 34.266 28.739 34.2921C28.8331 34.3104 28.9797 34.3627 29.0634 34.4071C29.1497 34.4542 29.2648 34.543 29.3198 34.6084C29.3747 34.6737 29.4454 34.7756 29.4715 34.8383C29.5003 34.8984 29.5369 35.0108 29.5526 35.0866C29.5683 35.1624 29.5762 35.2878 29.5657 35.3662C29.5552 35.4447 29.516 35.5805 29.4768 35.6668C29.4349 35.753 29.3616 35.8706 29.3093 35.9281C29.2596 35.9856 29.1471 36.0693 29.0634 36.1137C28.9483 36.1764 28.1136 36.4116 25.7903 37.0414C24.0662 37.5092 22.6743 37.8986 22.6769 37.9143C22.6821 37.9274 22.8574 37.998 23.0641 38.0659C23.2708 38.1365 23.6292 38.2462 23.8595 38.309C24.0897 38.3717 24.4665 38.4658 24.6967 38.5154C24.927 38.5651 25.2985 38.633 25.5209 38.6696C25.7432 38.7062 26.0912 38.7532 26.2927 38.7741C26.4941 38.7977 26.8369 38.8264 27.0514 38.8421C27.2686 38.8552 27.7029 38.8682 28.0195 38.8682C28.336 38.8682 28.773 38.8552 28.9875 38.8421C29.2047 38.8264 29.5448 38.7977 29.7462 38.7768C29.9477 38.7532 30.259 38.7114 30.4396 38.6827C30.6201 38.6565 30.921 38.6017 31.1067 38.5651C31.2951 38.5285 31.6588 38.4449 31.9178 38.3795C32.1768 38.3142 32.6661 38.1704 33.0036 38.0581C33.3411 37.9457 33.8068 37.7758 34.037 37.6791C34.2673 37.585 34.6571 37.4073 34.9004 37.2897C35.1464 37.1721 35.51 36.984 35.7115 36.869C35.9129 36.7566 36.2374 36.5658 36.431 36.443C36.6246 36.3228 36.9386 36.1137 37.1243 35.9804C37.3127 35.8471 37.5822 35.6485 37.7261 35.5361C37.87 35.4237 38.1473 35.1964 38.3409 35.0291C38.5345 34.8619 38.8956 34.5247 39.1389 34.2817C39.3848 34.0386 39.7354 33.6623 39.9212 33.4454C40.1043 33.2311 40.3607 32.9175 40.4863 32.7528C40.6119 32.5882 40.8055 32.3216 40.9154 32.1648C41.0253 32.008 41.1142 31.8695 41.1142 31.859C41.1142 31.846 41.0357 31.8016 40.9389 31.7571C40.8395 31.7127 40.6197 31.6134 40.4471 31.5376C40.2744 31.4618 39.9264 31.3233 39.6752 31.2292C39.4241 31.1351 39.0185 30.9992 38.7726 30.9261C38.5293 30.8555 38.1865 30.7588 38.0139 30.717C37.8412 30.6752 37.5168 30.6046 37.2944 30.5602C37.072 30.5158 36.7292 30.4556 36.5356 30.4295C36.342 30.4008 36.0071 30.3589 35.79 30.3354C35.5231 30.3067 35.0862 30.2884 34.4295 30.2832C33.8984 30.2779 33.3332 30.2858 33.1736 30.2962C33.0167 30.3093 32.7681 30.3328 32.6242 30.3485Z" fill="#FF712C"/>
</g>
<defs>
<clipPath id="clip0_2_1423">
<rect width="43" height="41" fill="white" transform="translate(0.5 0.139893)"/>
</clipPath>
</defs>
</svg>
