<svg width="56" height="57" viewBox="0 0 56 57" fill="none" xmlns="http://www.w3.org/2000/svg">
<g clip-path="url(#clip0_2_1389)">
<path fill-rule="evenodd" clip-rule="evenodd" d="M27.9781 0.860107C28.5034 0.860107 29.0287 0.947607 29.554 1.11167C29.9918 1.25386 30.6484 1.56011 31.0095 1.7898C31.3597 2.03042 31.9507 2.58823 32.3228 3.02573C32.6839 3.46323 33.1764 3.95542 33.4172 4.10855C33.6579 4.26167 34.0519 4.45855 34.2927 4.54605C34.5334 4.62261 35.0478 4.68823 35.4418 4.68823C35.978 4.68823 36.4376 4.5898 37.3022 4.29449C38.3856 3.92261 38.517 3.90074 39.5457 3.94449C40.5634 3.9773 40.7057 4.01011 41.5703 4.43667C42.2269 4.75386 42.6865 5.08199 43.1352 5.53042C43.4854 5.88042 43.9232 6.46011 44.0983 6.82105C44.2734 7.18199 44.5032 7.89292 44.5908 8.40699C44.6893 8.92105 44.8753 9.61011 44.9957 9.93823C45.1489 10.321 45.4334 10.7367 45.7836 11.0867C46.1338 11.4367 46.5497 11.721 46.9327 11.8742C47.261 11.9945 47.9505 12.1804 48.4649 12.2788C48.9792 12.3664 49.6906 12.596 50.0517 12.771C50.4128 12.946 50.9929 13.3835 51.354 13.7335C51.8027 14.182 52.1201 14.6413 52.4374 15.2976C52.8533 16.1507 52.8861 16.3148 52.9299 17.321C52.9737 18.3601 52.9518 18.4804 52.5797 19.5632C52.2842 20.4273 52.1857 20.8867 52.1857 21.4226C52.1857 21.8163 52.2514 22.3304 52.328 22.571C52.4156 22.8117 52.6125 23.2054 52.7658 23.446C52.919 23.6867 53.4114 24.1789 53.8492 24.5398C54.2869 24.9117 54.8451 25.5023 55.0858 25.8523C55.3157 26.2132 55.633 26.8804 55.7753 27.3289C55.9942 28.0179 56.027 28.3023 55.9832 29.0789C55.9504 29.5929 55.83 30.282 55.7206 30.6101C55.6002 30.9382 55.3157 31.507 55.0749 31.8679C54.8451 32.2179 54.2869 32.8085 53.8492 33.1804C53.4114 33.5414 52.919 34.0335 52.7658 34.2742C52.6125 34.5148 52.4156 34.9085 52.328 35.1492C52.2514 35.3898 52.1857 35.9039 52.1857 36.2976C52.1857 36.8335 52.2842 37.2929 52.5797 38.157C52.9518 39.2398 52.9737 39.371 52.9299 40.3992C52.8971 41.4164 52.8643 41.5585 52.4374 42.4226C52.1201 43.0789 51.7918 43.5382 51.3431 43.9867C50.9929 44.3367 50.4128 44.7742 50.0517 44.9492C49.6906 45.1242 48.9792 45.3539 48.4649 45.4413C47.9505 45.5398 47.261 45.7257 46.9327 45.846C46.5497 45.9992 46.1338 46.2835 45.7836 46.6335C45.4334 46.9835 45.1489 47.3992 44.9957 47.782C44.8753 48.1101 44.6893 48.7992 44.5908 49.3132C44.5032 49.8273 44.2734 50.5382 44.0983 50.8992C43.9232 51.2601 43.4854 51.8398 43.1352 52.1898C42.6865 52.6382 42.2269 52.9663 41.5703 53.2835C40.7057 53.7101 40.5634 53.7429 39.5457 53.7757C38.517 53.8195 38.3856 53.7976 37.3022 53.4257C36.4376 53.1304 35.978 53.032 35.4418 53.032C35.0478 53.032 34.5115 53.1085 34.2379 53.207C33.9644 53.2945 33.5485 53.5242 33.3077 53.6992C33.067 53.8632 32.5964 54.3445 32.2681 54.7492C31.9288 55.1648 31.3926 55.6679 31.0643 55.8976C30.7359 56.1164 30.0793 56.4226 29.6087 56.5757C29.0287 56.7726 28.5362 56.8601 28 56.8601C27.5075 56.8601 26.9494 56.7726 26.435 56.6085C26.0082 56.4664 25.3516 56.1601 24.9905 55.9304C24.6403 55.6898 24.0712 55.1648 23.7319 54.7492C23.4036 54.3445 22.933 53.8632 22.6923 53.6992C22.4515 53.5242 22.0356 53.2945 21.7621 53.207C21.4885 53.1085 20.9522 53.032 20.5582 53.032C20.022 53.032 19.5624 53.1304 18.6978 53.4257C17.6144 53.7976 17.483 53.8195 16.4543 53.7757C15.4365 53.7429 15.2943 53.7101 14.4297 53.2835C13.7731 52.9663 13.3135 52.6382 12.8648 52.1898C12.5146 51.8398 12.0768 51.2601 11.9017 50.8992C11.7266 50.5382 11.4968 49.8273 11.4092 49.3132C11.3107 48.7992 11.1247 48.1101 11.0043 47.782C10.8511 47.3992 10.5666 46.9835 10.2164 46.6335C9.86617 46.2835 9.4503 45.9992 9.06727 45.846C8.73896 45.7257 8.0495 45.5398 7.53514 45.4413C7.02079 45.3539 6.30944 45.1242 5.9483 44.9492C5.58715 44.7742 5.00713 44.3367 4.65693 43.9867C4.20824 43.5382 3.87992 43.0789 3.56255 42.4226C3.13575 41.5585 3.10292 41.4164 3.07008 40.3992C3.02631 39.371 3.0482 39.2398 3.42028 38.157C3.71577 37.2929 3.81426 36.8335 3.81426 36.2976C3.81426 35.9039 3.73765 35.3679 3.63916 35.0945C3.55161 34.821 3.32179 34.4054 3.14669 34.1648C2.98253 33.9242 2.50101 33.4539 2.09609 33.1257C1.68022 32.7867 1.15492 32.2179 0.914161 31.8679C0.684341 31.507 0.366972 30.8398 0.224703 30.3913C0.0058274 29.7023 -0.0270039 29.4179 0.0167712 28.6413C0.0496025 28.1273 0.169984 27.4382 0.279422 27.1101C0.399803 26.782 0.684341 26.2132 0.925104 25.8523C1.15492 25.5023 1.71306 24.9117 2.15081 24.5398C2.58856 24.1789 3.08103 23.6867 3.23424 23.446C3.38745 23.2054 3.58444 22.8117 3.67199 22.571C3.7486 22.3304 3.81426 21.8163 3.81426 21.4226C3.81426 20.8867 3.71577 20.4273 3.42028 19.5632C3.0482 18.4804 3.02631 18.3492 3.07008 17.321C3.10292 16.3039 3.13575 16.1617 3.56255 15.2976C3.87992 14.6413 4.20824 14.182 4.65693 13.7335C5.00713 13.3835 5.58715 12.946 5.9483 12.771C6.30944 12.596 7.02079 12.3664 7.53514 12.2788C8.0495 12.1804 8.73896 11.9945 9.06727 11.8742C9.4503 11.721 9.86617 11.4367 10.2164 11.0867C10.5666 10.7367 10.8511 10.321 11.0043 9.93823C11.1247 9.61011 11.3107 8.92105 11.4092 8.40699C11.4968 7.89292 11.7266 7.18199 11.9017 6.82105C12.0768 6.46011 12.5146 5.88042 12.8648 5.53042C13.3135 5.08199 13.7731 4.75386 14.4297 4.43667C15.2943 4.01011 15.4365 3.9773 16.4543 3.94449C17.483 3.90074 17.6144 3.92261 18.6978 4.29449C19.5624 4.5898 20.022 4.68823 20.5582 4.68823C20.9522 4.68823 21.4666 4.62261 21.7073 4.54605C21.9481 4.45855 22.3421 4.26167 22.5828 4.10855C22.8236 3.95542 23.3161 3.46323 23.6772 3.02573C24.0493 2.58823 24.6074 2.0523 24.9357 1.82261C25.2641 1.60386 25.9097 1.29761 26.3584 1.14448C26.9385 0.947607 27.409 0.860107 27.9672 0.860107H27.9781ZM26.3694 2.91636C26.0958 3.04761 25.8003 3.22261 25.7128 3.29917C25.6252 3.3648 25.2312 3.79136 24.8372 4.22886C24.4433 4.6773 23.8304 5.23511 23.4693 5.47573C23.1081 5.70542 22.4625 6.01167 22.0466 6.13198C21.4337 6.31792 21.0835 6.35073 20.2956 6.30699C19.5624 6.27417 19.0699 6.1648 18.3476 5.91323C17.68 5.66167 17.1985 5.56323 16.7389 5.56323C16.3558 5.56323 15.8196 5.66167 15.4475 5.78199C15.1082 5.9023 14.6048 6.19761 14.3312 6.4273C14.0576 6.65699 13.6746 7.10542 13.4886 7.43355C13.2259 7.86011 13.0727 8.31948 12.9414 9.06323C12.821 9.71949 12.624 10.3867 12.3832 10.8679C12.1534 11.3382 11.7704 11.8742 11.3874 12.246C11.0153 12.6289 10.479 13.0117 10.0084 13.2413C9.52691 13.482 8.85934 13.6789 8.20271 13.7992C7.45854 13.9304 6.9989 14.0835 6.57209 14.346C6.24378 14.532 5.79508 14.9148 5.56526 15.1882C5.33544 15.4617 5.03996 15.9648 4.91958 16.3148C4.7992 16.6757 4.70071 17.2117 4.70071 17.5945C4.70071 18.0648 4.7992 18.5132 5.03996 19.1585C5.30261 19.8367 5.39016 20.307 5.43394 21.0945C5.48866 21.9476 5.45583 22.2648 5.26978 22.8992C5.1494 23.3148 4.84298 23.9601 4.61316 24.321C4.37239 24.682 3.81426 25.2945 3.36557 25.6882C2.92781 26.082 2.50101 26.4757 2.43535 26.5632C2.35874 26.6507 2.16175 27.0007 1.99759 27.3289C1.74589 27.8429 1.70211 28.0726 1.70211 28.8601C1.70211 29.6476 1.74589 29.8773 1.99759 30.3913C2.16175 30.7195 2.35874 31.0695 2.43535 31.157C2.50101 31.2445 2.92781 31.6382 3.36557 32.032C3.81426 32.4257 4.37239 33.0382 4.61316 33.3992C4.84298 33.7601 5.1494 34.3945 5.26978 34.821C5.45583 35.4554 5.48866 35.7726 5.43394 36.6257C5.39016 37.4132 5.30261 37.8835 5.03996 38.5726C4.7992 39.207 4.70071 39.6554 4.70071 40.1257C4.70071 40.5085 4.7992 41.0445 4.91958 41.4163C5.03996 41.7554 5.33544 42.2585 5.56526 42.532C5.79508 42.8054 6.24378 43.1882 6.57209 43.3742C6.9989 43.6367 7.45854 43.7898 8.20271 43.921C8.85934 44.0414 9.52691 44.2382 10.0084 44.4788C10.479 44.7085 11.0153 45.0914 11.3874 45.4742C11.7704 45.846 12.1534 46.382 12.3832 46.8523C12.624 47.3335 12.821 48.0007 12.9414 48.657C13.0727 49.4007 13.2259 49.8601 13.4886 50.2867C13.6746 50.6148 14.0576 51.0632 14.3312 51.2929C14.6048 51.5226 15.1082 51.8179 15.4475 51.9382C15.7977 52.0585 16.3668 52.157 16.706 52.157C17.1547 52.157 17.6691 52.0476 18.4351 51.7742C19.3544 51.457 19.6827 51.3913 20.4597 51.3913C20.9741 51.3913 21.6307 51.457 21.9371 51.5445C22.2326 51.621 22.747 51.8179 23.0534 51.971C23.3708 52.1351 23.8961 52.5288 24.2025 52.846C24.5199 53.1523 25.0233 53.6773 25.3297 53.9945C25.6471 54.3335 26.1286 54.7054 26.4788 54.8695C26.9822 55.0992 27.2339 55.1539 28.0109 55.1539C28.7989 55.1539 29.0287 55.1101 29.5431 54.8585C29.8714 54.6945 30.2216 54.4976 30.3091 54.421C30.3967 54.3554 30.7907 53.9289 31.1846 53.4914C31.5786 53.0429 32.1915 52.4851 32.5526 52.2445C32.9138 52.0148 33.5485 51.7085 33.9753 51.5882C34.5882 51.4023 34.9384 51.3695 35.7263 51.4132C36.4595 51.446 36.952 51.5554 37.6634 51.807C38.3419 52.0585 38.8234 52.157 39.283 52.157C39.6661 52.157 40.2023 52.0585 40.5635 51.9382C40.9137 51.8179 41.4171 51.5226 41.6907 51.2929C41.9643 51.0632 42.3473 50.6148 42.5333 50.2867C42.796 49.8601 42.9492 49.4007 43.0805 48.657C43.2009 48.0007 43.3979 47.3335 43.6386 46.8523C43.8685 46.382 44.2515 45.846 44.6345 45.4742C45.0066 45.0914 45.5429 44.7085 46.0135 44.4788C46.495 44.2382 47.1625 44.0414 47.8192 43.921C48.5634 43.7898 49.023 43.6367 49.4498 43.3742C49.7781 43.1882 50.2268 42.8054 50.4566 42.532C50.6864 42.2585 50.9819 41.7554 51.1023 41.4054C51.2227 41.0445 51.3212 40.5085 51.3212 40.1257C51.3212 39.6554 51.2227 39.207 50.9819 38.5617C50.7193 37.8835 50.6317 37.4132 50.5879 36.6257C50.5332 35.7726 50.5661 35.4554 50.7521 34.821C50.8725 34.3945 51.1789 33.7601 51.4087 33.3992C51.6495 33.0382 52.2076 32.4257 52.6563 32.032C53.0941 31.6382 53.5209 31.2445 53.5865 31.157C53.6632 31.0695 53.8601 30.7195 54.0243 30.3913C54.276 29.8773 54.3198 29.6476 54.3198 28.8601C54.3198 28.0726 54.276 27.8429 54.0243 27.3289C53.8601 27.0007 53.6632 26.6507 53.5865 26.5632C53.5209 26.4757 53.0941 26.082 52.6563 25.6882C52.2076 25.2945 51.6495 24.682 51.4087 24.321C51.1789 23.9601 50.8725 23.3148 50.7521 22.8992C50.5661 22.2648 50.5332 21.9476 50.5879 21.0945C50.6317 20.307 50.7193 19.8367 50.9819 19.1476C51.2227 18.5132 51.3212 18.0648 51.3212 17.5945C51.3212 17.2117 51.2227 16.6757 51.1023 16.3038C50.9819 15.9648 50.6864 15.4617 50.4566 15.1882C50.2268 14.9148 49.7781 14.532 49.4498 14.346C49.023 14.0835 48.5634 13.9304 47.8192 13.7992C47.1625 13.6789 46.495 13.482 46.0135 13.2413C45.5429 13.0117 45.0066 12.6289 44.6345 12.246C44.2515 11.8742 43.8685 11.3382 43.6386 10.8679C43.3979 10.3867 43.2009 9.71949 43.0805 9.06323C42.9492 8.31948 42.796 7.86011 42.5333 7.43355C42.3473 7.10542 41.9643 6.65699 41.6907 6.4273C41.4171 6.19761 40.9137 5.9023 40.5635 5.78199C40.2023 5.66167 39.6661 5.56323 39.283 5.56323C38.8234 5.56323 38.3419 5.66167 37.6634 5.91323C36.952 6.1648 36.4595 6.27417 35.7263 6.30699C34.9384 6.35073 34.5882 6.31792 33.9753 6.13198C33.5485 6.01167 32.9138 5.70542 32.5526 5.47573C32.1915 5.23511 31.5786 4.6773 31.1846 4.22886C30.7907 3.79136 30.3967 3.3648 30.3091 3.29917C30.2216 3.22261 29.8933 3.03667 29.5978 2.89448C29.2695 2.73042 28.777 2.59917 28.3393 2.56636C27.9453 2.53355 27.4528 2.54448 27.2449 2.59917C27.0369 2.64292 26.643 2.78511 26.3694 2.91636Z" fill="#FF712C"/>
<path fill-rule="evenodd" clip-rule="evenodd" d="M7.18487 29.7349C7.31619 29.7349 7.52413 29.7786 7.64451 29.8442C7.76489 29.9099 7.90716 30.1395 7.96188 30.3692C8.0166 30.588 8.0932 31.0911 8.13698 31.4849C8.18075 31.8786 8.35585 32.8083 8.5419 33.563C8.717 34.3177 8.99059 35.2692 9.1438 35.6958C9.29702 36.1224 9.70194 37.0302 10.0412 37.7192C10.3914 38.4083 10.9276 39.3708 11.256 39.852C11.5733 40.3333 12.1205 41.0661 12.4598 41.4927C12.81 41.9192 13.5979 42.7505 14.2217 43.352C14.8455 43.9536 15.7757 44.7411 16.2901 45.113C16.8044 45.4739 17.6143 45.988 18.0958 46.2614C18.5773 46.5349 19.2668 46.8958 19.6279 47.0599C19.9891 47.2239 20.7551 47.5302 21.3242 47.727C21.8933 47.9349 22.7579 48.1973 23.2394 48.3177C23.7209 48.438 24.6402 48.613 25.2968 48.7005C25.9425 48.7989 27.1573 48.8755 27.9999 48.8755C28.8426 48.8755 30.0574 48.7989 30.714 48.7005C31.3597 48.613 32.2789 48.438 32.7605 48.3177C33.242 48.1973 34.1066 47.9349 34.6756 47.727C35.2447 47.5302 36.0108 47.2239 36.3719 47.0599C36.7331 46.8958 37.4225 46.5349 37.904 46.2614C38.3856 45.988 39.1954 45.4739 39.7098 45.113C40.2241 44.7411 41.1543 43.9536 41.7781 43.352C42.4019 42.7505 43.1899 41.9192 43.5401 41.4927C43.8793 41.0661 44.4046 40.3552 44.7111 39.9067C45.0175 39.4583 45.5209 38.5942 45.8273 37.9927C46.1338 37.3911 46.5387 36.5052 46.7247 36.0239C46.9108 35.5427 47.2062 34.5802 47.3813 33.8911C47.5674 33.202 47.7863 32.1083 47.8738 31.452C47.9504 30.8067 48.0708 30.1833 48.1365 30.063C48.2021 29.9427 48.3772 29.8114 48.5523 29.7786C48.7165 29.7349 48.9682 29.7458 49.1214 29.8005C49.2746 29.8552 49.4497 30.0302 49.5263 30.1724C49.6248 30.3911 49.6248 30.6974 49.5044 31.5942C49.4169 32.2286 49.2527 33.1911 49.1324 33.727C49.012 34.263 48.7384 35.2255 48.5195 35.8599C48.3006 36.4942 47.83 37.5989 47.4798 38.3208C47.1296 39.0427 46.5058 40.1474 46.079 40.7817C45.6632 41.4161 44.9299 42.4005 44.4484 42.9692C43.9669 43.538 43.2993 44.2599 42.971 44.5552C42.6427 44.8614 42.0298 45.3755 41.614 45.7145C41.1981 46.0536 40.443 46.6114 39.9286 46.9505C39.4143 47.3005 38.309 47.913 37.4663 48.3286C36.6236 48.7333 35.4636 49.2255 34.8945 49.4114C34.3254 49.5974 33.439 49.838 32.9246 49.9583C32.4103 50.0786 31.4363 50.2536 30.7687 50.3411C30.0902 50.4395 28.8426 50.5161 27.9999 50.5161C27.1573 50.5161 25.9097 50.4395 25.2421 50.3411C24.5636 50.2536 23.5896 50.0786 23.0752 49.9583C22.5609 49.838 21.6744 49.5974 21.1053 49.4114C20.5363 49.2255 19.3762 48.7333 18.5336 48.3286C17.6909 47.913 16.5856 47.3005 16.0712 46.9505C15.5569 46.6114 14.8017 46.0536 14.3859 45.7145C13.97 45.3755 13.3572 44.8614 13.0288 44.5552C12.7005 44.2599 12.033 43.538 11.5514 42.9692C11.0699 42.4005 10.3367 41.4161 9.92081 40.7817C9.494 40.1474 8.87021 39.0427 8.52001 38.3208C8.16981 37.5989 7.69923 36.4942 7.48035 35.8599C7.26147 35.2255 6.98788 34.263 6.8675 33.727C6.74712 33.1911 6.58296 32.2286 6.50635 31.6052C6.40786 30.8395 6.39692 30.3911 6.47352 30.2161C6.52824 30.0849 6.65957 29.9208 6.75806 29.8552C6.85656 29.7895 7.0426 29.7349 7.18487 29.7349ZM27.9999 13.0661C28.2735 13.0989 28.6456 13.1864 28.8207 13.2739C28.9958 13.3614 29.3351 13.613 29.5649 13.8427C29.7947 14.0724 30.1449 14.5755 30.3309 14.9692C30.6593 15.6255 30.6812 15.7567 30.6812 17.977L29.9917 19.6177C29.6196 20.5255 29.3132 21.3239 29.3132 21.4005C29.3132 21.4989 30.5389 21.5427 40.64 21.5864L41.0777 21.8817C41.3185 22.0349 41.6578 22.3849 41.8438 22.6474C42.1393 23.0849 42.1721 23.1942 42.2049 24.3208C42.2378 25.2286 42.2049 25.6333 42.0736 25.9614C41.9861 26.202 41.7562 26.5411 41.5811 26.727C41.2528 27.0442 41.2528 27.0661 41.4279 27.3833C41.5374 27.5802 41.6249 28.0724 41.6578 28.5864C41.6796 29.0677 41.6578 29.713 41.5811 30.0083C41.5045 30.3911 41.3294 30.7192 41.0011 31.0911C40.5415 31.6052 40.5305 31.627 40.6619 32.0208C40.7385 32.2395 40.8041 32.863 40.8041 33.3989C40.8041 34.1645 40.7494 34.4927 40.5743 34.8755C40.443 35.1489 40.1475 35.5427 39.9067 35.7505C39.5237 36.0895 39.4799 36.1661 39.5894 36.3849C39.655 36.5161 39.7098 37.1286 39.7098 37.752C39.7098 38.5833 39.655 38.977 39.5128 39.3052C39.4033 39.5458 39.0969 39.9286 38.8233 40.1474C38.5607 40.377 38.1448 40.6177 37.904 40.6833C37.6086 40.7599 35.9889 40.7817 32.9246 40.7489C29.1928 40.7161 28.1969 40.6724 27.3433 40.5192C26.7742 40.4099 25.1983 39.9614 23.8413 39.513C22.4843 39.0755 21.3352 38.7036 21.2695 38.7036C21.2148 38.7036 21.0616 38.8895 20.9302 39.1192C20.7989 39.3489 20.5363 39.6005 20.2955 39.7208C19.9672 39.8739 19.5732 39.9067 17.7456 39.9067C15.6663 39.9177 15.5678 39.9067 15.2067 39.6661C14.9987 39.5239 14.7251 39.2724 14.6047 39.1083C14.3749 38.802 14.3749 38.7364 14.3749 30.9599C14.3749 23.2817 14.3749 23.1067 14.5938 22.7349C14.7251 22.5052 15.0097 22.2536 15.3051 22.1005C15.7648 21.8708 15.9399 21.8599 17.7128 21.8599C19.026 21.8708 19.7483 21.9145 20.011 22.013C20.2189 22.0895 20.4706 22.188 20.5582 22.2317C20.6895 22.2864 21.2695 21.4114 23.0643 18.4474C24.3556 16.3255 25.5376 14.3895 25.7017 14.1489C25.8659 13.9083 26.1833 13.5911 26.424 13.438C26.6538 13.2958 27.004 13.1427 27.1791 13.088C27.3652 13.0442 27.7263 13.0333 27.9999 13.0661ZM24.3885 19.4536C22.9877 21.7724 21.7073 23.8505 21.5322 24.0802C21.2257 24.463 21.2148 24.5286 21.2148 25.6333C21.2148 26.2677 21.171 26.8692 21.1163 26.9786C21.0725 27.077 20.8865 27.2302 20.7114 27.3067C20.4487 27.427 20.3393 27.427 20.1204 27.3177C19.9672 27.2411 19.7921 27.1099 19.7155 27.0114C19.6279 26.8911 19.5842 26.3114 19.5732 25.1739V23.5005H15.9618V38.2661H19.5732C19.5732 31.6599 19.6061 29.6583 19.6608 29.5599C19.7045 29.4614 19.8687 29.3083 20.0438 29.2317C20.2298 29.1333 20.4487 29.1114 20.6348 29.1661C20.788 29.2099 20.985 29.3411 21.0725 29.4614C21.182 29.6364 21.2148 30.4349 21.2148 33.2895V36.8989C25.0779 38.2114 26.5444 38.6599 26.9603 38.7474C27.3871 38.8458 28.1094 38.9661 28.5799 39.0317C29.0396 39.0864 31.2283 39.1411 33.4499 39.1411C37.324 39.152 37.4772 39.1411 37.7727 38.9224C38.0573 38.7145 38.0682 38.6599 38.0682 37.8067C38.0682 37.1942 38.0244 36.8333 37.915 36.6802C37.7727 36.4724 37.5976 36.4614 35.4417 36.4067C33.1326 36.352 33.1216 36.352 32.9137 36.0786C32.7933 35.9255 32.6948 35.6739 32.7057 35.5099C32.7057 35.3349 32.8042 35.1052 32.9246 34.9849C33.1326 34.777 33.2858 34.7661 35.6934 34.7661C37.1161 34.7661 38.3856 34.7224 38.5935 34.6567C38.7795 34.602 38.9984 34.4489 39.0531 34.3286C39.1188 34.2083 39.1626 33.7708 39.1626 33.3442C39.1626 32.9177 39.1297 32.502 39.086 32.4036C39.0312 32.3052 38.8671 32.152 38.7029 32.0755C38.4731 31.9552 37.7618 31.9224 35.77 31.9224C33.2858 31.9224 33.1326 31.9114 32.9246 31.7036C32.7933 31.5724 32.7057 31.3317 32.7057 31.1349C32.6948 30.9052 32.7824 30.6974 32.9356 30.5552C33.1544 30.3474 33.3624 30.3364 36.3938 30.2817L39.6222 30.227C40.0052 29.7349 40.049 29.5161 40.0381 28.8927C40.0381 28.1927 40.0052 28.0614 39.7645 27.8208L39.4909 27.5474C33.4609 27.5583 33.2967 27.5474 33.0122 27.3286C32.7824 27.1755 32.7057 27.0114 32.7057 26.7599C32.7057 26.5302 32.7933 26.3114 32.9465 26.1583C33.1982 25.9177 33.231 25.9067 36.6236 25.9067H40.049C40.5524 25.3927 40.5853 25.2614 40.5853 24.5177C40.5853 23.7739 40.5634 23.6317 40.3445 23.4239L40.0928 23.1833C27.8686 23.1177 27.6826 23.1067 27.4637 22.8989C27.3214 22.7677 27.2229 22.5489 27.2339 22.352C27.2339 22.1661 27.6497 20.9958 28.1641 19.727C28.963 17.7583 29.0943 17.3427 29.0943 16.8067C29.0943 16.413 29.0177 15.9974 28.8754 15.713C28.766 15.4505 28.5471 15.1333 28.4158 15.002C28.2735 14.8708 28.0328 14.7395 27.8795 14.6958C27.6607 14.6411 27.5184 14.6958 27.2557 14.9364C27.0697 15.1005 25.7783 17.1349 24.3885 19.4536ZM27.8905 7.21455C29.0396 7.20362 30.0464 7.26924 31.0095 7.41143C31.7974 7.53174 32.7495 7.70674 33.1435 7.80518C33.5375 7.90362 34.3254 8.1333 34.8945 8.31924C35.4636 8.49424 36.6236 8.98643 37.4663 9.39112C38.309 9.80674 39.4143 10.4192 39.9286 10.7692C40.443 11.1083 41.1981 11.6661 41.6249 12.0052C42.0408 12.3442 42.6974 12.913 43.0914 13.2739C43.4744 13.6349 44.1748 14.4005 44.6345 14.9692C45.0941 15.538 45.7836 16.4786 46.1666 17.0474C46.5387 17.6161 47.1296 18.677 47.4798 19.3989C47.83 20.1208 48.2787 21.1599 48.4648 21.6958C48.6508 22.2427 48.9354 23.1942 49.0776 23.8286C49.2308 24.463 49.4169 25.4692 49.4935 26.0708C49.581 26.738 49.6029 27.2849 49.5482 27.4708C49.4935 27.6349 49.3512 27.8208 49.2308 27.8755C49.1105 27.9411 48.9025 27.9849 48.7712 27.9849C48.6289 27.9849 48.4101 27.8755 48.2787 27.7442C48.0817 27.5474 48.0051 27.252 47.8738 26.2895C47.7863 25.6333 47.5564 24.4958 47.3704 23.7739C47.1844 23.052 46.8998 22.1442 46.7466 21.7505C46.5934 21.3567 46.2432 20.5692 45.9696 20.0005C45.6851 19.4317 45.1707 18.5239 44.8096 17.977C44.4594 17.4411 43.8793 16.6536 43.5401 16.227C43.1899 15.8114 42.4019 14.9692 41.7781 14.3677C41.1543 13.7661 40.2241 12.9786 39.7098 12.6067C39.1954 12.2458 38.3856 11.7208 37.904 11.4474C37.4225 11.1739 36.7331 10.813 36.3719 10.6489C36.0108 10.4958 35.3213 10.2114 34.8398 10.0364C34.3583 9.86143 33.4937 9.59893 32.9246 9.4458C32.3555 9.30362 31.3597 9.10674 30.714 9.01924C30.0574 8.9208 28.8426 8.84424 27.9999 8.84424C27.1573 8.84424 25.9425 8.9208 25.2968 9.01924C24.6402 9.10674 23.7209 9.28174 23.2394 9.40205C22.7579 9.52237 21.9699 9.76299 21.4884 9.92705C21.0069 10.102 20.2955 10.3755 19.9015 10.5395C19.5076 10.7036 18.7524 11.0864 18.2052 11.3927C17.669 11.6989 16.8044 12.2458 16.2901 12.6067C15.7757 12.9786 14.8455 13.7661 14.2217 14.3677C13.5979 14.9692 12.81 15.8114 12.4598 16.227C12.1205 16.6536 11.5952 17.3645 11.2888 17.813C10.9933 18.2614 10.5227 19.0489 10.2491 19.563C9.97553 20.077 9.57061 20.9411 9.36268 21.477C9.1438 22.0239 8.81549 23.052 8.62945 23.7739C8.4434 24.4958 8.21358 25.6333 8.12603 26.2895C8.03848 26.9567 7.90716 27.5692 7.83055 27.6567C7.75394 27.7442 7.65545 27.8536 7.58979 27.8974C7.53507 27.9411 7.35997 27.9849 7.20676 27.9849C7.05354 27.9958 6.82372 27.9083 6.6924 27.7989C6.56107 27.6895 6.44069 27.4817 6.4188 27.3286C6.40786 27.1755 6.42975 26.6833 6.47352 26.2349C6.52824 25.7864 6.6924 24.8458 6.84561 24.1567C6.99882 23.4677 7.29431 22.4067 7.50224 21.8052C7.71017 21.2036 8.16981 20.1208 8.52001 19.3989C8.87021 18.677 9.46117 17.6161 9.83326 17.0474C10.2163 16.4786 10.9276 15.5161 11.4201 14.9145C11.9126 14.313 12.613 13.5474 12.9741 13.2192C13.3243 12.8911 13.9591 12.3442 14.3859 12.0052C14.8017 11.6661 15.5569 11.1083 16.0712 10.7692C16.5856 10.4192 17.6909 9.80674 18.5336 9.39112C19.3762 8.98643 20.5363 8.49424 21.1053 8.3083C21.6744 8.12237 22.4952 7.89268 22.9111 7.79424C23.3379 7.6958 24.2462 7.5208 24.9357 7.42237C25.7017 7.30205 26.8508 7.21455 27.8905 7.21455Z" fill="#FF712C"/>
</g>
<defs>
<clipPath id="clip0_2_1389">
<rect width="56" height="56" fill="white" transform="translate(0 0.860107)"/>
</clipPath>
</defs>
</svg>
