<svg width="53" height="53" viewBox="0 0 53 53" fill="none" xmlns="http://www.w3.org/2000/svg">
<path d="M2.64795 27.3997V38.1396C2.64795 38.7093 2.87425 39.2556 3.27708 39.6585C3.6799 40.0613 4.22624 40.2876 4.79592 40.2876H6.9439C6.9439 41.9966 7.62281 43.6356 8.83128 44.8441C10.0397 46.0526 11.6788 46.7315 13.3878 46.7315C15.0969 46.7315 16.7359 46.0526 17.9444 44.8441C19.1528 43.6356 19.8317 41.9966 19.8317 40.2876H32.7196C32.7196 41.9966 33.3985 43.6356 34.607 44.8441C35.8154 46.0526 37.4545 46.7315 39.1635 46.7315C40.8725 46.7315 42.5116 46.0526 43.72 44.8441C44.9285 43.6356 45.6074 41.9966 45.6074 40.2876H47.7554C48.3251 40.2876 48.8714 40.0613 49.2742 39.6585C49.6771 39.2556 49.9034 38.7093 49.9034 38.1396V12.3639C49.9034 10.6549 49.2245 9.01583 48.016 7.80736C46.8075 6.59889 45.1685 5.91998 43.4594 5.91998H24.1277C22.4187 5.91998 20.7796 6.59889 19.5711 7.80736C18.3627 9.01583 17.6838 10.6549 17.6838 12.3639V16.6599H13.3878C12.3874 16.6599 11.4008 16.8928 10.506 17.3402C9.61124 17.7876 8.83291 18.4371 8.23268 19.2374L3.07754 26.1109C3.01472 26.2043 2.96418 26.3054 2.92719 26.4117L2.79831 26.6479C2.70351 26.8875 2.65258 27.1421 2.64795 27.3997ZM37.0155 40.2876C37.0155 39.8627 37.1415 39.4475 37.3775 39.0942C37.6135 38.741 37.949 38.4657 38.3415 38.3031C38.734 38.1405 39.1659 38.098 39.5826 38.1809C39.9992 38.2638 40.382 38.4683 40.6824 38.7687C40.9827 39.0691 41.1873 39.4519 41.2702 39.8685C41.3531 40.2852 41.3105 40.7171 41.148 41.1096C40.9854 41.5021 40.7101 41.8375 40.3569 42.0736C40.0036 42.3096 39.5883 42.4355 39.1635 42.4355C38.5938 42.4355 38.0475 42.2092 37.6447 41.8064C37.2418 41.4036 37.0155 40.8573 37.0155 40.2876ZM21.9797 12.3639C21.9797 11.7942 22.206 11.2479 22.6088 10.8451C23.0117 10.4422 23.558 10.2159 24.1277 10.2159H43.4594C44.0291 10.2159 44.5755 10.4422 44.9783 10.8451C45.3811 11.2479 45.6074 11.7942 45.6074 12.3639V35.9916H43.932C43.328 35.3271 42.5919 34.7962 41.7707 34.4329C40.9495 34.0696 40.0615 33.8819 39.1635 33.8819C38.2655 33.8819 37.3775 34.0696 36.5563 34.4329C35.7352 34.7962 34.999 35.3271 34.395 35.9916H21.9797V12.3639ZM17.6838 25.2518H9.09187L11.6694 21.815C11.8695 21.5482 12.129 21.3317 12.4272 21.1826C12.7255 21.0334 13.0544 20.9558 13.3878 20.9558H17.6838V25.2518ZM11.2398 40.2876C11.2398 39.8627 11.3658 39.4475 11.6018 39.0942C11.8379 38.741 12.1733 38.4657 12.5658 38.3031C12.9583 38.1405 13.3902 38.098 13.8069 38.1809C14.2235 38.2638 14.6063 38.4683 14.9067 38.7687C15.2071 39.0691 15.4116 39.4519 15.4945 39.8685C15.5774 40.2852 15.5349 40.7171 15.3723 41.1096C15.2097 41.5021 14.9344 41.8375 14.5812 42.0736C14.2279 42.3096 13.8126 42.4355 13.3878 42.4355C12.8181 42.4355 12.2718 42.2092 11.869 41.8064C11.4661 41.4036 11.2398 40.8573 11.2398 40.2876ZM6.9439 29.5477H17.6838V35.5191C16.4161 34.3861 14.7521 33.8001 13.0542 33.8886C11.3564 33.9771 9.7623 34.733 8.61932 35.9916H6.9439V29.5477Z" fill="#FF712C"/>
</svg>
