<svg width="53" height="53" viewBox="0 0 53 53" fill="none" xmlns="http://www.w3.org/2000/svg">
<path d="M47.1325 16.4022L36.1993 5.46904C35.7968 5.06898 35.2524 4.84442 34.685 4.84442C34.1175 4.84442 33.5731 5.06898 33.1707 5.46904C32.9693 5.66872 32.8095 5.90629 32.7005 6.16804C32.5914 6.42979 32.5353 6.71054 32.5353 6.9941C32.5353 7.27766 32.5914 7.55841 32.7005 7.82016C32.8095 8.08191 32.9693 8.31948 33.1707 8.51916L37.0155 12.45L25.3735 24.1779L23.2255 22.0299C22.6269 21.4292 21.9155 20.9525 21.1322 20.6273C20.349 20.302 19.5092 20.1346 18.6611 20.1346C17.813 20.1346 16.9732 20.302 16.1899 20.6273C15.4067 20.9525 14.6953 21.4292 14.0966 22.0299L6.68613 29.376C6.08503 29.9764 5.60856 30.6896 5.28417 31.4748C4.95977 32.26 4.79384 33.1016 4.79592 33.9512V41.3617C4.79592 43.0707 5.47483 44.7098 6.6833 45.9182C7.89177 47.1267 9.53081 47.8056 11.2398 47.8056H18.6503C19.4999 47.8077 20.3415 47.6418 21.1267 47.3174C21.9119 46.993 22.6252 46.5165 23.2255 45.9154L30.5716 38.5478C31.1723 37.9492 31.649 37.2378 31.9742 36.4545C32.2995 35.6713 32.4669 34.8315 32.4669 33.9834C32.4669 33.1353 32.2995 32.2955 31.9742 31.5123C31.649 30.729 31.1723 30.0176 30.5716 29.419L28.4236 27.271L40.1516 15.586L44.0824 19.5168C44.282 19.7181 44.5196 19.8779 44.7814 19.987C45.0431 20.096 45.3239 20.1522 45.6074 20.1522C45.891 20.1522 46.1717 20.096 46.4335 19.987C46.6952 19.8779 46.9328 19.7181 47.1325 19.5168C47.3437 19.3161 47.5119 19.0746 47.6268 18.8069C47.7418 18.5392 47.801 18.2509 47.801 17.9595C47.801 17.6682 47.7418 17.3799 47.6268 17.1122C47.5119 16.8444 47.3437 16.6029 47.1325 16.4022ZM27.5644 35.4977L20.1754 42.8868C19.9747 43.0858 19.7367 43.2433 19.475 43.3502C19.2133 43.4571 18.933 43.5113 18.6503 43.5097H11.2398C10.6702 43.5097 10.1238 43.2834 9.72099 42.8805C9.31817 42.4777 9.09187 41.9314 9.09187 41.3617V33.9512C9.09023 33.6685 9.14441 33.3883 9.25131 33.1266C9.3582 32.8649 9.5157 32.6268 9.71478 32.4261L17.1038 25.0371C17.5063 24.637 18.0507 24.4125 18.6181 24.4125C19.1856 24.4125 19.73 24.637 20.1325 25.0371L22.2804 27.1851L20.3687 29.1182C19.9687 29.5207 19.7441 30.0651 19.7441 30.6326C19.7441 31.2 19.9687 31.7444 20.3687 32.1469C20.5795 32.3566 20.8315 32.5202 21.1088 32.6274C21.3862 32.7346 21.6827 32.7831 21.9797 32.7698C22.5432 32.7674 23.0832 32.5437 23.4833 32.1469L25.4165 30.2352L27.5644 32.3832C27.7757 32.5838 27.9439 32.8254 28.0588 33.0931C28.1737 33.3608 28.233 33.6491 28.233 33.9404C28.233 34.2318 28.1737 34.5201 28.0588 34.7878C27.9439 35.0555 27.7757 35.2971 27.5644 35.4977Z" fill="#FF712C"/>
</svg>
