<svg width="32" height="32" viewBox="0 0 32 32" fill="none" xmlns="http://www.w3.org/2000/svg">
<rect width="32" height="32" rx="16" fill="#FF0000"/>
<path d="M21.8438 10.5156C20.9271 10.4635 19.9792 10.4167 19 10.375C18.0208 10.3438 17.0312 10.3255 16.0312 10.3203C15.0312 10.3151 14.0365 10.3281 13.0469 10.3594C12.0573 10.3906 11.0938 10.4427 10.1562 10.5156C9.58333 10.5885 9.11458 10.9062 8.75 11.4688C8.38542 12.0312 8.18229 12.5833 8.14062 13.125C8.04688 14.2396 8 15.1953 8 15.9922C8 16.7891 8.04688 17.7448 8.14062 18.8594C8.18229 19.401 8.38281 19.9557 8.74219 20.5234C9.10156 21.0911 9.57812 21.4115 10.1719 21.4844C11.1094 21.5469 12.0729 21.5938 13.0625 21.625C14.0521 21.6667 15.0469 21.6875 16.0469 21.6875C17.0469 21.6875 18.0365 21.6719 19.0156 21.6406C19.9948 21.6094 20.9375 21.5573 21.8438 21.4844C22.4062 21.3906 22.8724 21.0651 23.2422 20.5078C23.612 19.9505 23.8177 19.401 23.8594 18.8594C23.9115 18.3073 23.9479 17.7917 23.9688 17.3125C23.9896 16.8438 24 16.3802 24 15.9219C24 15.4635 23.9896 15 23.9688 14.5312C23.9479 14.0521 23.9115 13.5365 23.8594 12.9844C23.8177 12.4531 23.6328 11.9167 23.3047 11.375C22.9766 10.8333 22.4896 10.5469 21.8438 10.5156ZM14 18.8281V13.0938L19 15.9688L14 18.8281Z" fill="white"/>
</svg>
