<svg xmlns="http://www.w3.org/2000/svg" width="25" height="25" viewBox="0 0 25 25" fill="none">
  <g opacity="0.4">
    <path fill-rule="evenodd" clip-rule="evenodd" d="M10.0996 8.51972C10.3925 8.22683 10.8673 8.22683 11.1602 8.51972L14.6602 12.0197C14.9531 12.3126 14.9531 12.7874 14.6602 13.0803L12.9102 14.8303C12.6173 15.1232 12.1425 15.1232 11.8496 14.8303C11.5567 14.5374 11.5567 14.0626 11.8496 13.7697L13.0692 12.55L10.0996 9.58038C9.80666 9.28749 9.80666 8.81261 10.0996 8.51972ZM11.5977 15.0822C11.8906 15.3751 11.8906 15.8499 11.5977 16.1428L11.1602 16.5803C10.8673 16.8732 10.3925 16.8732 10.0996 16.5803C9.80666 16.2874 9.80666 15.8126 10.0996 15.5197L10.5371 15.0822C10.83 14.7893 11.3048 14.7893 11.5977 15.0822Z" fill="black"/>
  </g>
</svg>