<svg width="53" height="53" viewBox="0 0 53 53" fill="none" xmlns="http://www.w3.org/2000/svg">
<path d="M37.2086 6.60721C35.2331 4.98245 32.9198 3.81921 30.4375 3.20234C27.9552 2.58547 25.3664 2.53055 22.8602 3.04158C19.523 3.71566 16.4613 5.36584 14.0635 7.78276C11.6658 10.1997 10.0399 13.2744 9.39239 16.6168C8.9195 19.1229 9.00543 21.7024 9.64405 24.1715C10.2827 26.6405 11.4582 28.9383 13.0869 30.9008C14.5984 32.6064 15.4648 34.7876 15.5356 37.0655V43.5094C15.5356 45.2184 16.2145 46.8575 17.423 48.066C18.6314 49.2744 20.2705 49.9533 21.9795 49.9533H30.5714C32.2804 49.9533 33.9195 49.2744 35.128 48.066C36.3364 46.8575 37.0153 45.2184 37.0153 43.5094V37.4736C37.0874 34.9587 38.0114 32.5428 39.6359 30.6216C42.4822 27.1006 43.8239 22.5985 43.3694 18.0938C42.9149 13.5891 40.7009 9.44573 37.2086 6.56425V6.60721ZM32.7194 43.5094C32.7194 44.0791 32.4931 44.6254 32.0903 45.0283C31.6874 45.4311 31.1411 45.6574 30.5714 45.6574H21.9795C21.4098 45.6574 20.8635 45.4311 20.4607 45.0283C20.0578 44.6254 19.8315 44.0791 19.8315 43.5094V41.3614H32.7194V43.5094ZM36.3065 27.9581C34.1467 30.5198 32.8866 33.719 32.7194 37.0655H28.4234V30.6216C28.4234 30.0519 28.1971 29.5055 27.7943 29.1027C27.3915 28.6999 26.8451 28.4736 26.2755 28.4736C25.7058 28.4736 25.1594 28.6999 24.7566 29.1027C24.3538 29.5055 24.1275 30.0519 24.1275 30.6216V37.0655H19.8315C19.7749 33.775 18.5577 30.6103 16.3948 28.1299C14.9678 26.4201 14.0082 24.3697 13.6095 22.1786C13.2109 19.9875 13.3869 17.7305 14.1203 15.6277C14.8537 13.5249 16.1195 11.648 17.7942 10.18C19.469 8.71203 21.4956 7.70311 23.6764 7.2516C25.5506 6.86571 27.4873 6.90201 29.3457 7.35786C31.2042 7.81372 32.9378 8.6777 34.4207 9.88707C35.9036 11.0964 37.0986 12.6209 37.9189 14.3496C38.7393 16.0784 39.1643 17.9682 39.1633 19.8817C39.1792 22.8241 38.169 25.6801 36.3065 27.9581Z" fill="#FF712C"/>
</svg>
