<svg width="53" height="53" viewBox="0 0 53 53" fill="none" xmlns="http://www.w3.org/2000/svg">
<path d="M46.2518 22.4217C45.6482 21.6971 44.893 21.1137 44.0394 20.7129C43.1857 20.3121 42.2545 20.1035 41.3115 20.1019H31.5167L32.7196 17.0303C33.2199 15.6854 33.3865 14.2392 33.2051 12.8158C33.0238 11.3923 32.4998 10.0342 31.6782 8.85773C30.8566 7.68129 29.7619 6.72172 28.4879 6.06131C27.214 5.40091 25.7989 5.0594 24.3639 5.06607C23.9508 5.06693 23.5466 5.18694 23.1999 5.41172C22.8532 5.6365 22.5787 5.95651 22.4093 6.33337L16.2876 20.1019H11.2398C9.53079 20.1019 7.89175 20.7808 6.68328 21.9893C5.47481 23.1977 4.7959 24.8368 4.7959 26.5458V41.5816C4.7959 43.2906 5.47481 44.9297 6.68328 46.1381C7.89175 47.3466 9.53079 48.0255 11.2398 48.0255H38.5835C40.091 48.025 41.5506 47.496 42.7083 46.5306C43.8661 45.5651 44.6487 44.2244 44.92 42.7415L47.648 27.7057C47.8167 26.7764 47.7791 25.8215 47.5378 24.9083C47.2966 23.9952 46.8575 23.1463 46.2518 22.4217ZM15.5358 43.7296H11.2398C10.6701 43.7296 10.1238 43.5033 9.72097 43.1005C9.31815 42.6976 9.09185 42.1513 9.09185 41.5816V26.5458C9.09185 25.9761 9.31815 25.4298 9.72097 25.0269C10.1238 24.6241 10.6701 24.3978 11.2398 24.3978H15.5358V43.7296ZM43.4594 26.9324L40.7315 41.9682C40.64 42.4686 40.3739 42.9203 39.9805 43.2429C39.5872 43.5654 39.0921 43.7379 38.5835 43.7296H19.8317V22.7009L25.6742 9.55534C26.2756 9.73067 26.8341 10.0288 27.3145 10.4308C27.7949 10.8328 28.1867 11.3301 28.4653 11.8912C28.7438 12.4523 28.903 13.0651 28.9328 13.6908C28.9626 14.3165 28.8624 14.9417 28.6384 15.5267L27.5 18.5983C27.2574 19.2475 27.1755 19.9458 27.2613 20.6336C27.3471 21.3213 27.598 21.9781 27.9926 22.5479C28.3872 23.1176 28.9138 23.5834 29.5275 23.9056C30.1411 24.2277 30.8236 24.3966 31.5167 24.3978H41.3115C41.627 24.3973 41.9388 24.4663 42.2247 24.6C42.5105 24.7336 42.7634 24.9286 42.9654 25.1711C43.1723 25.4102 43.3239 25.6921 43.4093 25.9965C43.4947 26.301 43.5118 26.6206 43.4594 26.9324Z" fill="#FF712C"/>
</svg>
