<svg xmlns="http://www.w3.org/2000/svg" width="18" height="18" viewBox="0 0 19 18" fill="none">
  <path d="M16.4625 12.6225L14.91 11.0325C14.576 10.7151 14.1548 10.5047 13.7004 10.4286C13.246 10.3524 12.7792 10.4138 12.36 10.605L11.685 9.93C12.4804 8.86719 12.8437 7.54251 12.7016 6.22262C12.5596 4.90274 11.9229 3.68567 10.9196 2.8164C9.9163 1.94713 8.62093 1.49022 7.29428 1.53764C5.96763 1.58506 4.70818 2.13329 3.76951 3.07197C2.83083 4.01066 2.28259 5.27009 2.23517 6.59675C2.18775 7.9234 2.64466 9.21876 3.51393 10.2221C4.3832 11.2254 5.60028 11.8621 6.92016 12.0042C8.24004 12.1462 9.56472 11.7829 10.6275 10.9875L11.295 11.655C11.0813 12.0747 11.0047 12.5509 11.076 13.0165C11.1474 13.482 11.363 13.9135 11.6925 14.25L13.2825 15.84C13.7044 16.2613 14.2762 16.498 14.8725 16.498C15.4687 16.498 16.0406 16.2613 16.4625 15.84C16.6768 15.6305 16.8471 15.3802 16.9633 15.1039C17.0796 14.8277 17.1395 14.531 17.1395 14.2312C17.1395 13.9315 17.0796 13.6348 16.9633 13.3586C16.8471 13.0823 16.6768 12.832 16.4625 12.6225ZM10.1025 9.4425C9.5777 9.966 8.9095 10.3222 8.18233 10.4661C7.45516 10.6101 6.70164 10.5352 6.01697 10.2511C5.3323 9.96703 4.7472 9.48638 4.33557 8.8699C3.92393 8.25342 3.70424 7.52877 3.70424 6.7875C3.70424 6.04622 3.92393 5.32157 4.33557 4.7051C4.7472 4.08862 5.3323 3.60796 6.01697 3.32386C6.70164 3.03975 7.45516 2.96493 8.18233 3.10886C8.9095 3.25279 9.5777 3.609 10.1025 4.1325C10.4518 4.48084 10.7288 4.89466 10.9178 5.35025C11.1069 5.80583 11.2042 6.29424 11.2042 6.7875C11.2042 7.28075 11.1069 7.76916 10.9178 8.22475C10.7288 8.68034 10.4518 9.09416 10.1025 9.4425ZM15.405 14.745C15.3353 14.8153 15.2523 14.8711 15.1609 14.9092C15.0695 14.9472 14.9715 14.9668 14.8725 14.9668C14.7735 14.9668 14.6755 14.9472 14.5841 14.9092C14.4927 14.8711 14.4097 14.8153 14.34 14.745L12.75 13.155C12.6797 13.0853 12.6239 13.0023 12.5858 12.9109C12.5477 12.8195 12.5281 12.7215 12.5281 12.6225C12.5281 12.5235 12.5477 12.4255 12.5858 12.3341C12.6239 12.2427 12.6797 12.1597 12.75 12.09C12.8197 12.0197 12.9027 11.9639 12.9941 11.9258C13.0855 11.8878 13.1835 11.8681 13.2825 11.8681C13.3815 11.8681 13.4795 11.8878 13.5709 11.9258C13.6623 11.9639 13.7453 12.0197 13.815 12.09L15.405 13.68C15.4753 13.7497 15.5311 13.8327 15.5692 13.9241C15.6072 14.0155 15.6268 14.1135 15.6268 14.2125C15.6268 14.3115 15.6072 14.4095 15.5692 14.5009C15.5311 14.5923 15.4753 14.6753 15.405 14.745Z" fill="#FF712C"/>
</svg>