<svg width="32" height="50" viewBox="0 0 32 50" fill="none" xmlns="http://www.w3.org/2000/svg">
<g clip-path="url(#clip0_3_2224)">
<path fill-rule="evenodd" clip-rule="evenodd" d="M1.2998 7.09614C1.2998 3.73729 4.02269 1.0144 7.38154 1.0144H25.0738C28.4327 1.0144 31.1555 3.73729 31.1555 7.09614V42.4808C31.1555 45.8396 28.4327 48.5625 25.0738 48.5625H7.38154C4.02269 48.5625 1.2998 45.8396 1.2998 42.4808V37.9711C1.2998 37.0551 2.04241 36.3125 2.95846 36.3125C3.87451 36.3125 4.61711 37.0551 4.61711 37.9711V42.4808C4.61711 44.0075 5.85479 45.2452 7.38154 45.2452H25.0738C26.6006 45.2452 27.8382 44.0075 27.8382 42.4808V7.09614C27.8382 5.56939 26.6006 4.33171 25.0738 4.33171H7.38154C5.85479 4.33171 4.61711 5.56939 4.61711 7.09614V29.634C4.61711 30.55 3.87451 31.2926 2.95846 31.2926C2.04241 31.2926 1.2998 30.55 1.2998 29.634V7.09614Z" fill="#FF712C"/>
<path fill-rule="evenodd" clip-rule="evenodd" d="M11.251 40.2692C11.251 39.3531 11.9937 38.6105 12.9097 38.6105H19.5443C20.4604 38.6105 21.203 39.3531 21.203 40.2692C21.203 41.1852 20.4604 41.9278 19.5443 41.9278H12.9097C11.9937 41.9278 11.251 41.1852 11.251 40.2692Z" fill="#FF712C"/>
<path fill-rule="evenodd" clip-rule="evenodd" d="M7.93457 2.67306C7.93457 1.75701 8.67718 1.0144 9.59322 1.0144H22.8624C23.7785 1.0144 24.5211 1.75701 24.5211 2.67306V3.77883C24.5211 7.13767 21.7982 9.86056 18.4393 9.86056H14.0163C10.6575 9.86056 7.93457 7.13767 7.93457 3.77883V2.67306ZM11.3071 4.33171C11.5633 5.59353 12.6789 6.54325 14.0163 6.54325H18.4393C19.7768 6.54325 20.8923 5.59353 21.1485 4.33171H11.3071Z" fill="#FF712C"/>
</g>
<defs>
<clipPath id="clip0_3_2224">
<rect width="31" height="49" fill="white" transform="translate(0.69043 0.25)"/>
</clipPath>
</defs>
</svg>
