<svg width="94" height="94" viewBox="0 0 94 94" fill="none" xmlns="http://www.w3.org/2000/svg">
<g clip-path="url(#clip0_2_1507)">
<path fill-rule="evenodd" clip-rule="evenodd" d="M79.2579 0.668771C80.4194 0.707542 80.9614 0.843239 81.9681 1.32787C82.7231 1.6962 83.5168 2.25837 83.9814 2.76239C84.388 3.22764 84.8913 3.96428 85.0849 4.39076C85.2785 4.81723 87.0982 13.9671 89.2277 25.2882C91.2991 36.3378 93.0027 45.5652 93.0027 45.7785C93.0027 45.9917 92.7897 46.3794 92.5187 46.6508C92.0734 47.116 91.9379 47.1354 87.5822 47.1354L75.9669 62.6437H79.5095C81.4454 62.6437 83.4007 62.5468 83.8459 62.4498C84.3105 62.3335 85.0849 62.0621 85.5882 61.8101C86.0916 61.5775 86.924 60.9959 87.4467 60.5113C88.0662 59.9491 88.6469 59.1349 89.1115 58.1851C89.7891 56.7699 89.8084 56.6924 89.9052 53.8621C90.002 51.0706 90.0214 50.9737 90.486 50.6054C90.757 50.3922 91.2023 50.2177 91.512 50.2371C91.8218 50.2371 92.2477 50.4503 93.0801 51.3033L92.9639 54.2111C92.8865 56.4598 92.7704 57.3903 92.4413 58.282C92.2283 58.9217 91.7056 59.9685 91.2991 60.6082C90.8925 61.2479 90.215 62.1203 89.7891 62.5274C89.3826 62.9539 88.5114 63.6323 87.8726 64.0394C87.2337 64.4465 86.1883 64.9699 85.5495 65.2026C84.4654 65.5903 83.9621 65.629 72.2887 65.7453L71.8047 65.2607C71.5337 64.9893 71.3207 64.5434 71.3207 64.2333C71.3207 63.8456 73.005 61.4612 78.1931 54.5019C82.6844 48.5118 85.0462 45.1969 84.9687 45.003C84.8913 44.848 82.0455 36.9969 78.6384 27.5563C75.2312 18.1156 72.3661 10.1676 72.2693 9.85742C72.1725 9.56664 72.0177 9.33401 71.9015 9.33401C71.7853 9.33401 65.4937 11.8735 57.905 14.9752C50.3357 18.0768 43.8118 20.7714 43.444 20.9652C43.0761 21.1591 42.3405 21.7019 41.8178 22.1478C41.2951 22.613 40.5401 23.4853 40.153 24.0669C39.7658 24.6485 39.2818 25.4433 39.0882 25.8116C38.8946 26.1799 38.1977 28.0021 36.378 33.178L48.5353 33.0811L49.2516 30.9487C49.6388 29.7662 50.2002 28.3511 50.4712 27.7889C50.7616 27.2461 51.536 26.2187 52.2135 25.5208C53.2008 24.4934 54.7689 23.4078 61.1573 19.3757C65.4163 16.7005 69.0751 14.4518 69.2881 14.413C69.501 14.3549 69.9075 14.4518 70.2173 14.6262C70.5077 14.8201 70.8368 15.1884 70.9336 15.4986C71.0884 15.8669 71.0884 16.1771 70.9336 16.5066C70.798 16.8556 68.5718 18.3676 63.3255 21.6825C59.2602 24.2608 55.5626 26.6258 55.1174 26.9553C54.6527 27.2849 54.0139 27.9246 53.7042 28.3898C53.3751 28.8357 52.8137 30.0957 51.7683 33.178L52.5039 33.4106C52.8911 33.5463 53.4719 33.8759 53.7816 34.1473C54.0913 34.4187 54.556 34.9614 54.8076 35.3685C55.0399 35.7562 56.7822 39.9047 62.0285 53.048V59.0574C62.0091 63.264 61.9317 65.2607 61.7768 65.7453C61.6413 66.1137 61.3316 66.6952 61.0605 67.0248C60.7895 67.3543 60.3055 67.8195 59.9958 68.0328C59.6861 68.2654 58.9504 68.5562 57.3823 68.9439V71.9486H58.602C59.2602 71.9486 60.3249 72.0456 60.9637 72.1619C61.6026 72.2782 62.8222 72.7047 63.674 73.1118C64.7774 73.6352 65.5712 74.1973 66.4617 75.0891C67.1392 75.7482 67.9716 76.8337 68.3201 77.4735C68.6686 78.1132 69.1138 79.1212 69.3074 79.7028C69.5784 80.4782 69.6752 81.3311 69.6752 82.8044C69.6752 84.394 69.5784 85.1113 69.2493 86.0999C68.9977 86.7978 68.4556 87.9028 68.0297 88.5812C67.6038 89.2403 66.7908 90.229 66.2487 90.7524C65.6873 91.2952 64.7387 91.9737 64.158 92.2838C63.5772 92.594 62.5124 93.0205 61.7962 93.2531C60.4798 93.6602 60.441 93.6602 9.37234 93.6602L7.8817 93.1756C7.04927 92.9236 5.82966 92.342 5.17146 91.9155C4.4939 91.489 3.5066 90.6749 2.96455 90.1127C2.38379 89.5117 1.68687 88.4649 1.22225 87.5538C0.680203 86.4295 0.409179 85.5378 0.234949 84.3552C0.0607192 83.0758 0.0607192 82.3586 0.234949 81.1567C0.38982 80.0711 0.699562 79.1406 1.22225 78.055C1.66751 77.1633 2.40314 76.0777 2.96455 75.4768C3.5066 74.934 4.4939 74.1198 5.17146 73.6933C5.82966 73.2668 6.8944 72.7434 7.53324 72.5302C8.17209 72.317 8.84965 72.1425 9.04324 72.1425C9.33362 72.1425 9.37234 71.9293 9.37234 68.847H6.72017C5.21018 68.847 3.71955 68.7307 3.27429 68.6144C2.80968 68.4593 2.11276 67.994 1.532 67.3931C0.931868 66.8115 0.467255 66.1137 0.312384 65.6484C0.157514 65.125 0.0800781 62.9539 0.0800781 58.7666C0.0800781 54.5794 0.157514 52.4082 0.312384 51.8848C0.467255 51.4196 0.931868 50.7217 1.532 50.1402C2.11276 49.5392 2.80968 49.074 3.27429 48.9189C3.8357 48.7638 6.95248 48.6863 25.1498 48.6863L26.6792 42.735C27.5116 39.4395 28.3634 36.4153 28.5764 35.9889C28.7893 35.5624 29.1184 34.9614 29.312 34.6513C29.5056 34.3217 30.0476 33.934 30.6865 33.6432C31.2672 33.3912 32.0416 33.178 33.087 33.178L34.4227 29.3397C35.1584 27.2461 36.0876 24.9005 36.4748 24.1638C36.8426 23.4272 37.5589 22.2834 38.0428 21.6437C38.5268 21.004 39.3592 20.1317 39.8819 19.6858C40.4046 19.2593 41.2177 18.6778 41.7017 18.387C42.1856 18.1156 49.1161 15.2272 57.092 11.9511C65.0872 8.67491 71.7079 5.96097 71.8047 5.9222C71.9209 5.88343 72.1532 5.43756 72.3274 4.91416C72.5016 4.41014 73.0243 3.57657 73.4889 3.05317C73.9535 2.52977 74.7085 1.89005 75.1925 1.59927C75.6765 1.32787 76.4508 0.998321 76.9348 0.862624C77.4188 0.726927 78.4642 0.63 79.2579 0.668771ZM75.9281 5.06924C75.5022 5.51511 75.0957 6.19359 74.9796 6.67822C74.8634 7.12409 74.8247 7.66688 74.8828 7.88011C74.9408 8.09335 77.8834 16.3128 81.4261 26.1411L87.8726 44.0338C89.1503 44.0338 89.5181 43.9756 89.5181 43.8787C89.5181 43.8012 87.95 35.3685 86.0335 25.1331C84.1169 14.8976 82.4521 6.27113 82.3553 5.94158C82.2585 5.63142 81.9294 5.1274 81.639 4.83662C81.3293 4.54584 80.7679 4.17752 80.3807 4.02244C79.9741 3.84797 79.3159 3.71227 78.9288 3.71227C78.5222 3.73166 77.8447 3.84797 77.4188 4.00305C76.9929 4.15813 76.3153 4.62338 75.9281 5.06924ZM31.6351 36.8224C31.4027 37.1132 31.1511 37.656 31.0543 38.0243C30.9575 38.3927 30.1831 41.4943 29.3313 44.9061C28.0343 50.1014 27.7052 51.1676 27.3374 51.4584C26.9115 51.7879 26.1565 51.8073 15.5091 51.7879H4.12608L3.1775 52.7572V64.7761L4.14544 65.7453H57.9825L58.9311 64.7761V53.6295C53.7622 40.7189 52.1555 36.9581 51.9038 36.7061L51.4779 36.2603L32.0416 36.2796L31.6351 36.8224ZM12.4698 71.968L40.9273 71.9486C41.721 72.7434 41.8953 73.1505 41.8953 73.4995C41.8953 73.8678 41.721 74.2749 41.4306 74.5657L40.9467 75.0503C16.1673 75.0697 9.7208 75.1472 9.23682 75.2635C8.77221 75.3605 7.99786 75.6318 7.49453 75.8839C6.9912 76.1165 6.08133 76.795 5.50056 77.3765C4.90044 77.9775 4.20352 78.8886 3.95185 79.412C3.70019 79.9548 3.40981 80.9047 3.29365 81.5444C3.15814 82.3586 3.15814 83.0952 3.31301 83.9675C3.42916 84.6654 3.71955 85.6735 3.97121 86.1969C4.22288 86.7203 4.823 87.5926 5.30697 88.116C5.88774 88.7363 6.68145 89.2985 7.63004 89.7638L9.06259 90.4616H60.7895C63.1706 89.2985 63.9837 88.7169 64.5451 88.116C65.0097 87.5926 65.6679 86.6039 65.997 85.9061C66.5004 84.8011 66.5778 84.4522 66.5778 82.9013C66.5778 81.6413 66.481 80.8853 66.1906 80.1292C65.9777 79.5671 65.4937 78.6946 65.1259 78.2101C64.7581 77.7061 64.0418 76.9888 63.5385 76.6205C63.0545 76.2327 62.2221 75.7676 61.6994 75.5543C60.8476 75.2054 60.1507 75.1666 53.2589 75.0697L45.7283 74.9534C45.1475 74.2167 44.9927 73.7515 44.9927 73.4607C44.9927 73.1699 45.2056 72.7047 45.4766 72.4333L45.9413 71.9486H54.2849V68.847H12.4698V71.968Z" fill="white"/>
<path fill-rule="evenodd" clip-rule="evenodd" d="M55.7366 78.1709C56.1625 78.1709 56.8594 78.2679 57.2853 78.3842C57.7499 78.5393 58.4468 79.0045 59.0276 79.6055C59.6277 80.187 60.0923 80.8849 60.2472 81.3501C60.3633 81.7766 60.4795 82.4357 60.4795 82.804C60.4795 83.1724 60.3633 83.8315 60.2472 84.2579C60.0923 84.7232 59.6277 85.4211 59.0276 86.0026C58.4468 86.6036 57.7499 87.0688 57.2853 87.2239C56.8594 87.3402 56.2012 87.4565 55.8334 87.4565C55.4656 87.4565 54.8074 87.3402 54.3815 87.2239C53.9168 87.0688 53.2199 86.6036 52.6392 86.0026C52.039 85.4211 51.5744 84.7232 51.4196 84.2579C51.3034 83.8315 51.1872 83.1724 51.1872 82.804C51.1872 82.4357 51.3034 81.7766 51.4196 81.3501C51.5744 80.8849 52.039 80.187 52.6392 79.6055C53.1618 79.0627 53.9168 78.5199 54.2847 78.4036C54.6525 78.2873 55.3107 78.1903 55.7366 78.1709ZM54.2847 82.804C54.2847 83.1724 54.4589 83.5601 54.7686 83.8702C55.0784 84.1804 55.4656 84.3549 55.8334 84.3549C56.2205 84.3549 56.6077 84.1804 56.8981 83.8702C57.2079 83.5794 57.3821 83.153 57.3821 82.804C57.3821 82.4357 57.2079 82.048 56.8981 81.7378C56.5884 81.4277 56.2012 81.2532 55.8334 81.2532C55.4462 81.2532 55.059 81.4277 54.7686 81.7378C54.4976 82.0092 54.304 82.4357 54.2847 82.804ZM41.7982 78.1709C42.2241 78.1709 42.921 78.2679 43.3275 78.4036C43.7341 78.5199 44.431 78.9464 44.8569 79.3147C45.2828 79.683 45.8442 80.4196 46.0959 80.9624C46.3475 81.5246 46.5411 82.3 46.5411 82.804C46.5411 83.3081 46.3475 84.0835 46.0959 84.6456C45.8442 85.169 45.2828 85.9251 44.8569 86.2934C44.431 86.6617 43.7341 87.0882 43.3275 87.2045C42.921 87.3402 42.2628 87.4565 41.895 87.4565C41.5272 87.4565 40.869 87.3402 40.4624 87.2045C40.0559 87.0882 39.359 86.6617 38.9331 86.2934C38.5072 85.9251 37.9458 85.169 37.6941 84.6456C37.4618 84.1028 37.2489 83.3274 37.2489 82.901C37.2489 82.4745 37.365 81.7766 37.4812 81.3501C37.636 80.8849 38.1007 80.187 38.7008 79.6055C39.2235 79.0627 39.9785 78.5199 40.3463 78.4036C40.7141 78.2873 41.3723 78.1903 41.7982 78.1709ZM40.3463 82.804C40.3463 83.1724 40.5205 83.5601 40.8303 83.8702C41.14 84.1804 41.5272 84.3549 41.895 84.3549C42.2822 84.3549 42.6693 84.1804 42.9597 83.8702C43.2695 83.5794 43.4437 83.153 43.4437 82.804C43.4437 82.4357 43.2695 82.048 42.9597 81.7378C42.65 81.4277 42.2628 81.2532 41.895 81.2532C41.5078 81.2532 41.1206 81.4277 40.8303 81.7378C40.5592 82.0092 40.3656 82.4357 40.3463 82.804ZM27.8598 78.1709C28.2857 78.1709 28.9826 78.2679 29.4085 78.3842C29.8731 78.5393 30.5701 79.0045 31.1508 79.6055C31.7509 80.187 32.2156 80.8849 32.3704 81.3501C32.4866 81.7766 32.6027 82.4745 32.6027 82.901C32.6027 83.3274 32.3898 84.1028 32.1575 84.6456C31.9058 85.169 31.3444 85.9251 30.9185 86.2934C30.4926 86.6617 29.7957 87.0882 29.3892 87.2045C28.9826 87.3402 28.3244 87.4565 27.9566 87.4565C27.5888 87.4565 26.9306 87.3402 26.5047 87.2239C26.0401 87.0688 25.3432 86.6036 24.7624 86.0026C24.1623 85.4211 23.6977 84.7232 23.5428 84.2579C23.4266 83.8315 23.3105 83.1724 23.3105 82.804C23.3105 82.4357 23.4266 81.7766 23.5428 81.3501C23.6977 80.8849 24.1623 80.187 24.7624 79.6055C25.2851 79.0627 26.0401 78.5199 26.4079 78.4036C26.7757 78.2873 27.4339 78.1903 27.8598 78.1709ZM26.4079 82.804C26.4079 83.1724 26.5821 83.5601 26.8919 83.8702C27.2016 84.1804 27.5888 84.3549 27.9566 84.3549C28.3438 84.3549 28.731 84.1804 29.0213 83.8702C29.3311 83.5794 29.5053 83.153 29.5053 82.804C29.5053 82.4357 29.3311 82.048 29.0213 81.7378C28.7116 81.4277 28.3244 81.2532 27.9566 81.2532C27.5694 81.2532 27.1822 81.4277 26.8919 81.7378C26.6208 82.0092 26.4273 82.4357 26.4079 82.804ZM13.9214 78.1709C14.3473 78.1709 15.0442 78.2679 15.4701 78.3842C15.9347 78.5393 16.6317 79.0045 17.2124 79.6055C17.8126 80.187 18.2772 80.8849 18.432 81.3501C18.5482 81.7766 18.6643 82.4357 18.6643 82.804C18.6643 83.1724 18.5482 83.8315 18.432 84.2579C18.2772 84.7232 17.8126 85.4211 17.2124 86.0026C16.6317 86.6036 15.9347 87.0688 15.4701 87.2239C15.0442 87.3402 14.386 87.4565 14.0182 87.4565C13.6504 87.4565 12.9922 87.3402 12.5663 87.2239C12.1017 87.0688 11.4048 86.6036 10.824 86.0026C10.2239 85.4211 9.75925 84.7232 9.60438 84.2579C9.48823 83.8315 9.37207 83.1724 9.37207 82.804C9.37207 82.4357 9.48823 81.7766 9.60438 81.3501C9.75925 80.8849 10.2239 80.187 10.824 79.6055C11.3467 79.0627 12.1017 78.5199 12.4695 78.4036C12.8373 78.2873 13.4955 78.1903 13.9214 78.1709ZM12.4695 82.804C12.4695 83.1724 12.6437 83.5601 12.9535 83.8702C13.2632 84.1804 13.6504 84.3549 14.0182 84.3549C14.4054 84.3549 14.7926 84.1804 15.083 83.8702C15.3927 83.5794 15.5669 83.153 15.5669 82.804C15.5669 82.4357 15.3927 82.048 15.083 81.7378C14.7732 81.4277 14.386 81.2532 14.0182 81.2532C13.631 81.2532 13.2439 81.4277 12.9535 81.7378C12.6825 82.0092 12.4889 82.4357 12.4695 82.804Z" fill="white"/>
<path fill-rule="evenodd" clip-rule="evenodd" d="M20.2138 54.89C20.5816 54.89 20.9688 55.0645 21.2785 55.3747C21.7431 55.8399 21.7625 55.9368 21.7625 58.7283C21.7819 61.2678 21.7431 61.6361 21.3947 62.0626C21.1043 62.4503 20.8526 62.5472 20.2138 62.5472C19.575 62.5472 19.3233 62.4503 19.0329 62.0626C18.6844 61.6361 18.6457 61.2678 18.6651 58.7089C18.6844 55.9562 18.7038 55.8205 19.1491 55.3747C19.4394 55.0645 19.8266 54.89 20.2138 54.89ZM14.019 54.89C14.3868 54.89 14.774 55.0645 15.0837 55.3747C15.5483 55.8399 15.5677 55.9175 15.5677 58.7671C15.5677 61.5974 15.5483 61.6943 15.0837 62.1595C14.7933 62.4697 14.4061 62.6442 14.019 62.6442C13.6511 62.6442 13.264 62.4697 12.9542 62.1595C12.4896 61.6943 12.4703 61.6167 12.4703 58.7671C12.4896 55.9368 12.509 55.8205 12.9542 55.3747C13.2446 55.0645 13.6318 54.89 14.019 54.89ZM7.8241 54.89C8.19192 54.89 8.5791 55.0645 8.88884 55.3747C9.35345 55.8399 9.37281 55.9175 9.37281 58.7671C9.37281 61.5974 9.35345 61.6943 8.88884 62.1595C8.59846 62.4697 8.21128 62.6442 7.8241 62.6442C7.45628 62.6442 7.06911 62.4697 6.75936 62.1595C6.29475 61.6943 6.27539 61.6167 6.27539 58.7671C6.29475 55.9368 6.31411 55.8205 6.75936 55.3747C7.04975 55.0645 7.43692 54.89 7.8241 54.89ZM41.9151 39.3818C46.929 39.3818 48.7875 39.4399 49.1553 39.6338C49.4457 39.7695 49.8135 40.2541 50.0652 40.8357C50.2781 41.3785 51.672 44.674 55.8341 54.5993V58.1468C55.8341 61.6361 55.8341 61.6749 54.8855 62.6442H49.7361C46.9097 62.6442 44.4511 62.5666 44.2575 62.4697C44.0833 62.3728 43.1153 61.0933 40.347 56.9255V51.7884H36.6688C34.1135 51.7884 32.8358 51.7108 32.5067 51.5558C32.2357 51.4201 31.9259 51.0905 31.8098 50.8191C31.6549 50.4314 31.8485 49.404 32.9713 45.1974C34.036 41.204 34.4232 39.9827 34.7523 39.7113C35.1395 39.4206 35.7783 39.3818 41.9151 39.3818ZM36.0881 45.5463C35.6622 47.1165 35.3137 48.4541 35.3137 48.551C35.3137 48.6286 36.4365 48.6867 37.8304 48.6867H40.347V42.4834C37.6561 42.4834 36.8624 42.5222 36.8624 42.5804C36.8624 42.6385 36.514 43.9567 36.0881 45.5463ZM43.4444 55.9562L45.8643 59.5619L52.7367 59.5425V55.1808L47.413 42.4834H43.4444V55.9562Z" fill="white"/>
<path d="M77.5156 8.36478C77.535 7.99646 77.7286 7.56999 77.9996 7.29859C78.29 6.98843 78.6772 6.81396 79.0644 6.81396C79.4322 6.81396 79.8194 6.98843 80.1291 7.29859C80.4388 7.60876 80.6131 7.99646 80.6131 8.36478C80.6131 8.71372 80.4388 9.1402 80.1291 9.43098C79.8387 9.74114 79.4515 9.91561 79.0644 9.91561C78.6965 9.91561 78.3094 9.74114 77.9996 9.43098C77.6899 9.12082 77.5156 8.73311 77.5156 8.36478Z" fill="white"/>
</g>
<defs>
<clipPath id="clip0_2_1507">
<rect width="93" height="93" fill="white" transform="translate(0.0800781 0.660156)"/>
</clipPath>
</defs>
</svg>
