<svg width="59" height="86" viewBox="0 0 59 86" fill="none" xmlns="http://www.w3.org/2000/svg">
<g clip-path="url(#clip0_2_1610)">
<path d="M36.5168 4.75631C36.723 3.46744 37.0839 2.12701 37.3932 1.81767C37.7026 1.45679 38.115 1.14746 38.3212 1.14746C38.579 1.14746 43.0127 2.07545 48.2198 3.20966C53.4269 4.34387 57.8606 5.47808 58.1699 5.78741C58.5136 6.13111 58.4792 7.21377 58.0668 9.03538C57.6028 10.9944 56.9326 12.1802 55.5922 13.4175C54.6126 14.294 52.8597 15.3766 51.7255 15.7375C50.5398 16.0468 49.5087 16.717 49.4056 17.1295C49.2509 17.5419 47.8074 24.3987 46.1576 32.3382C44.5078 40.2777 42.9612 47.083 42.8065 47.4438C42.6003 47.7532 42.0847 48.0625 41.6723 48.0625C41.2599 48.0625 40.7959 47.9078 40.6928 47.7016C40.5381 47.4438 41.9301 40.4324 43.6829 32.0804C45.4874 23.7285 46.7762 16.717 46.6216 16.5624C46.4669 16.3562 45.7451 16.0984 43.7345 15.5828L40.4865 30.6885C38.7337 38.9373 37.1355 46.5674 36.6715 49.3514L40.1257 50.1247C42.0332 50.5371 43.7861 51.2074 44.0438 51.5682C44.3016 51.8776 44.4563 52.4447 44.3532 52.754C44.3016 53.1149 45.5389 53.682 47.0856 54.0429C48.6322 54.4038 50.0758 54.9193 50.3335 55.1255C50.5398 55.3318 50.1789 57.9095 49.5602 60.8481C48.5807 65.0757 48.2198 66.1068 47.4465 66.1068C46.9825 66.1068 46.4669 65.9521 46.3638 65.7459C46.2091 65.4881 46.5185 63.4259 46.9825 61.1059C47.7558 57.3424 47.7558 56.8269 47.0856 56.6206C46.6731 56.5175 45.6936 56.2597 44.8687 56.1051C43.6314 55.8473 43.3736 56.002 42.5487 57.6517C42.0847 58.6828 41.1052 59.8686 40.3834 60.281C39.6617 60.745 38.4243 61.209 37.5479 61.3121C36.6715 61.4152 35.2795 61.1059 34.2484 60.5904C33.3204 60.0748 32.0831 58.8375 31.516 57.858C31.0004 56.8784 30.588 55.3833 30.6911 54.61C30.7942 53.5273 30.588 53.1149 29.8146 52.9602C29.2475 52.8056 28.2164 52.6509 27.5462 52.5478C26.3605 52.4447 26.2058 52.7025 23.8858 63.0135L25.2778 62.6526C26.1027 62.3948 28.6804 62.2401 31.1035 62.2401C34.9701 62.2401 35.8981 62.4464 38.9399 63.9414C40.899 64.8179 43.4252 66.5708 44.6625 67.8081C45.8998 68.9938 47.498 71.2623 48.2713 72.8089C49.4056 75.1289 49.9211 75.696 51.3131 76.0569C52.2411 76.2631 53.7877 76.8818 54.6642 77.4489C55.5922 78.016 56.8295 79.408 57.3966 80.5422C57.9637 81.6764 58.3761 83.223 58.1699 85.4399H1.97495L1.82028 83.7901C1.76872 82.8621 2.18117 81.2124 2.69672 80.1813C3.26382 79.0986 4.34648 77.6035 5.17136 76.8302C5.94468 76.0569 7.23356 75.1804 8.00689 74.9227C8.83177 74.6133 10.0175 74.3556 10.7393 74.3556C11.7188 74.3556 12.389 73.7885 13.5233 71.9325C14.3481 70.5405 15.7917 68.6845 16.7197 67.705C17.6992 66.777 19.0912 65.5912 19.9161 65.1272C20.8441 64.5601 21.4112 63.7352 21.6174 62.4979C21.8236 61.5184 22.4423 58.3219 23.0609 55.4864C23.628 52.5993 24.3498 50.0216 24.556 49.8154C24.8138 49.5576 26.2573 49.6091 27.9071 49.97C30.6395 50.5371 30.8973 50.5371 31.4644 49.6092C31.8253 49.042 32.5986 48.578 33.1657 48.578C33.9906 48.578 34.2999 48.0625 34.7639 45.6394C35.0733 43.9897 36.6715 36.3595 41.3114 14.8095L39.043 12.3864C37.8057 10.9944 36.6199 9.29315 36.4652 8.51983C36.259 7.69495 36.3106 6.04519 36.5168 4.75631Z" fill="white"/>
<path d="M21.3076 67.2412C22.8542 66.3132 24.8649 65.3336 25.6898 65.0758C26.5146 64.8181 29.0924 64.6634 31.3608 64.715C34.2994 64.8181 36.1554 65.179 37.8052 66.0038C39.0941 66.5709 41.1563 67.9629 42.3936 69.0456C43.8371 70.3345 45.2291 72.242 46.3633 74.6135C48.0646 78.2224 48.0646 78.2224 50.5393 78.5833C52.3953 78.841 53.3748 79.305 54.4059 80.4908C55.2308 81.3672 55.8494 82.2952 55.8494 82.6046C55.8494 82.9654 46.9304 83.1201 4.29443 83.1201L4.60376 81.9343C4.80998 81.3157 5.22242 80.2846 5.5833 79.6659C5.89263 79.0473 6.92374 78.1708 7.80017 77.7068C8.72816 77.2944 9.86237 76.9335 10.3264 76.9335C11.0997 76.9335 11.2543 77.3975 11.2543 79.3566C11.2543 81.2126 11.4606 81.8312 12.0277 81.8312C12.5089 81.8312 13.076 80.6283 13.729 78.2224C14.2445 76.0571 15.4303 73.4793 16.5645 71.778C17.8534 69.922 19.4516 68.3754 21.3076 67.2412Z" fill="#FF712C"/>
<path d="M33.8869 57.2393C33.3714 56.4144 33.1651 55.3317 33.3198 53.682L33.5776 51.3105L37.3926 52.1353C39.6611 52.5993 41.2593 53.218 41.3108 53.5789C41.3624 53.9398 41.0531 55.074 40.6406 56.0535C40.2282 57.0331 39.3517 58.1157 38.6815 58.425C38.0629 58.7344 36.9286 58.8375 36.1038 58.6828C35.3304 58.5282 34.3509 57.8579 33.8869 57.2393Z" fill="#FF712C"/>
<path d="M41.6716 11.4587C40.6405 10.5823 39.8672 9.65428 39.8672 9.34495C39.9187 9.03562 40.3312 8.93251 40.7952 9.08717C41.2592 9.19028 44.1463 9.8605 47.188 10.4792C50.2297 11.0978 52.7559 11.8196 52.7559 12.0774C52.7559 12.2836 52.3435 12.696 51.828 12.9538C51.3124 13.2116 50.2297 13.5725 49.4049 13.7271C48.5284 13.9334 46.8271 13.8302 45.6413 13.5725C44.4556 13.2631 42.6512 12.2836 41.6716 11.4587Z" fill="#FF712C"/>
<path d="M38.7334 5.22049C38.6818 4.7565 38.7849 4.2925 38.9912 4.13784C39.1458 3.98317 41.208 4.24095 43.5795 4.7565C45.8995 5.27205 49.6115 6.09693 51.7768 6.56092C53.9937 7.02492 55.7981 7.59202 55.7981 7.74669C55.7981 7.95291 55.5919 8.46846 55.3341 8.8809C54.9217 9.55112 53.7874 9.39645 46.8275 7.8498C40.744 6.45781 38.7849 5.83915 38.7334 5.22049Z" fill="#FF712C"/>
</g>
<defs>
<clipPath id="clip0_2_1610">
<rect width="58" height="85" fill="white" transform="translate(0.970215 0.439941)"/>
</clipPath>
</defs>
</svg>
