<svg width="81" height="81" viewBox="0 0 81 81" fill="none" xmlns="http://www.w3.org/2000/svg">
<g clip-path="url(#clip0_2_1523)">
<path fill-rule="evenodd" clip-rule="evenodd" d="M50.6879 0.166486L51.0508 0.343981C51.2525 0.448864 51.5428 0.634427 51.696 0.755446C51.8492 0.884533 52.1073 1.22339 52.5428 2.02212V5.97541L52.2525 6.49983C52.0831 6.81448 51.8331 7.12106 51.6396 7.26628C51.4621 7.40344 51.2525 7.54866 51.1799 7.589C51.0508 7.66161 51.0831 7.75036 51.5186 8.43613C51.7847 8.85567 52.1879 9.53337 52.4218 9.9287C52.6476 10.3241 53.1799 11.3487 53.5912 12.1878C54.0025 13.0268 54.5831 14.3177 54.8654 15.0519C55.1557 15.7861 55.5508 16.8914 55.7525 17.5126C55.9541 18.1338 56.1557 18.7954 56.2928 19.3279L56.6396 19.0536C56.825 18.9003 57.1476 18.6986 57.7444 18.4404V16.8026C57.7444 15.5844 57.7766 15.0519 57.8734 14.6888C57.9379 14.4226 58.1154 13.995 58.2525 13.7287C58.3976 13.4706 58.7121 13.0672 58.9541 12.8332C59.196 12.6073 59.5912 12.3169 59.825 12.2039C60.0508 12.0829 60.4541 11.9296 60.7041 11.865C61.0912 11.7682 61.8573 11.744 65.0428 11.744C68.2283 11.744 68.9944 11.7682 69.3815 11.865C69.6315 11.9296 70.0347 12.0829 70.2686 12.2039C70.4944 12.3169 70.8815 12.5992 71.1154 12.8251C71.3573 13.051 71.6476 13.398 71.7766 13.5997C71.9057 13.8014 72.067 14.1483 72.1315 14.3661C72.2041 14.592 72.9621 18.747 73.817 23.6039C75.196 31.4217 75.3976 32.4786 75.5912 32.8256C75.7444 33.0837 75.9299 33.2693 76.196 33.4226C76.4863 33.584 76.7363 33.6566 77.2605 33.6969C77.6395 33.7292 78.1315 33.826 78.3492 33.9067C78.575 33.9874 78.9137 34.1487 79.1154 34.2697C79.317 34.3827 79.6637 34.6731 79.8895 34.9071C80.1154 35.1491 80.3976 35.5364 80.5105 35.7704C80.6315 35.9963 80.7847 36.3997 80.8492 36.6578C80.9541 37.0532 80.9702 38.2714 80.9702 45.3067C80.9702 52.4791 80.9541 53.5521 80.8412 53.9797C80.7766 54.246 80.5992 54.6736 80.4621 54.9398C80.317 55.198 80.0025 55.6014 79.7605 55.8353C79.5186 56.0693 79.0831 56.3759 78.7928 56.513C78.5025 56.6502 78.067 56.7954 77.825 56.8438C77.5428 56.9003 74.7847 56.9245 62.9057 56.9245L62.9137 60.2727L63.446 60.5148C63.7444 60.6438 64.317 60.9746 64.7202 61.2409C65.1154 61.499 65.7686 62.0315 66.1718 62.4188C66.575 62.806 67.1073 63.4031 67.3573 63.75C67.6073 64.105 67.9783 64.6939 68.1718 65.0731C68.3734 65.4523 68.6476 66.0655 68.7766 66.4447C68.9057 66.8239 69.0831 67.437 69.1637 67.8162C69.2766 68.3407 69.3089 68.8328 69.3089 69.8736C69.3008 70.8579 69.2605 71.4145 69.1637 71.8502C69.0912 72.181 68.9218 72.77 68.7928 73.1653C68.6557 73.5525 68.4379 74.0931 68.3008 74.3755C68.1638 74.6498 67.8492 75.1823 67.5992 75.5615C67.3573 75.9407 66.8331 76.57 66.446 76.9734C66.0589 77.3768 65.4621 77.9092 65.1154 78.1593C64.7605 78.4095 64.1718 78.7806 63.7928 78.9742C63.4137 79.1759 62.8008 79.4502 62.4218 79.5793C62.0428 79.7084 61.4299 79.8858 61.0508 79.9666C60.5266 80.0795 60.0347 80.1118 58.9944 80.1118C57.8896 80.1118 57.4783 80.0714 56.8976 79.9343C56.4944 79.8455 55.8976 79.6681 55.567 79.547C55.2363 79.4341 54.7444 79.2243 54.4783 79.0952C54.2121 78.9581 53.6879 78.6515 53.3089 78.4095C52.8976 78.1432 52.2767 77.6188 51.7686 77.1024C51.2525 76.5942 50.7283 75.9729 50.4621 75.5615C50.2202 75.1823 49.9137 74.6579 49.7766 74.3916C49.6476 74.1254 49.4299 73.601 49.2928 73.2218C49.1637 72.8426 48.9863 72.2294 48.9057 71.8502C48.7928 71.3419 48.7605 70.8175 48.7605 69.8332C48.7605 68.8489 48.7928 68.3245 48.9057 67.8162C48.9863 67.437 49.1637 66.8239 49.2928 66.4447C49.4299 66.0655 49.6637 65.5088 49.825 65.1942C49.9783 64.8795 50.2847 64.3551 50.5105 64.0243C50.7283 63.6935 51.3008 63.0319 51.7686 62.564C52.3008 62.0396 52.9137 61.5232 53.3896 61.2167C53.8089 60.9424 54.3815 60.6116 55.1637 60.2727V55.6336H19.0347V72.415H26.7766V80.1602H3.55086V72.415H11.2928V34.9797H8.71215V44.161C8.71215 50.1313 8.68795 53.4876 8.63151 53.778C8.58312 54.0201 8.43795 54.4557 8.30086 54.7462C8.15569 55.0528 7.85731 55.4642 7.59118 55.7385C7.30086 56.0451 6.93795 56.3114 6.57505 56.4888C6.22021 56.6663 5.78473 56.8035 5.40569 56.86C4.95408 56.9326 4.66376 56.9326 4.23634 56.86C3.92989 56.8116 3.45408 56.6663 3.18795 56.5373C2.92182 56.4082 2.47021 56.0935 2.19602 55.8273C1.82505 55.4884 1.59925 55.1899 1.4057 54.7865C1.25247 54.4719 1.09118 54.0201 1.05086 53.778C0.994408 53.4876 0.970215 46.533 0.970215 33.6082C0.970215 15.9555 0.986344 13.8336 1.09925 13.398C1.16376 13.1317 1.34118 12.7041 1.47828 12.4379C1.62344 12.1797 1.93796 11.7763 2.17989 11.5423C2.42182 11.3084 2.85731 11.0018 3.14763 10.8646C3.43795 10.7275 3.90569 10.5661 4.19602 10.5177C4.57505 10.4451 4.88956 10.4451 5.32505 10.5016C5.69602 10.558 6.14763 10.6871 6.4944 10.8485C6.84118 11.0179 7.23634 11.2922 7.52666 11.5746C7.83311 11.8731 8.09118 12.22 8.27666 12.5912C8.42989 12.8977 8.59119 13.3576 8.63151 13.5997C8.68795 13.882 8.71215 17.3916 8.71215 32.398H11.2928V27.0893C11.2928 23.8701 11.325 21.6111 11.3734 21.3449C11.4137 21.1028 11.575 20.651 11.7283 20.3364C11.9137 19.9653 12.1718 19.6183 12.4783 19.3198C12.7686 19.0375 13.1637 18.7631 13.5105 18.5937C13.8573 18.4324 14.3089 18.3033 14.6799 18.2468C15.1154 18.1903 15.4299 18.1903 15.8089 18.2629C16.0992 18.3113 16.5508 18.4566 16.817 18.5856C17.0831 18.7147 17.4379 18.9326 17.9057 19.3279L17.9944 18.989C18.0428 18.7954 18.2444 18.1338 18.446 17.5126C18.6476 16.8914 19.0428 15.7861 19.3331 15.0519C19.6154 14.3177 20.196 13.0268 20.6073 12.1878C21.0186 11.3487 21.5508 10.3241 21.7767 9.9287C22.0105 9.53337 22.4137 8.85567 22.6799 8.43613C23.1154 7.75036 23.1476 7.66161 23.0186 7.589C22.946 7.54866 22.7363 7.40344 22.5589 7.26628C22.3654 7.12106 22.1154 6.81448 21.6557 5.97541V3.99876C21.6557 2.05439 21.6557 2.01405 21.8573 1.61872C21.9621 1.40089 22.2041 1.0701 22.3815 0.892601C22.5589 0.715106 22.8492 0.497272 23.0267 0.416592C23.2041 0.327845 23.4621 0.23103 23.5912 0.198758C23.7202 0.166486 29.8734 0.150351 50.6879 0.166486ZM24.196 5.28963H50.0025V2.70789H24.196V5.28963ZM25.5025 8.82339C25.1557 9.33974 24.6315 10.1627 24.3412 10.6549C24.0589 11.147 23.6557 11.8489 23.446 12.2281C23.2363 12.6073 23.067 12.9381 23.067 12.9784C23.067 13.0107 29.3815 13.0349 37.0992 13.0349C44.817 13.0349 51.1315 13.0188 51.1315 12.9946C51.1315 12.9704 50.9621 12.6396 50.7525 12.2523C50.5428 11.857 50.1396 11.147 49.8573 10.6549C49.567 10.1627 49.0508 9.33974 48.696 8.82339L48.067 7.87138H26.1396L25.5025 8.82339ZM3.82505 13.5109C3.72021 13.6481 3.61537 13.882 3.59118 14.0273C3.56698 14.1725 3.55892 23.1198 3.56698 33.9067L3.59118 53.5279C3.85731 53.8829 4.03473 54.0523 4.15569 54.1491C4.30892 54.2621 4.4944 54.3105 4.84118 54.3105C5.19602 54.3105 5.37344 54.2621 5.54279 54.133C5.66376 54.0443 5.84119 53.8668 5.92989 53.7457C6.09119 53.5279 6.09118 53.3988 6.09118 33.6888V13.8578C5.82505 13.5028 5.66376 13.3334 5.55892 13.2527C5.45408 13.1721 5.18795 13.0914 4.96215 13.0752C4.72827 13.051 4.44602 13.0833 4.28473 13.1479C4.1315 13.2124 3.92182 13.3738 3.82505 13.5109ZM60.6396 14.7372C60.5589 14.8421 60.4621 15.0358 60.4137 15.1568C60.3654 15.2859 60.325 16.02 60.325 16.9156V18.4485C61.067 18.7873 61.4541 19.0778 61.7444 19.3682C62.0186 19.6345 62.3331 20.0459 62.4541 20.2799C62.567 20.5139 62.7202 20.9092 62.7847 21.1674C62.8896 21.5708 62.9057 23.4022 62.9057 35.4073V49.1874H65.4863C65.4863 41.6277 65.5105 40.9177 65.6154 40.5143C65.6799 40.2481 65.8573 39.8124 65.9944 39.5542C66.1395 39.288 66.4541 38.8927 66.696 38.6587C66.9379 38.4247 67.3331 38.1423 67.567 38.0213C67.8008 37.9003 68.196 37.7551 68.4541 37.6825C68.7041 37.6179 69.1154 37.5614 69.3573 37.5614C69.5992 37.5614 70.0186 37.6179 70.2847 37.6905C70.5508 37.7632 70.9863 37.9326 71.2444 38.0778C71.5025 38.215 71.9057 38.5296 72.1395 38.7797C72.3734 39.0217 72.6799 39.4574 72.817 39.7479C72.9541 40.0302 73.0992 40.4659 73.1476 40.716C73.196 40.9823 73.2283 42.7491 73.2283 45.1695V49.1874H78.3895C78.3492 37.1177 78.3492 37.0935 78.1799 36.8676C78.0831 36.7385 77.9218 36.5691 77.817 36.4884C77.6879 36.3916 77.3815 36.319 76.9218 36.2706C76.5347 36.2302 75.9863 36.1173 75.7121 36.0285C75.4299 35.9317 75.0589 35.7704 74.8815 35.6655C74.7041 35.5606 74.3976 35.3347 74.196 35.1653C73.9944 34.9958 73.6879 34.6328 73.5105 34.3746C73.325 34.1084 73.0992 33.6566 73.0025 33.3661C72.9057 33.0837 72.1395 28.9207 71.2928 24.1283C70.446 19.336 69.7202 15.3101 69.6799 15.1729C69.6395 15.0438 69.5025 14.8341 69.3815 14.7211C69.2605 14.6001 69.0589 14.4629 68.9379 14.4145C68.7928 14.358 67.446 14.3338 65.0266 14.3338C62.2686 14.3338 61.2605 14.358 61.0589 14.4387C60.8976 14.4952 60.7121 14.6324 60.6396 14.7372ZM21.7686 15.8425C21.7202 15.9636 21.5428 16.4234 21.3815 16.8672C21.2121 17.3109 20.9379 18.1177 20.7767 18.6421C20.6073 19.1746 20.3331 20.1589 20.1637 20.8205C19.9944 21.4901 19.7686 22.5631 19.6476 23.2005C19.5347 23.8459 19.3896 24.7899 19.325 25.2982C19.2605 25.8145 19.1637 26.8472 19.1073 27.5975C19.0508 28.3963 19.0347 29.55 19.0589 30.3406C19.0912 31.099 19.1879 32.1479 19.2767 32.6803C19.3654 33.2209 19.5105 33.947 19.6073 34.2939C19.696 34.6489 19.8734 35.254 20.0025 35.6251C20.1234 36.0043 20.4057 36.7143 20.6234 37.1984C20.8412 37.6905 21.2444 38.4731 21.5186 38.933C21.8008 39.4009 22.3089 40.1674 22.6476 40.6273C22.9944 41.0952 23.6073 41.8213 24.0025 42.2328C24.3976 42.6523 25.067 43.2816 25.4863 43.6366C25.9057 43.9835 26.5589 44.4837 26.9379 44.7419C27.317 45.0001 27.9541 45.3954 28.3492 45.6213C28.7525 45.8392 29.5105 46.2103 30.0428 46.4443C30.575 46.6702 31.4299 46.9767 31.9379 47.13C32.446 47.2753 33.2283 47.4689 33.6718 47.5576C34.1154 47.6464 34.9541 47.7593 35.5266 47.8158C36.1557 47.8723 37.0589 47.8965 37.7847 47.8642C38.4541 47.84 39.4299 47.7432 39.9621 47.6544C40.4944 47.5657 41.2202 47.4205 41.575 47.3237C41.9299 47.2349 42.5508 47.0494 42.946 46.9122C43.3492 46.7831 44.0508 46.5007 44.5186 46.291C44.9863 46.0812 45.7444 45.6859 46.2121 45.4116C46.6799 45.1292 47.4379 44.6209 47.9057 44.274C48.3734 43.9271 49.0912 43.322 49.5105 42.9266C49.9299 42.5313 50.5589 41.8617 50.9137 41.4421C51.2686 41.0145 51.8412 40.24 52.196 39.6995C52.5508 39.167 53.0508 38.3037 53.3089 37.7712C53.567 37.2307 53.9057 36.4561 54.0589 36.0285C54.2202 35.609 54.4379 34.9071 54.5508 34.4634C54.6638 34.0116 54.8089 33.3581 54.8815 33.0031C54.946 32.6561 55.0428 31.8897 55.0992 31.3169C55.1557 30.6714 55.1718 29.671 55.1396 28.7271C55.1073 27.888 55.0347 26.6859 54.9621 26.0646C54.8976 25.4515 54.7686 24.4833 54.6799 23.9347C54.5912 23.378 54.4057 22.4099 54.2686 21.7886C54.1315 21.1755 53.8815 20.1912 53.7121 19.6183C53.5428 19.0375 53.2766 18.1822 53.1154 17.7143C52.9621 17.2544 52.7202 16.6009 52.5992 16.2701L52.3654 15.657L21.8573 15.6166L21.7686 15.8425ZM14.1879 21.1916C14.1073 21.3045 14.0105 21.4901 13.9621 21.6111C13.8976 21.7725 13.8734 29.4048 13.8734 47.13V72.423H16.4541L16.4137 21.6031C16.1476 21.2561 15.9863 21.0867 15.8815 21.006C15.7767 20.9253 15.5105 20.8366 15.2847 20.8205C15.0589 20.8043 14.7605 20.8285 14.5992 20.8931C14.446 20.9496 14.2605 21.0867 14.1879 21.1916ZM58.0589 21.1916C57.9783 21.3045 57.8815 21.4901 57.8331 21.6111C57.7686 21.7725 57.7444 27.533 57.7444 40.6918V59.5547H60.325L60.2847 21.6031C60.0186 21.2561 59.8573 21.0867 59.7525 21.006C59.6476 20.9253 59.3815 20.8366 59.1557 20.8205C58.9299 20.8043 58.6315 20.8285 58.4702 20.8931C58.317 20.9496 58.1315 21.0867 58.0589 21.1916ZM19.0347 47.8965C26.1879 47.8884 27.0267 47.8642 26.9057 47.7916C26.825 47.7351 26.2767 47.3801 25.696 46.9929C25.1154 46.6056 24.2767 45.9844 23.8331 45.6133C23.3896 45.2421 22.6799 44.5725 22.2605 44.1368C21.8331 43.6931 21.2525 43.0477 20.9702 42.6927C20.6879 42.3377 20.1879 41.6277 19.8492 41.1113C19.5105 40.595 19.196 40.1029 19.1396 40.0222C19.067 39.9012 19.0428 40.7483 19.0428 43.8787L19.0347 47.8965ZM54.6396 40.6757C54.3734 41.1113 53.8654 41.8455 53.5105 42.3215C53.1637 42.7975 52.325 43.7254 51.6557 44.395C50.9863 45.0646 50.0589 45.8956 49.5831 46.2506C49.1073 46.6056 48.3734 47.1058 47.9379 47.3721L47.1557 47.8561C53.3089 47.8884 55.1073 47.8884 55.1234 47.8803C55.1396 47.8723 55.1476 46.0651 55.1396 43.8787L55.1234 39.8931L54.6396 40.6757ZM68.3734 40.5627C68.3008 40.6676 68.196 40.8612 68.1476 40.9823C68.0912 41.1275 68.067 42.5636 68.067 45.1937V49.1874H70.6476C70.6073 41.0387 70.5992 40.9661 70.4299 40.7483C70.3412 40.6192 70.1799 40.4498 70.067 40.3691C69.9621 40.2884 69.696 40.2077 69.4783 40.1835C69.2444 40.1674 68.9541 40.1997 68.7928 40.2561C68.6395 40.3126 68.4541 40.4498 68.3734 40.5627ZM19.0347 53.06H55.1637V50.4782H19.0347V53.06ZM62.9057 54.3508C77.567 54.3105 77.567 54.3105 77.7928 54.1411C77.9218 54.0443 78.0992 53.8748 78.1879 53.7538C78.317 53.5683 78.3492 53.3908 78.3654 52.6566L78.3895 51.7691H62.9057V54.3508ZM56.8573 62.4188C56.567 62.5075 56.1154 62.6689 55.8492 62.7899C55.5831 62.9109 55.1073 63.1691 54.8008 63.3708C54.4863 63.5644 53.9218 64.0485 53.5428 64.4277C53.1638 64.815 52.6879 65.3959 52.4783 65.7266C52.2766 66.0655 51.9944 66.606 51.8654 66.9368C51.7283 67.2757 51.5589 67.8001 51.4783 68.1067C51.3734 68.5181 51.3412 68.9942 51.3412 69.8413C51.3412 70.6884 51.3734 71.1725 51.4783 71.5759C51.5589 71.8906 51.7283 72.415 51.8654 72.7458C51.9944 73.0846 52.2605 73.609 52.4541 73.9156C52.6476 74.2303 53.0589 74.7547 53.3654 75.0855C53.6799 75.4243 54.1557 75.86 54.4299 76.0536C54.7041 76.2553 55.0992 76.5135 55.3089 76.6264C55.5186 76.7394 55.9218 76.933 56.2121 77.046C56.4944 77.1589 56.9863 77.3122 57.3008 77.3848C57.6073 77.4655 58.2444 77.5381 58.7121 77.5623C59.3008 77.5946 59.7847 77.5704 60.3008 77.4736C60.7121 77.409 61.3492 77.2396 61.7121 77.1024C62.0831 76.9734 62.6879 76.6748 63.067 76.4489C63.5186 76.1746 64.0105 75.7632 64.5186 75.2549C65.0186 74.7466 65.4057 74.2545 65.6557 73.8349C65.8573 73.4799 66.1234 72.9555 66.2363 72.6651C66.3492 72.3827 66.5025 71.8906 66.5831 71.5759C66.6879 71.1725 66.7283 70.6884 66.7283 69.8413C66.7283 68.9942 66.6879 68.5181 66.5831 68.1067C66.5025 67.8001 66.3331 67.2757 66.2041 66.9368C66.067 66.606 65.7928 66.0655 65.5831 65.7266C65.3734 65.3959 64.8815 64.7988 64.4783 64.3954C64.0186 63.9356 63.4944 63.508 63.067 63.2417C62.6879 63.0158 62.0831 62.7173 61.7121 62.5801C61.3492 62.4511 60.7283 62.2897 60.3412 62.2171C59.9541 62.1525 59.325 62.1041 58.9541 62.1041C58.575 62.1122 58.067 62.1525 57.825 62.1929C57.575 62.2332 57.1396 62.3381 56.8573 62.4188ZM6.13151 77.5865H24.196V75.0048H6.13151V77.5865Z" fill="white"/>
<path fill-rule="evenodd" clip-rule="evenodd" d="M58.9133 65.969C59.1391 65.9609 59.5182 65.9932 59.7601 66.0416C60.002 66.0819 60.4536 66.2433 60.7682 66.3966C61.1391 66.5821 61.4859 66.8403 61.7843 67.1469C62.0504 67.4131 62.3488 67.8407 62.494 68.1392C62.6311 68.4297 62.7924 68.9138 62.8407 69.2284C62.9133 69.656 62.9133 69.9464 62.8407 70.3983C62.7843 70.7774 62.6472 71.2131 62.4698 71.5681C62.2924 71.9312 62.0262 72.2942 61.7198 72.5847C61.4536 72.8509 61.0262 73.1494 60.7278 73.2946C60.4295 73.4399 59.9456 73.5851 59.5988 73.6416C59.1391 73.7142 58.8569 73.7142 58.4294 73.6416C58.1149 73.5932 57.6472 73.4479 57.3811 73.3189C57.1149 73.1898 56.6633 72.8751 56.3891 72.6089C56.0262 72.2781 55.7924 71.9634 55.5907 71.5681C55.4053 71.1889 55.2843 70.7936 55.2198 70.3579C55.1553 69.8658 55.1553 69.5834 55.2278 69.1881C55.2762 68.8976 55.4375 68.4297 55.5746 68.1392C55.7117 67.8488 56.0182 67.4131 56.252 67.1711C56.4859 66.929 56.8891 66.6144 57.1472 66.4692C57.4133 66.332 57.8246 66.1545 58.0665 66.09C58.3085 66.0254 58.6956 65.969 58.9133 65.969ZM58.0101 69.0186C57.9133 69.1558 57.8004 69.3898 57.7762 69.5269C57.752 69.6721 57.752 69.9384 57.7843 70.1159C57.8219 70.331 57.9402 70.5354 58.1391 70.729C58.3085 70.8985 58.5504 71.0518 58.7117 71.084C58.8649 71.1163 59.1391 71.1163 59.3165 71.084C59.5316 71.0464 59.7359 70.928 59.9294 70.729C60.0988 70.5596 60.252 70.3176 60.2843 70.1562C60.3165 70.0029 60.3165 69.7367 60.2924 69.5673C60.2682 69.4059 60.1472 69.1558 60.0262 69.0106C59.8972 68.8734 59.6794 68.7121 59.5424 68.6475C59.3972 68.591 59.1553 68.5426 59.0182 68.5426C58.873 68.5507 58.6311 68.5991 58.4778 68.6556C58.3246 68.7121 58.1149 68.8734 58.0101 69.0186Z" fill="white"/>
<path d="M21.6792 31.2281L22.5502 31.1394C23.0341 31.091 23.6067 31.0425 24.2357 31.0264L24.3728 31.8977C24.4534 32.3738 24.6309 33.1241 24.768 33.5678C24.897 34.0115 25.2599 34.8829 25.5663 35.5041C25.9292 36.2464 26.3405 36.9241 26.7599 37.4808C27.1147 37.9487 27.7196 38.6345 28.1147 39.0137C28.5099 39.3929 29.0502 39.8689 29.3163 40.0706C29.5825 40.2723 30.0341 40.5789 30.3244 40.7644C30.6147 40.9419 31.0825 41.2082 31.3728 41.3534C31.6631 41.4986 32.2034 41.7406 32.5825 41.8859C32.9615 42.0311 33.5744 42.2247 33.9534 42.3215C34.3325 42.4183 35.018 42.5474 35.4857 42.612C35.9534 42.6685 36.5018 42.7249 37.0986 42.7249V45.3067H36.7357C36.5341 45.3067 36.018 45.2663 35.5825 45.2179C35.1551 45.1776 34.4373 45.0646 33.9938 44.9759C33.5502 44.8871 32.7841 44.6774 32.3002 44.516C31.8083 44.3547 30.9212 43.9835 30.3244 43.685C29.7276 43.3865 28.9292 42.9347 28.5502 42.6765C28.1712 42.4264 27.5905 41.9907 27.2599 41.7164C26.9292 41.4341 26.3244 40.8693 25.9212 40.4578C25.526 40.0383 24.9776 39.409 24.7115 39.054C24.4454 38.699 24.0422 38.102 23.8163 37.7228C23.5905 37.3436 23.2518 36.7304 23.0744 36.3513C22.897 35.9721 22.6067 35.2298 22.4292 34.6973C22.2518 34.1648 22.0341 33.3822 21.9454 32.9627C21.8567 32.5432 21.7599 31.9784 21.6792 31.2281Z" fill="white"/>
<path d="M21.6147 28.5251V27.2343V25.9434H24.1954V28.5251H21.6147Z" fill="white"/>
</g>
<defs>
<clipPath id="clip0_2_1523">
<rect width="80" height="80" fill="white" transform="translate(0.970215 0.160156)"/>
</clipPath>
</defs>
</svg>
