<svg width="85" height="85" viewBox="0 0 85 85" fill="none" xmlns="http://www.w3.org/2000/svg">
<g clip-path="url(#clip0_2_1568)">
<path fill-rule="evenodd" clip-rule="evenodd" d="M5.52794 0.941074C6.06385 0.930573 6.59975 0.99358 6.94651 1.10909C7.24073 1.2036 17.7801 5.41457 30.3475 10.4551C42.9149 15.5062 53.4859 19.8011 53.8326 19.9902C54.1794 20.1792 54.7468 20.5677 55.0831 20.8408C55.4298 21.1243 55.9447 21.6388 56.2179 21.9854C56.5016 22.3319 56.9114 22.9725 57.1321 23.403C57.3633 23.8336 57.6575 24.5477 57.7941 24.9782C58.0043 25.6503 58.0358 25.9863 58.0358 27.2885C58.0358 28.5906 58.0043 28.9267 57.7836 29.5987C57.647 30.0293 57.4263 30.6278 57.2792 30.9114C57.1321 31.2054 56.8379 31.699 56.6382 32.014C56.4176 32.35 53.9587 34.9018 45.2687 43.6178L52.0988 50.4436L53.2757 49.2779C53.9272 48.6374 54.6207 48.0283 54.8099 47.9338C54.9885 47.8393 55.3247 47.7658 55.5454 47.7658C55.7556 47.7763 56.0603 47.8288 56.2179 47.9023C56.3755 47.9758 62.1654 52.8063 69.0901 58.645C76.0148 64.4836 81.8466 69.4717 82.0568 69.7237C82.267 69.9757 82.6137 70.4693 82.8449 70.8158C83.0656 71.1624 83.3703 71.7504 83.5279 72.1285C83.675 72.5065 83.8957 73.1891 84.0008 73.6511C84.1374 74.2287 84.1899 74.8798 84.1899 75.7514C84.1899 76.581 84.1269 77.2635 84.0008 77.7466C83.9062 78.1561 83.675 78.8387 83.5069 79.2693C83.3283 79.6998 82.9605 80.3824 82.6978 80.7919C82.4246 81.191 81.8992 81.8316 81.5209 82.2201C81.1426 82.5981 80.5121 83.1337 80.1023 83.3857C79.6925 83.6483 79.1566 83.9738 78.8939 84.0998C78.6312 84.2258 77.8957 84.4674 77.2652 84.6354C76.3405 84.8769 75.8887 84.9399 74.985 84.9399C74.1233 84.9399 73.6085 84.8769 72.8309 84.6774C72.2635 84.5304 71.3808 84.2048 70.8554 83.9423C70.33 83.6798 69.605 83.2177 69.2267 82.9132C68.7433 82.5246 65.4123 78.6497 57.9517 69.8182C52.1198 62.9189 47.2862 57.1118 47.2022 56.9333C47.1181 56.7443 47.0551 56.4187 47.0551 56.2192C47.0551 56.0197 47.1286 55.6941 47.2232 55.5156C47.3177 55.3266 47.9272 54.6335 49.7346 52.8063L42.9044 45.9806L37.4403 51.4202C34.4351 54.413 31.7451 57.0278 31.4508 57.2378C31.1671 57.4478 30.6417 57.7524 30.295 57.9309C29.9482 58.0989 29.3388 58.3509 28.929 58.4769C28.4036 58.645 27.8256 58.729 26.8799 58.7605C25.7661 58.813 25.4298 58.7815 24.6733 58.5925C24.1794 58.477 23.3493 58.1619 22.8344 57.9099C22.3195 57.6474 21.5839 57.1853 21.2057 56.8808C20.8274 56.5657 20.2705 55.9882 19.9657 55.5891C19.661 55.1796 19.2722 54.5705 19.1041 54.224C18.9465 53.8774 14.6698 43.3133 9.61551 30.7539C4.56122 18.1945 0.368575 7.66182 0.305528 7.36779C0.242481 7.06326 0.189941 6.5907 0.189941 6.31767C0.189941 6.03414 0.263497 5.50908 0.358067 5.13104C0.44213 4.753 0.662796 4.16493 0.851938 3.81839C1.03057 3.47186 1.4719 2.90479 1.81866 2.54775C2.16542 2.19071 2.65929 1.79167 2.92199 1.66566C3.18469 1.52914 3.67856 1.30862 4.02532 1.1826C4.47716 1.01458 4.90798 0.951576 5.52794 0.941074ZM4.34055 4.7425C4.17243 4.87901 3.90973 5.22555 3.77313 5.50908C3.57348 5.90813 3.53145 6.12865 3.57348 6.49619C3.605 6.77972 7.34581 16.1887 12.7468 29.5987C17.7591 42.0426 22.0043 52.5123 22.1829 52.8588C22.351 53.2054 22.7503 53.7409 23.0656 54.0455C23.4123 54.3815 23.9272 54.7385 24.4421 54.9801C25.1671 55.3266 25.3563 55.3791 26.2494 55.4106C26.9955 55.4421 27.4158 55.4106 27.9307 55.2636C28.309 55.1586 28.8974 54.8856 29.2442 54.665C29.6435 54.4025 31.8081 52.3338 35.1601 48.9839C38.0603 46.0961 40.4351 43.6808 40.4351 43.6178C40.4351 43.5548 39.6575 42.7357 38.6908 41.7801C37.7346 40.8245 36.8834 39.9214 36.7994 39.7639C36.7153 39.5958 36.6522 39.2493 36.6522 38.9763C36.6522 38.6192 36.7153 38.3567 36.8834 38.1047C37.02 37.9052 37.2932 37.6531 37.4929 37.5586C37.6925 37.4536 38.0393 37.3696 38.26 37.3696C38.4701 37.3696 38.8064 37.4326 38.9955 37.5166C39.1741 37.6006 40.1093 38.4512 41.0656 39.4068C42.0218 40.3624 42.8519 41.15 42.9044 41.15C42.9675 41.15 45.4473 38.7032 48.4316 35.7209C53.675 30.4703 53.8747 30.2498 54.2635 29.4412C54.6417 28.6746 54.6733 28.5276 54.7153 27.551C54.7468 26.7529 54.7048 26.3644 54.5682 25.9233C54.4631 25.6083 54.2635 25.1147 54.1163 24.8207C53.9692 24.5372 53.612 24.0541 53.3177 23.7601C53.0235 23.4765 52.5717 23.109 52.309 22.962C52.0463 22.815 41.5174 18.5515 28.8974 13.4899C13.8922 7.4728 5.85369 4.29095 5.63302 4.30145C5.44388 4.30145 5.14966 4.35395 4.97103 4.40646C4.8029 4.45897 4.51919 4.61648 4.34055 4.7425ZM51.1531 56.5552C51.2372 56.6602 55.724 61.9843 61.1146 68.3796C68.9219 77.6416 71.0445 80.0989 71.5699 80.4874C71.9272 80.7499 72.4841 81.0545 72.7994 81.17C73.1146 81.2855 73.64 81.4325 73.9552 81.4955C74.2705 81.5585 74.9325 81.5795 75.4263 81.548C76.0463 81.5165 76.5507 81.4115 77.0551 81.212C77.4649 81.065 78.0743 80.7289 78.4211 80.4874C78.7678 80.2354 79.2617 79.7838 79.5139 79.4688C79.7661 79.1538 80.1339 78.5552 80.323 78.1456C80.5542 77.6626 80.7223 77.0535 80.8064 76.518C80.9009 75.8354 80.9009 75.4678 80.8064 74.8063C80.7328 74.3127 80.5437 73.6826 80.3545 73.2836C80.1759 72.9056 79.8817 72.391 79.703 72.139C79.5034 71.8659 74.5226 67.6025 67.5664 61.7428C61.0726 56.2822 55.724 51.7982 55.682 51.7772C55.6505 51.7667 54.5787 52.7853 53.3072 54.056C51.1426 56.2087 51.006 56.3662 51.1531 56.5552Z" fill="white"/>
<path d="M13.2407 21.1242C13.3668 20.9981 13.598 20.8511 13.7451 20.7881C13.8922 20.7356 14.1444 20.6831 14.323 20.6831C14.5017 20.6831 14.8274 20.7671 15.0586 20.8721C15.2898 20.9876 15.5524 21.1872 15.647 21.3237C15.7416 21.4602 17.1812 24.8941 18.8414 28.9685C20.5017 33.043 21.8887 36.5399 21.9202 36.7394C21.9517 36.9914 21.8992 37.254 21.7521 37.5795C21.6155 37.8525 21.3633 38.1676 21.1321 38.3146C20.8589 38.5036 20.6067 38.5771 20.2705 38.5771C19.9658 38.5666 19.64 38.4826 19.3878 38.3356C19.1777 38.2096 18.936 37.9785 18.8519 37.821C18.7679 37.653 17.3493 34.2086 15.6996 30.1552C13.4929 24.7366 12.6943 22.6573 12.6943 22.3528C12.6943 22.1218 12.7574 21.8067 12.8414 21.6492C12.9255 21.4812 13.1041 21.2502 13.2407 21.1242Z" fill="white"/>
<path d="M8.44916 10.6965C8.56475 10.497 8.81694 10.224 9.01659 10.098C9.25827 9.92995 9.53147 9.85645 9.87823 9.85645C10.1514 9.85645 10.5192 9.92996 10.6978 10.014C10.8764 10.098 11.0971 10.2975 11.2127 10.4655C11.3178 10.623 11.8747 11.8831 12.4421 13.2693C13.1567 15.0335 13.4719 15.9156 13.4614 16.2096C13.4614 16.4406 13.3878 16.7872 13.2933 16.9762C13.1882 17.1547 12.936 17.4277 12.7153 17.5748C12.4316 17.7743 12.1899 17.8373 11.8011 17.8373C11.4754 17.8373 11.1496 17.7533 10.9605 17.6378C10.7819 17.5328 10.5717 17.3332 10.4771 17.1967C10.3826 17.0602 9.84671 15.8106 9.28979 14.4244C8.62779 12.7967 8.26002 11.7571 8.24951 11.4841C8.24951 11.2426 8.33357 10.9066 8.44916 10.6965Z" fill="white"/>
</g>
<defs>
<clipPath id="clip0_2_1568">
<rect width="84" height="84" fill="white" transform="translate(0.189941 0.939941)"/>
</clipPath>
</defs>
</svg>
