<svg width="83" height="73" viewBox="0 0 83 73" fill="none" xmlns="http://www.w3.org/2000/svg">
<g clip-path="url(#clip0_2_1583)">
<path d="M52.4768 71.0312C52.5588 70.8922 52.7885 70.7041 52.9853 70.5978C53.256 70.4588 53.4283 70.4179 53.6743 70.4506C53.8548 70.4752 54.0927 70.5651 54.2075 70.6469C54.3223 70.7287 54.4946 70.9249 54.6012 71.0803C54.7161 71.252 54.7899 71.481 54.7899 71.6854C54.7899 71.8898 54.7161 72.1188 54.6012 72.2905C54.4946 72.4459 54.3223 72.6421 54.2075 72.7239C54.0927 72.8057 53.8712 72.8956 53.7154 72.9283C53.5021 72.961 53.3216 72.9283 53.0263 72.7811C52.8049 72.6748 52.5588 72.4704 52.4768 72.3396C52.3865 72.1842 52.3291 71.9389 52.3291 71.6854C52.3291 71.4319 52.3865 71.1866 52.4768 71.0312Z" fill="white"/>
<path d="M37.3113 71.0149C37.4016 70.8677 37.6312 70.6714 37.8281 70.5815H37.8199C38.066 70.467 38.271 70.4261 38.5007 70.4507C38.6811 70.4752 38.919 70.5651 39.0339 70.6469C39.1487 70.7369 39.3127 70.9086 39.403 71.0231C39.5178 71.1866 39.567 71.3747 39.567 71.6854C39.567 71.9961 39.5178 72.1842 39.403 72.3478C39.3127 72.4622 39.1323 72.6421 39.0092 72.7403C38.837 72.8629 38.6565 72.912 38.353 72.912C38.0331 72.9038 37.8527 72.8547 37.6476 72.7076C37.4836 72.5931 37.2949 72.3478 37.2047 72.1352C37.1063 71.898 37.0652 71.6772 37.0981 71.5219C37.1227 71.391 37.2211 71.1539 37.3113 71.0149Z" fill="white"/>
<path d="M22.1604 70.9006C22.267 70.7534 22.4803 70.5899 22.6362 70.5326C22.792 70.4754 23.0053 70.4263 23.1201 70.4263C23.2349 70.4263 23.481 70.4917 23.6697 70.5817C23.8665 70.6716 24.0962 70.8597 24.1864 71.0151C24.2767 71.1541 24.3751 71.3912 24.3997 71.5221C24.4325 71.6774 24.3915 71.8982 24.2931 72.1354C24.2028 72.3398 24.0306 72.5851 23.8911 72.6832C23.7599 72.7732 23.522 72.8795 23.3662 72.9122C23.2103 72.9449 22.9478 72.9285 22.792 72.8877C22.6362 72.8386 22.3901 72.6751 22.2506 72.5279C22.1112 72.3807 21.9717 72.1272 21.9389 71.9718C21.9061 71.8165 21.8979 71.563 21.9225 71.4239C21.9471 71.2768 22.062 71.0396 22.1604 70.9006Z" fill="white"/>
<path d="M54.8153 66.7869C54.9301 66.656 55.1106 66.5252 55.209 66.4843C55.3156 66.4434 55.5781 66.4189 55.8078 66.4353C56.0621 66.4516 56.3164 66.5252 56.4804 66.6397C56.6445 66.746 56.8003 66.9586 56.8823 67.1712C56.9644 67.3838 56.9972 67.6291 56.9644 67.8254C56.9397 67.9889 56.8167 68.2424 56.6855 68.3814C56.5624 68.5286 56.3656 68.6922 56.2343 68.7494C56.1113 68.8148 55.8816 68.8639 55.7258 68.8639C55.5699 68.8639 55.3567 68.823 55.25 68.7739C55.1516 68.7249 54.9629 68.5859 54.8399 68.4632C54.7169 68.3487 54.5774 68.1116 54.5364 67.948C54.4872 67.7518 54.479 67.5228 54.5282 67.3347C54.5774 67.163 54.7005 66.9177 54.8153 66.7869Z" fill="white"/>
<path d="M39.4188 67.1307C39.509 66.9344 39.6812 66.7136 39.8535 66.5992C40.0422 66.4765 40.2636 66.4111 40.4851 66.4111C40.682 66.4111 40.969 66.4765 41.1331 66.5583C41.2971 66.6319 41.5104 66.8281 41.6006 66.9835C41.7073 67.1634 41.7729 67.4169 41.7811 67.654C41.7811 67.9157 41.7319 68.1038 41.6088 68.2673C41.5186 68.39 41.3135 68.578 41.1577 68.6844C40.9772 68.7988 40.764 68.8642 40.5507 68.8642C40.3703 68.8642 40.0832 68.7743 39.9109 68.6762C39.7223 68.5699 39.5336 68.3654 39.4434 68.1692C39.3531 67.9893 39.2793 67.7603 39.2793 67.6622C39.2793 67.5559 39.3449 67.3188 39.4188 67.1307Z" fill="white"/>
<path d="M24.2438 67.0653C24.3258 66.9099 24.5144 66.6973 24.6703 66.5992C24.859 66.4683 25.0804 66.4111 25.3265 66.4111C25.5562 66.4111 25.8104 66.4765 25.9745 66.5746C26.1139 66.6646 26.3108 66.8608 26.401 67.008C26.4995 67.1634 26.5651 67.4169 26.5651 67.6377C26.5651 67.8912 26.5077 68.0956 26.3846 68.2918C26.278 68.4472 26.0647 68.6435 25.9089 68.7171C25.753 68.7988 25.4987 68.8642 25.3593 68.8642C25.2117 68.8642 24.9574 68.7988 24.7933 68.7252C24.6211 68.6435 24.416 68.4717 24.3258 68.3327C24.2274 68.2019 24.1371 67.9239 24.1207 67.7194C24.1043 67.4741 24.1453 67.2533 24.2438 67.0653Z" fill="white"/>
<path d="M52.5264 54.7098C52.633 54.5462 52.8463 54.3582 52.9939 54.2764C53.1826 54.1864 53.3794 54.1537 53.6337 54.1783C53.8388 54.2028 54.0931 54.2846 54.2079 54.3745C54.3227 54.4645 54.4786 54.6198 54.5606 54.7261C54.659 54.8488 54.7411 55.1759 54.7903 55.6174C54.8395 56.1081 54.9379 56.4679 55.1184 56.844C55.3316 57.2774 55.5941 57.5881 56.5046 58.4795C57.1198 59.0846 57.7842 59.7878 57.9811 60.0331C58.1697 60.2784 58.4404 60.7037 58.5716 60.9735C58.7111 61.2433 58.8915 61.7422 58.9736 62.0774C59.0638 62.4127 59.1294 62.9687 59.1294 63.304C59.1376 63.811 59.0966 63.9664 58.949 64.2035C58.8423 64.3589 58.6291 64.5551 58.4732 64.6369C58.2681 64.7432 58.0795 64.7759 57.817 64.7432C57.6119 64.7187 57.3577 64.6369 57.251 64.5551C57.1444 64.4733 56.9885 64.318 56.9065 64.2035C56.7999 64.0645 56.7179 63.7537 56.6686 63.2795C56.6112 62.8215 56.5128 62.4045 56.3652 62.0938C56.1929 61.734 55.8648 61.3497 54.8805 60.3602C54.1833 59.6652 53.4697 58.872 53.281 58.6021C53.1006 58.3323 52.8627 57.9152 52.756 57.6781C52.6494 57.4491 52.51 56.9912 52.4443 56.6805C52.3787 56.3616 52.3213 55.8628 52.3213 55.552C52.3213 55.1023 52.3541 54.9551 52.5264 54.7098Z" fill="white"/>
<path d="M37.326 54.7179C37.4326 54.5625 37.6459 54.3663 37.8017 54.2845C38.0068 54.1782 38.1955 54.1455 38.458 54.1782C38.663 54.2027 38.9173 54.2845 39.0321 54.3745C39.147 54.4644 39.3028 54.6198 39.3848 54.7261C39.4751 54.8569 39.5571 55.184 39.6063 55.6583C39.6637 56.1735 39.754 56.5332 39.9098 56.844C40.0656 57.1711 40.5086 57.6781 41.4929 58.6838C42.4362 59.6488 42.9611 60.2539 43.199 60.6464C43.3795 60.9571 43.6091 61.4559 43.7076 61.7503C43.8224 62.0937 43.9044 62.5762 43.929 63.0995C43.97 63.86 43.9536 63.9336 43.7814 64.1953C43.6748 64.3506 43.4533 64.5387 43.2974 64.6287C43.1416 64.7104 42.8791 64.7759 42.7233 64.7759C42.5592 64.7759 42.3213 64.7023 42.1573 64.596C42.0014 64.4896 41.8046 64.3179 41.7226 64.2035C41.6159 64.0726 41.5421 63.7619 41.4847 63.304C41.4273 62.8052 41.337 62.4617 41.1484 62.0774C40.9351 61.644 40.6562 61.3169 39.6473 60.3193C38.9665 59.6406 38.2939 58.9292 38.1545 58.7247C38.015 58.5203 37.8017 58.1523 37.6787 57.907C37.5557 57.6617 37.3834 57.1792 37.3014 56.844C37.2112 56.5087 37.1455 55.9527 37.1455 55.6174C37.1373 55.1104 37.1784 54.955 37.326 54.7179Z" fill="white"/>
<path d="M22.1601 54.6277C22.2667 54.4805 22.48 54.317 22.6358 54.2597C22.7999 54.1943 23.0705 54.1616 23.2838 54.178C23.4889 54.2025 23.7431 54.2843 23.858 54.3742C23.9728 54.456 24.1287 54.6359 24.2107 54.7667C24.2845 54.8975 24.3829 55.2901 24.4158 55.658C24.465 56.0751 24.5634 56.4921 24.711 56.8028C24.8915 57.1953 25.195 57.5551 26.2285 58.6018C26.9421 59.3214 27.6476 60.0982 27.7952 60.319C27.951 60.548 28.1725 60.9487 28.3038 61.2185C28.4268 61.4884 28.5908 61.9708 28.6565 62.2816C28.7221 62.6005 28.7795 63.0747 28.7795 63.3446C28.7795 63.6717 28.7303 63.9333 28.6237 64.1214C28.5416 64.2768 28.3284 64.4894 28.1561 64.5875C27.9839 64.6938 27.7132 64.7756 27.5655 64.7756C27.4261 64.7756 27.1718 64.7102 27.0078 64.6366C26.8355 64.5548 26.6304 64.3831 26.5402 64.2441C26.4336 64.0887 26.3433 63.7698 26.3023 63.3855C26.2613 63.0502 26.1875 62.625 26.1301 62.4451C26.0645 62.2652 25.9086 61.9545 25.7692 61.75C25.6379 61.5456 24.9899 60.8505 24.3337 60.1964C23.6775 59.5422 23.0049 58.8062 22.8409 58.5609C22.6768 58.3156 22.4389 57.8332 22.3077 57.4979C22.1765 57.1626 22.0206 56.5739 21.9632 56.1895C21.914 55.8052 21.8894 55.3555 21.9222 55.1919C21.9468 55.0202 22.0616 54.7667 22.1601 54.6277Z" fill="white"/>
<path d="M43.7498 17.675C43.84 17.6096 44.0369 17.5033 44.2009 17.4542C44.406 17.3807 45.2016 17.3561 47.1128 17.3725C49.5982 17.3888 49.754 17.397 50.0247 17.5606C50.1806 17.6505 50.3856 17.8549 50.4677 18.0103C50.5579 18.1657 50.6317 18.4355 50.6317 18.6154C50.6317 18.7953 50.5579 19.0733 50.4677 19.2287C50.3692 19.4004 50.1642 19.5885 49.9427 19.703C49.5818 19.8829 49.508 19.8829 46.9898 19.8829C44.5946 19.8829 44.3814 19.8665 44.0615 19.7193C43.8646 19.6294 43.635 19.4413 43.5447 19.2859C43.4545 19.1469 43.3561 18.9098 43.3315 18.779C43.2986 18.6236 43.3397 18.4028 43.4381 18.1657C43.5283 17.9612 43.6678 17.7405 43.7498 17.675Z" fill="white"/>
<path d="M28.8612 17.6262C28.976 17.5445 29.1565 17.4545 29.2713 17.4218C29.3862 17.3891 30.6001 17.3646 31.9782 17.3727C34.3241 17.3891 34.4963 17.3973 34.767 17.5526C34.9393 17.6508 35.1361 17.8715 35.2428 18.0842C35.3904 18.3704 35.4232 18.5257 35.3822 18.7792C35.3494 18.9591 35.251 19.2126 35.1525 19.3434C35.0541 19.4825 34.8244 19.6542 34.644 19.7359C34.3487 19.8668 34.0452 19.8831 31.8551 19.8831C29.6651 19.8831 29.3616 19.8668 29.0663 19.7359C28.8858 19.6542 28.6562 19.4579 28.5577 19.3026C28.4347 19.1145 28.3773 18.8937 28.3691 18.6157C28.3691 18.3622 28.4265 18.125 28.5167 17.986C28.5905 17.8634 28.7464 17.6998 28.8612 17.6262Z" fill="white"/>
<path fill-rule="evenodd" clip-rule="evenodd" d="M19.3467 17.3644C20.1177 17.3889 20.3392 17.4216 20.5688 17.5524C20.7247 17.6424 20.9215 17.8305 21.0036 17.9613C21.0856 18.0921 21.1594 18.3702 21.1676 18.5746C21.1758 18.8117 21.1266 19.0407 21.02 19.2288C20.9297 19.3841 20.7247 19.5886 20.5688 19.6785C20.3966 19.7766 20.0685 19.8502 19.1006 19.9238L4.24579 42.82L22.8902 42.8445C33.1433 42.8527 49.9421 42.8527 78.9052 42.82L64.0094 19.8748H61.8767C59.9245 19.8829 59.7113 19.8666 59.3914 19.7194C59.2027 19.6295 58.9731 19.4414 58.8828 19.2942C58.7926 19.147 58.6942 18.918 58.6696 18.779C58.6286 18.6073 58.6696 18.411 58.809 18.1248C58.9402 17.8632 59.1043 17.6587 59.293 17.5524C59.5636 17.3971 59.7523 17.3889 62.0818 17.3644C63.6895 17.348 64.7066 17.3644 64.9363 17.4216C65.1249 17.4707 65.371 17.5933 65.4859 17.6996C65.5925 17.7978 69.3903 23.5872 82.137 43.2288L82.1616 47.2765C82.178 51.2098 82.178 51.3324 82.0139 51.5941C81.9237 51.7331 81.7269 51.9294 81.5874 52.0193C81.3167 52.1829 81.1445 52.1829 41.5755 52.1829C2.0065 52.1829 1.83425 52.1829 1.56357 52.0193C1.42412 51.9294 1.22726 51.7331 1.13703 51.5941C0.972983 51.3324 0.972983 51.2098 1.014 43.2288L9.24113 30.5542C13.7689 23.5872 17.5339 17.8141 17.6077 17.7323C17.6815 17.6587 17.8948 17.5361 18.0753 17.4707C18.3131 17.3807 18.6659 17.3562 19.3467 17.3644ZM3.43374 49.7297H79.7172V45.314H3.43374V49.7297Z" fill="white"/>
<path d="M55.3398 3.45482C56.3652 2.44902 57.292 1.57406 57.4069 1.51682C57.5217 1.45141 57.7514 1.40234 57.9154 1.40234C58.0877 1.40234 58.3092 1.43505 58.4076 1.47594C58.5142 1.51682 59.4247 2.38361 60.4418 3.39758C61.7706 4.72228 62.3202 5.32739 62.4022 5.55636C62.4678 5.74443 62.4924 5.98975 62.4596 6.16965C62.435 6.34137 62.2956 6.59486 62.1397 6.76658C61.9839 6.9383 61.746 7.09367 61.5492 7.14273C61.3031 7.21633 61.139 7.20815 60.893 7.12638C60.6715 7.06096 60.3434 6.80747 59.2114 5.69537V6.79929C59.2114 7.4044 59.1704 8.23848 59.1294 8.63916C59.0884 9.03984 58.9818 9.61224 58.8915 9.90662C58.8013 10.201 58.588 10.6753 58.4158 10.9696C58.2107 11.3131 57.6448 11.9672 56.7835 12.8504C56.0617 13.5945 55.3727 14.3468 55.2578 14.5267C55.143 14.7066 54.9871 15.0582 54.9133 15.3035C54.8395 15.5488 54.7821 15.9741 54.7821 16.2439C54.7821 16.5138 54.8395 16.939 54.9133 17.1843C54.9871 17.4296 55.1184 17.7649 55.2168 17.9202C55.3152 18.0756 56.0042 18.8361 56.7507 19.5966C57.4971 20.3652 58.2271 21.1911 58.3666 21.4364C58.5142 21.6817 58.7357 22.1642 58.8587 22.4995C59.031 22.9901 59.0802 23.3008 59.113 24.094C59.1376 24.8218 59.113 25.2388 59.0146 25.6886C58.9407 26.0238 58.7685 26.539 58.6291 26.8334C58.4896 27.1277 58.2599 27.5284 58.1205 27.7329C57.9811 27.9373 57.3084 28.6487 56.6276 29.3274C55.6269 30.3169 55.3398 30.6521 55.1266 31.0855C54.9379 31.4698 54.8477 31.8133 54.7903 32.3121C54.7329 32.7782 54.659 33.0726 54.5524 33.2116C54.4622 33.3261 54.3063 33.4814 54.1997 33.5632C54.0931 33.645 53.8388 33.7267 53.6337 33.7513C53.363 33.784 53.1826 33.7513 52.9775 33.6368C52.8217 33.555 52.6002 33.3588 52.4936 33.2034C52.3213 32.9417 52.3049 32.8681 52.3459 32.1077C52.3705 31.5107 52.4443 31.1182 52.6002 30.6767C52.715 30.3414 52.9365 29.8589 53.0841 29.6136C53.2236 29.3683 53.9782 28.526 54.7493 27.7329C55.8156 26.6453 56.2011 26.1874 56.3898 25.8112C56.6112 25.3615 56.6276 25.247 56.6276 24.4211C56.6276 23.5625 56.6112 23.4889 56.3488 22.9492C56.1109 22.4749 55.8648 22.1805 54.8969 21.232C54.2571 20.6024 53.5927 19.8991 53.4287 19.6783C53.2564 19.4494 53.0103 19.0487 52.8791 18.7788C52.7396 18.509 52.5592 18.0102 52.4772 17.6749C52.3705 17.2742 52.3213 16.7754 52.3213 16.2439C52.3213 15.7124 52.3705 15.2136 52.4772 14.8129C52.5592 14.4776 52.7314 13.9952 52.8545 13.7499C52.9775 13.5045 53.1908 13.1366 53.3302 12.9321C53.4697 12.7277 54.1423 12.0081 54.8231 11.3376C55.8484 10.3237 56.1109 10.0129 56.6276 8.97442L56.6851 5.6136L55.9386 6.32501C55.348 6.89742 55.1266 7.05278 54.8805 7.09367C54.7164 7.1182 54.4458 7.1182 54.2899 7.08549C54.1259 7.05278 53.888 6.91377 53.7321 6.75023C53.5927 6.59486 53.4451 6.34954 53.4204 6.20235C53.3958 6.06334 53.3958 5.79349 53.4204 5.6136C53.4697 5.31922 53.6747 5.09843 55.3398 3.45482Z" fill="white"/>
<path d="M40.2379 3.35669C41.2222 2.38361 42.0999 1.54136 42.1901 1.49229C42.2803 1.45141 42.51 1.40234 42.7069 1.40234C42.8955 1.40234 43.1498 1.45141 43.281 1.51682C43.4041 1.58224 44.3228 2.4572 45.3235 3.463C46.7507 4.90218 47.1608 5.35193 47.2429 5.6136C47.3249 5.89162 47.3249 5.99792 47.21 6.33319C47.1198 6.57851 46.9722 6.79111 46.8081 6.91377C46.6605 7.02007 46.439 7.12638 46.316 7.15909C46.1847 7.18362 45.9469 7.18362 45.7828 7.15091C45.5367 7.11002 45.3071 6.9383 43.9454 5.6136L43.9536 7.24904C43.9536 8.5901 43.929 8.99078 43.7978 9.49776C43.7158 9.83303 43.5271 10.3482 43.3795 10.6426C43.2318 10.937 43.0186 11.3049 42.9037 11.4603C42.7889 11.6156 42.1081 12.3352 41.4027 13.0548C40.3937 14.077 40.0574 14.4695 39.877 14.8538C39.6719 15.3035 39.6473 15.4262 39.6473 16.2439C39.6473 17.0616 39.6719 17.1925 39.877 17.634C40.0574 18.0184 40.3855 18.4027 41.4027 19.433C42.1163 20.1526 42.8053 20.9049 42.9447 21.1093C43.0842 21.3138 43.2974 21.6817 43.4205 21.9271C43.5435 22.1724 43.7158 22.6548 43.7978 22.9901C43.8962 23.3826 43.9536 23.8814 43.9536 24.3802C43.9536 24.8054 43.8962 25.3942 43.8388 25.6886C43.7732 25.9829 43.6337 26.4245 43.5271 26.6698C43.4205 26.9151 43.1826 27.3404 42.9939 27.6102C42.8135 27.8801 42.0917 28.6732 41.3945 29.3683C40.4594 30.3005 40.0656 30.7584 39.9016 31.0855C39.7457 31.4044 39.6637 31.7479 39.6063 32.2712C39.5571 32.77 39.4915 33.0726 39.3848 33.2034C39.3028 33.3097 39.147 33.4651 39.0321 33.555C38.9173 33.645 38.663 33.7267 38.458 33.7513C38.1955 33.784 38.0068 33.7513 37.8017 33.645C37.6459 33.5632 37.4326 33.367 37.326 33.2116C37.1784 32.9744 37.1373 32.8191 37.1455 32.3121C37.1455 31.9768 37.2112 31.4208 37.3014 31.0855C37.3834 30.7502 37.5721 30.2433 37.7115 29.9652C37.851 29.679 38.1381 29.2375 38.3513 28.984C38.5564 28.7223 39.2126 28.0272 39.8114 27.4467C40.6726 26.6044 40.9515 26.2773 41.1566 25.8521C41.3616 25.4433 41.4273 25.1734 41.4683 24.6664C41.5011 24.1758 41.4765 23.8896 41.3698 23.5216C41.296 23.2518 41.1566 22.9001 41.0582 22.7448C40.9679 22.5894 40.2953 21.8535 39.5653 21.1093C38.6548 20.1771 38.1381 19.5802 37.9002 19.1877C37.7197 18.8688 37.4819 18.3782 37.3834 18.0838C37.244 17.6831 37.1948 17.2988 37.162 16.5301C37.1455 15.9086 37.1702 15.3199 37.2276 15.0173C37.285 14.7475 37.408 14.3223 37.5065 14.077C37.6049 13.8316 37.8346 13.4064 38.015 13.1366C38.1873 12.8667 38.9337 12.0327 39.6637 11.2804C40.6644 10.2501 41.0582 9.79214 41.2304 9.44052C41.4437 8.97442 41.4519 8.92536 41.5093 5.6136L40.8203 6.28413C40.4512 6.64392 40.041 6.98737 39.918 7.03643C39.7868 7.08549 39.5489 7.12638 39.3848 7.12638C39.2126 7.12638 38.9501 7.05278 38.8107 6.96283C38.663 6.87288 38.4662 6.67663 38.3759 6.53762C38.2775 6.37408 38.2119 6.12058 38.2119 5.92433C38.2119 5.72808 38.2611 5.47458 38.3267 5.35193C38.3923 5.22109 39.2536 4.32978 40.2379 3.35669Z" fill="white"/>
<path d="M24.9825 3.43846C26.016 2.41631 26.9265 1.54136 27.0167 1.49229C27.107 1.45141 27.3366 1.40234 27.5335 1.40234C27.7221 1.40234 27.9764 1.45141 28.1077 1.51682C28.2307 1.58224 29.1084 2.42449 30.0599 3.38122C31.0114 4.33795 31.8562 5.21291 31.93 5.32739C32.0039 5.45005 32.0613 5.70355 32.0613 5.94068C32.0695 6.22689 32.0121 6.43132 31.8808 6.63575C31.766 6.80747 31.5445 6.97919 31.3231 7.06914C31.0524 7.18362 30.8719 7.21633 30.6258 7.16726C30.3552 7.1182 30.1583 6.97101 28.7803 5.6136V7.15091C28.7803 8.2303 28.7393 8.86812 28.649 9.31787C28.5752 9.66131 28.403 10.2092 28.2553 10.5199C28.1077 10.8388 27.8124 11.3131 27.6073 11.5829C27.4022 11.8528 26.746 12.556 26.1391 13.1366C25.3352 13.9298 24.9743 14.3386 24.761 14.7311C24.4821 15.2545 24.4739 15.279 24.4739 16.2439C24.4739 17.1679 24.4904 17.2497 24.72 17.7076C24.9087 18.0756 25.3024 18.5335 26.3195 19.5557C27.2382 20.4715 27.7714 21.0766 27.9846 21.4364C28.1569 21.7308 28.3948 22.2623 28.5096 22.6221C28.7064 23.1945 28.7311 23.4071 28.7311 24.3802C28.7311 25.2225 28.6982 25.5986 28.5834 25.9748C28.5014 26.2446 28.3209 26.6862 28.1897 26.956C28.0502 27.2259 27.8288 27.5939 27.6893 27.7738C27.5499 27.9536 26.8773 28.6732 26.1883 29.3683C25.1876 30.3823 24.8923 30.7339 24.7118 31.1264C24.5724 31.429 24.4657 31.8623 24.4165 32.2549C24.3837 32.5983 24.2935 32.999 24.2279 33.1298C24.1623 33.2606 24.0064 33.4487 23.8834 33.5387C23.7521 33.6368 23.5225 33.7267 23.3666 33.7595C23.2108 33.784 22.9483 33.7676 22.7924 33.7186C22.6366 33.6695 22.3823 33.4978 22.2429 33.3424C22.087 33.1707 21.9476 32.9172 21.923 32.7455C21.8902 32.5738 21.9066 32.1567 21.9558 31.8215C22.005 31.4862 22.1198 30.971 22.2183 30.6767C22.3167 30.3823 22.5464 29.8916 22.7268 29.5727C22.9729 29.1639 23.4404 28.6324 24.3919 27.692C25.3598 26.7271 25.7699 26.2691 25.934 25.9339C26.057 25.6886 26.1965 25.2634 26.2457 24.9935C26.2949 24.7237 26.3113 24.2821 26.2867 24.0122C26.2539 23.726 26.1309 23.3008 25.9832 22.9901C25.7781 22.5567 25.4829 22.2051 24.3673 21.0685C23.5225 20.2098 22.8909 19.4821 22.7104 19.1877C22.5546 18.9179 22.3413 18.4681 22.2429 18.1901C22.1362 17.9039 22.0132 17.356 21.9558 16.9635C21.8819 16.3993 21.8819 16.0804 21.964 15.508C22.0214 15.1073 22.1526 14.5512 22.2429 14.2814C22.3413 14.0115 22.5546 13.57 22.7104 13.3001C22.8909 12.9976 23.5225 12.278 24.3673 11.4194C25.5157 10.2501 25.7699 9.93933 26.2785 8.88447L26.3441 5.6136L25.6961 6.21871C25.3352 6.55397 24.9333 6.88924 24.802 6.97919C24.6708 7.06096 24.4165 7.12638 24.2443 7.12638C24.0802 7.12638 23.8588 7.08549 23.7521 7.03643C23.6537 6.98737 23.465 6.84835 23.342 6.7257C23.219 6.61121 23.0795 6.37408 23.0385 6.21053C22.9811 6.0061 22.9811 5.7935 23.0385 5.59724C23.1041 5.34375 23.4814 4.92671 24.9825 3.43846Z" fill="white"/>
</g>
<defs>
<clipPath id="clip0_2_1583">
<rect width="82" height="72" fill="white" transform="translate(0.580078 0.939941)"/>
</clipPath>
</defs>
</svg>
