<svg width="87" height="95" viewBox="0 0 87 95" fill="none" xmlns="http://www.w3.org/2000/svg">
<g clip-path="url(#clip0_2_1539)">
<path d="M32.0758 27.5871C45.4317 14.2312 57.0343 2.73172 57.8078 2.06135C59.2517 0.823731 59.3548 0.82373 71.4731 0.82373C82.3537 0.82373 83.7976 0.926864 84.6227 1.75194C85.293 2.37075 85.5509 3.40209 85.4993 5.46478C85.4993 7.01179 85.2415 8.61037 84.8805 8.97134C84.5195 9.28074 83.8492 9.59015 83.3335 9.59015C82.4569 9.59015 82.4053 10.3637 82.4053 33.3111L81.1161 34.4455C80.3426 35.1675 79.8785 36.1988 79.8269 37.1786C79.8269 38.2099 80.2395 39.1897 81.1161 40.0148C82.0443 40.943 82.4053 41.8196 82.4053 43.1088C82.4053 44.2433 81.9412 45.3262 81.2192 46.0997C80.4629 46.856 79.4831 47.2514 78.2799 47.2858C77.0939 47.2858 76.0625 46.8732 75.289 46.0997C74.4639 45.2746 74.1545 44.4496 74.2577 43.3667C74.3608 42.3869 74.7218 41.8196 75.1859 41.8196C75.5984 41.8196 76.2172 42.4384 76.5782 43.2635C77.0423 44.2433 77.558 44.6043 78.383 44.5527C79.1737 44.4496 79.6035 44.0198 79.6722 43.2635C79.7754 42.3869 79.4144 41.8712 78.383 41.4071C77.197 40.8914 76.9907 40.4273 76.836 38.2099C76.6813 36.302 76.3204 35.2706 74.103 33.0532L74.1545 9.59015H68.4822L28.2598 58.579L28.3629 64.6639C28.5176 70.491 28.5692 70.6972 29.6521 70.8004C30.3225 70.9035 30.9929 71.316 31.1991 71.7286C31.457 72.1927 31.2507 72.8631 30.735 73.4303C29.9615 74.2038 29.8584 75.4414 29.8584 82.8155C29.8584 90.0865 29.9615 91.3756 30.6835 91.8398C31.1991 92.1492 31.4054 92.7164 31.1991 93.2836C30.8897 94.0571 29.8584 94.1603 19.7512 94.1603C9.64404 94.1603 8.6127 94.0571 8.30329 93.2836C8.09703 92.7164 8.30329 92.1492 8.81897 91.8398C9.5409 91.3756 9.64404 90.0349 9.69561 82.4545C9.69561 74.9772 9.59247 73.4819 8.9221 73.2756C8.50956 73.1209 8.14859 72.6568 8.14859 72.2442C8.14859 71.8317 8.458 71.3676 8.7674 71.2645C9.12837 71.1613 9.90188 70.9035 10.4692 70.7488C11.3458 70.4394 10.9848 69.8722 7.37509 66.314C5.10613 64.0451 2.73405 62.0855 2.06367 61.9308C1.34174 61.7761 0.929199 61.312 0.929199 60.6416C0.929199 60.0744 1.29017 59.5072 1.7027 59.3525C2.26994 59.1462 2.47621 58.3211 2.47621 56.3616C2.47621 54.5567 2.78561 53.3707 3.40442 52.7519C3.92009 52.2362 5.003 51.8237 6.03434 51.8752C7.63292 51.8752 9.48934 50.1735 32.0758 27.5871Z" fill="white"/>
<path d="M12.171 82.9189C12.1194 78.1232 12.2741 74.0494 12.532 73.8947C12.7898 73.6884 16.1932 73.5337 27.2286 73.5337V91.5822H12.2741L12.171 82.9189Z" fill="#FF712C"/>
<path d="M10.882 65.0247C10.6242 65.1278 9.74758 64.5606 8.92251 63.684L7.37549 62.1885H9.28348C11.0367 62.1885 11.243 62.3432 11.243 63.4777C11.243 64.1996 11.0883 64.87 10.882 65.0247Z" fill="#FF712C"/>
<path d="M4.95186 57.0833C4.90029 56.0004 5.10656 54.9174 5.31283 54.7112C5.57066 54.5049 6.96298 54.4533 10.9853 54.6596L11.2431 59.0428H5.05499L4.95186 57.0833Z" fill="#FF712C"/>
<path d="M76.9914 31.9704C76.8367 31.5578 76.9913 30.8359 77.3007 30.4234C77.6101 30.0108 78.0226 29.6499 78.2289 29.6499C78.3836 29.5983 78.8478 29.9593 79.2088 30.4234C79.5182 30.8359 79.7244 31.5578 79.5697 31.9704C79.415 32.3829 78.8478 32.7439 78.2806 32.7439C77.7133 32.7439 77.1461 32.3829 76.9914 31.9704Z" fill="#FF712C"/>
<path d="M76.7334 27.0714V18.305V9.53857H79.8275V27.0714H76.7334Z" fill="#FF712C"/>
<path d="M13.5635 55.2271L36.5109 32.3828L59.4582 9.53857H64.8728L62.9648 12.0138C61.8819 13.3546 59.9739 15.7266 58.6332 17.2737C57.344 18.8207 53.9921 22.8945 51.2075 26.2979C48.4229 29.7013 44.6069 34.3424 42.6989 36.6113C40.8425 38.8803 37.8516 42.49 36.0983 44.6042C34.3966 46.7185 31.3026 50.4313 25.6818 57.2382V70.9035H13.8213L13.5635 55.2271Z" fill="#FF712C"/>
<path d="M12.5324 51.8236C11.8104 51.8236 18.2048 45.1199 32.6435 30.6811C46.3604 16.9127 54.147 9.53857 54.8174 9.53857C55.4878 9.53857 49.145 16.2423 34.7062 30.6811C20.9378 44.4495 13.2027 51.8236 12.5324 51.8236Z" fill="#FF712C"/>
<path d="M56.8799 6.49618L58.3753 4.8976L59.8708 3.35059H82.9213V6.44462L56.8799 6.49618Z" fill="#FF712C"/>
</g>
<defs>
<clipPath id="clip0_2_1539">
<rect width="86" height="94" fill="white" transform="translate(0.359863 0.160156)"/>
</clipPath>
</defs>
</svg>
