<svg width="17" height="16" viewBox="0 0 17 16" fill="none" xmlns="http://www.w3.org/2000/svg">
<g clip-path="url(#clip0_2_1860)">
<path d="M2.59404 9.25C2.97946 8.57292 3.02633 8.08594 2.73467 7.78906C2.443 7.49219 2.26071 7.09375 2.18779 6.59375C2.02112 5.58333 2.18779 4.67188 2.68779 3.85938C3.17737 3.05729 3.82321 2.44531 4.62529 2.02344C5.42737 1.60156 6.28675 1.41667 7.20342 1.46875C8.1305 1.52083 8.943 1.90104 9.64092 2.60938C10.1305 3.09896 10.4222 3.78646 10.5159 4.67188C10.6097 5.55729 10.5394 6.41927 10.305 7.25781C10.0706 8.09635 9.68779 8.79688 9.15654 9.35938C8.62529 9.92188 7.96904 10.125 7.18779 9.96875C6.44821 9.82292 6.09404 9.45312 6.12529 8.85938C6.15654 8.26562 6.28415 7.6224 6.5081 6.92969C6.73206 6.23698 6.89612 5.57292 7.00029 4.9375C7.11487 4.30208 6.87529 3.86458 6.28154 3.625C5.79196 3.4375 5.37008 3.46354 5.01592 3.70312C4.65133 3.93229 4.37269 4.26562 4.17998 4.70312C3.98727 5.14062 3.89092 5.625 3.89092 6.15625C3.89092 6.67708 4.0055 7.13021 4.23467 7.51562C4.09925 8.18229 3.93779 8.84375 3.75029 9.5C3.56279 10.1458 3.39352 10.8125 3.24248 11.5C3.09144 12.1875 2.98467 12.901 2.92217 13.6406C2.85967 14.3802 2.88571 15.1667 3.00029 16C3.38571 15.7292 3.70862 15.3958 3.96904 15C4.22946 14.6042 4.45342 14.1719 4.64092 13.7031C4.82842 13.2344 4.98467 12.7344 5.10967 12.2031C5.23467 11.6719 5.34925 11.1302 5.45342 10.5781C5.83883 10.8177 6.17217 11.0391 6.45342 11.2422C6.73467 11.4453 7.12008 11.5677 7.60967 11.6094C8.5055 11.6719 9.29717 11.5052 9.98467 11.1094C10.6722 10.7031 11.2399 10.1562 11.6878 9.46875C12.1357 8.78125 12.4482 7.99479 12.6253 7.10938C12.8024 6.22396 12.8336 5.33854 12.719 4.45312C12.6045 3.66146 12.3388 2.96875 11.9222 2.375C11.4951 1.78125 10.9664 1.29688 10.3362 0.921875C9.70602 0.546875 8.99508 0.286458 8.20342 0.140625C7.41175 -0.015625 6.59925 -0.046875 5.76592 0.046875C5.09925 0.130208 4.44821 0.317708 3.81279 0.609375C3.17737 0.901042 2.60706 1.28906 2.10185 1.77344C1.59665 2.25781 1.18258 2.81771 0.859667 3.45312C0.547167 4.09896 0.375292 4.80729 0.344042 5.57812C0.312792 6.51562 0.456021 7.3125 0.773729 7.96875C1.09144 8.625 1.69821 9.05208 2.59404 9.25Z" fill="#99A9B5"/>
</g>
<defs>
<clipPath id="clip0_2_1860">
<rect width="16" height="16" fill="white" transform="matrix(1 0 0 -1 0.339844 16)"/>
</clipPath>
</defs>
</svg>
