<svg width="17" height="16" viewBox="0 0 17 16" fill="none" xmlns="http://www.w3.org/2000/svg">
<g clip-path="url(#clip0_2_1862)">
<path d="M2.16064 12.1719C2.16064 12.5365 2.18148 12.8568 2.22314 13.1328C2.26481 13.4089 2.3221 13.6458 2.39502 13.8438C2.47835 14.0312 2.58773 14.2161 2.72314 14.3984C2.85856 14.5807 3.02523 14.7604 3.22314 14.9375C3.42106 15.1042 3.63981 15.2526 3.87939 15.3828C4.11898 15.513 4.37939 15.625 4.66064 15.7188C4.94189 15.8125 5.20752 15.8828 5.45752 15.9297C5.70752 15.9766 6.01481 16 6.37939 16C6.70231 16 7.01481 15.9844 7.31689 15.9531C7.61898 15.9219 7.91064 15.875 8.19189 15.8125C8.46273 15.7396 8.74919 15.6536 9.05127 15.5547C9.35335 15.4557 9.67627 15.3281 10.02 15.1719V12.7656C9.61377 13.026 9.26481 13.1953 8.97314 13.2734C8.68148 13.3516 8.33252 13.3906 7.92627 13.3906C7.6971 13.3906 7.48096 13.3646 7.27783 13.3125C7.07471 13.2604 6.8846 13.1823 6.70752 13.0781C6.58252 12.9948 6.46273 12.8906 6.34814 12.7656C6.23356 12.6406 6.15023 12.5156 6.09814 12.3906C6.05648 12.2552 6.03304 12.0495 6.02783 11.7734C6.02262 11.4974 6.02002 11.125 6.02002 10.6562V7H10.02V4H6.02002V0H3.44189C3.38981 0.416667 3.31689 0.794271 3.22314 1.13281C3.12939 1.47135 3.01481 1.77083 2.87939 2.03125C2.74398 2.30208 2.58512 2.55208 2.40283 2.78125C2.22054 3.01042 2.02002 3.21875 1.80127 3.40625C1.5721 3.60417 1.29606 3.77604 0.973145 3.92188C0.650228 4.06771 0.33252 4.19271 0.0200195 4.29688V7H2.17627V12.1719H2.16064Z" fill="#99A9B5"/>
</g>
<defs>
<clipPath id="clip0_2_1862">
<rect width="16" height="16" fill="white" transform="matrix(1 0 0 -1 0.0200195 16)"/>
</clipPath>
</defs>
</svg>
