<svg xmlns="http://www.w3.org/2000/svg" width="16" height="16" viewBox="0 0 16 16" fill="none">
  <path d="M0.15625 12.0938C0.25 12.1979 0.364583 12.25 0.5 12.25C0.635417 12.25 0.755208 12.1979 0.859375 12.0938L4.09375 8.85938C4.14583 8.80729 4.1849 8.75 4.21094 8.6875C4.23698 8.625 4.25 8.5625 4.25 8.5C4.25 8.4375 4.23698 8.375 4.21094 8.3125C4.1849 8.25 4.14583 8.19271 4.09375 8.14062L0.859375 4.90625C0.755208 4.80208 0.635417 4.75 0.5 4.75C0.364583 4.75 0.25 4.80208 0.15625 4.90625C0.0520833 5 0 5.11719 0 5.25781C0 5.39844 0.0520833 5.51562 0.15625 5.60938L3.04688 8.5L0.15625 11.3906C0.0520833 11.4844 0 11.6016 0 11.7422C0 11.8828 0.0520833 12 0.15625 12.0938Z" fill="#FF712C"/>
</svg>