<svg xmlns="http://www.w3.org/2000/svg" width="45" height="45" viewBox="0 0 45 45" fill="none">
  <circle cx="22.5" cy="22.5" r="21.5" transform="matrix(-1 0 0 1 45 0)" stroke="#FF712C" stroke-width="2"/>
  <path d="M14.6464 22.3536C14.4512 22.1583 14.4512 21.8417 14.6464 21.6464L17.8284 18.4645C18.0237 18.2692 18.3403 18.2692 18.5355 18.4645C18.7308 18.6597 18.7308 18.9763 18.5355 19.1716L15.7071 22L18.5355 24.8284C18.7308 25.0237 18.7308 25.3403 18.5355 25.5355C18.3403 25.7308 18.0237 25.7308 17.8284 25.5355L14.6464 22.3536ZM30 22.5L15 22.5L15 21.5L30 21.5L30 22.5Z" fill="#FF712C"/>
</svg>