<svg width="53" height="53" viewBox="0 0 53 53" fill="none" xmlns="http://www.w3.org/2000/svg">
<path d="M47.1326 34.2355L37.4237 24.5481C37.6269 23.5587 37.7277 22.551 37.7244 21.5409C37.7237 18.7714 37.0248 16.0468 35.6923 13.619C34.3599 11.1911 32.4369 9.13828 30.1011 7.65031C27.7653 6.16233 25.092 5.2872 22.3285 5.10581C19.565 4.92442 16.8003 5.44263 14.29 6.61253C13.972 6.75782 13.6942 6.97854 13.4809 7.25554C13.2675 7.53255 13.125 7.85745 13.0657 8.20203C13.0066 8.54224 13.0305 8.89168 13.1352 9.22072C13.2398 9.54977 13.4223 9.84872 13.6671 10.0923L23.0108 19.4144L19.1445 23.2808L9.82226 13.9371C9.57667 13.6961 9.27679 13.5176 8.94784 13.4167C8.6189 13.3158 8.27052 13.2954 7.93204 13.3571C7.58961 13.4143 7.26613 13.5535 6.98931 13.763C6.71248 13.9725 6.49056 14.246 6.34254 14.56C5.16872 17.0785 4.65097 19.853 4.83744 22.6254C5.0239 25.3977 5.90853 28.0779 7.40903 30.4165C8.90954 32.7552 10.9772 34.6763 13.4196 36.0012C15.862 37.3261 18.5998 38.0118 21.3784 37.9944C22.3884 37.9977 23.3961 37.8969 24.3855 37.6937L34.0729 47.4025C34.2726 47.6039 34.5101 47.7637 34.7719 47.8727C35.0336 47.9818 35.3144 48.0379 35.5979 48.0379C35.8815 48.0379 36.1623 47.9818 36.424 47.8727C36.6858 47.7637 36.9233 47.6039 37.123 47.4025C37.3243 47.2028 37.4841 46.9653 37.5932 46.7035C37.7022 46.4418 37.7584 46.161 37.7584 45.8775C37.7584 45.5939 37.7022 45.3132 37.5932 45.0514C37.4841 44.7897 37.3243 44.5521 37.123 44.3524L26.5979 33.8273C26.3349 33.5661 26.0087 33.3773 25.6512 33.2795C25.2936 33.1816 24.9168 33.1779 24.5574 33.2689C23.5203 33.5466 22.452 33.691 21.3784 33.6985C19.7718 33.7126 18.1783 33.4088 16.6896 32.8044C15.201 32.2001 13.8466 31.3071 12.7046 30.1771C11.5626 29.047 10.6554 27.7021 10.0354 26.22C9.41535 24.7378 9.09472 23.1476 9.09194 21.5409C9.08916 20.8214 9.14664 20.1029 9.26378 19.393L17.6838 27.8345C17.8835 28.0358 18.1211 28.1956 18.3828 28.3047C18.6446 28.4137 18.9253 28.4699 19.2089 28.4699C19.4925 28.4699 19.7732 28.4137 20.035 28.3047C20.2967 28.1956 20.5343 28.0358 20.734 27.8345L27.5645 20.9395C27.9517 20.539 28.1681 20.0037 28.1681 19.4467C28.1681 18.8896 27.9517 18.3543 27.5645 17.9538L19.2089 9.53377C19.919 9.41781 20.6374 9.36034 21.3569 9.36194C24.5832 9.36763 27.6755 10.6533 29.9549 12.9367C32.2342 15.22 33.5144 18.3146 33.5144 21.5409C33.5069 22.6145 33.3625 23.6828 33.0848 24.7199C32.9939 25.0793 32.9975 25.4562 33.0954 25.8137C33.1933 26.1713 33.382 26.4975 33.6433 26.7605L44.1684 37.2856C44.5728 37.69 45.1214 37.9173 45.6934 37.9173C46.2654 37.9173 46.814 37.69 47.2185 37.2856C47.6229 36.8811 47.8502 36.3325 47.8502 35.7605C47.8502 35.1885 47.6229 34.6399 47.2185 34.2355H47.1326Z" fill="#FF712C"/>
</svg>
