<svg width="11" height="7" viewBox="0 0 11 7" fill="none" xmlns="http://www.w3.org/2000/svg">
<path d="M0 3.5625C0 3.68099 0.0432943 3.78353 0.129883 3.87012C0.216471 3.95671 0.31901 4 0.4375 4H9.00977L7.12305 5.87305C7.04102 5.96419 7 6.06901 7 6.1875C7 6.30599 7.04102 6.41081 7.12305 6.50195C7.21419 6.58398 7.31901 6.625 7.4375 6.625C7.55599 6.625 7.66081 6.58398 7.75195 6.50195L10.377 3.87695C10.3952 3.84961 10.4111 3.82454 10.4248 3.80176C10.4385 3.77897 10.4544 3.75391 10.4727 3.72656C10.4818 3.69922 10.4886 3.67188 10.4932 3.64453C10.4977 3.61719 10.5 3.58984 10.5 3.5625C10.5 3.53516 10.4977 3.50781 10.4932 3.48047C10.4886 3.45312 10.4818 3.42578 10.4727 3.39844C10.4544 3.37109 10.4385 3.34603 10.4248 3.32324C10.4111 3.30046 10.3952 3.27539 10.377 3.24805L7.75195 0.623047C7.66081 0.541016 7.55599 0.5 7.4375 0.5C7.31901 0.5 7.21419 0.541016 7.12305 0.623047C7.04102 0.714193 7 0.81901 7 0.9375C7 1.05599 7.04102 1.16081 7.12305 1.25195L9.00977 3.125H0.4375C0.31901 3.125 0.216471 3.16829 0.129883 3.25488C0.0432943 3.34147 0 3.44401 0 3.5625Z" fill="#FF712C"/>
</svg>
