<svg width="28" height="45" viewBox="0 0 28 45" fill="none" xmlns="http://www.w3.org/2000/svg">
<g clip-path="url(#clip0_2_1430)">
<path fill-rule="evenodd" clip-rule="evenodd" d="M0.428308 0.639893H27.1784L27.3811 0.923764C27.5737 1.17722 27.594 1.33943 27.5838 2.94127C27.5838 4.66477 27.5838 4.69519 27.3304 4.94865C27.1176 5.17169 27.0061 5.2021 25.5565 5.2021V5.73943C25.5565 6.0233 25.4856 6.85464 25.4045 7.58459C25.3133 8.31454 25.1308 9.40947 24.999 10.0178C24.8571 10.6362 24.6037 11.5689 24.4314 12.0961C24.2591 12.6233 23.9246 13.4952 23.6914 14.0224C23.4583 14.5496 23.0427 15.3708 22.769 15.8473C22.4852 16.3238 21.9885 17.074 21.6642 17.5201C21.3297 17.9662 20.6404 18.757 20.1437 19.2841C19.6369 19.8012 18.8564 20.521 18.4104 20.886C17.9644 21.2408 17.2953 21.7275 16.9102 21.9606C16.3628 22.3053 16.231 22.4371 16.231 22.6399C16.231 22.8325 16.3324 22.9542 16.6568 23.1468C16.9 23.2786 17.5285 23.7247 18.0556 24.1201C18.5827 24.5155 19.4747 25.3164 20.0423 25.8943C20.5998 26.4722 21.3297 27.3136 21.6642 27.7597C21.9885 28.2058 22.4852 28.956 22.769 29.4325C23.0427 29.909 23.4583 30.7302 23.6914 31.2574C23.9246 31.7846 24.2591 32.6565 24.4314 33.1837C24.6037 33.7109 24.8571 34.6436 24.999 35.262C25.1308 35.8805 25.3133 36.9754 25.4045 37.6952C25.4856 38.415 25.5565 39.2565 25.5565 40.0777H26.3168C26.9959 40.0777 27.1074 40.1081 27.3304 40.3311C27.5838 40.5846 27.5838 40.6049 27.5838 42.3385C27.594 43.9404 27.5737 44.1026 27.1784 44.6399H0.418171L0.215443 44.3662C0.0228501 44.1026 0.00257723 43.9404 0.0127137 42.3385C0.0127137 40.615 0.0127137 40.5846 0.266125 40.3311C0.47899 40.1081 0.590491 40.0777 1.98932 40.0777L2.07041 38.8915C2.12109 38.2325 2.24273 37.168 2.35423 36.5293C2.46573 35.8906 2.66846 34.9072 2.82051 34.3496C2.96242 33.792 3.27665 32.839 3.50979 32.2205C3.74292 31.6021 4.08756 30.8113 4.27002 30.4464C4.45248 30.0814 4.82752 29.4224 5.11134 28.9763C5.38503 28.5302 5.89185 27.8003 6.24663 27.3542C6.59127 26.9081 7.33123 26.1072 7.87859 25.5699C8.4361 25.0427 9.26729 24.3127 9.7437 23.968C10.2201 23.6132 10.7776 23.2279 10.9905 23.1164C11.2642 22.9542 11.3655 22.8224 11.3757 22.6399C11.3757 22.4371 11.2439 22.3053 10.7371 21.9911C10.3823 21.768 9.71329 21.2814 9.23688 20.9063C8.76046 20.5311 7.95968 19.8012 7.45286 19.274C6.95618 18.757 6.32772 18.0574 6.07431 17.7228C5.8209 17.3883 5.37489 16.7293 5.0708 16.2528C4.77684 15.7763 4.3207 14.9348 4.05715 14.3772C3.80374 13.8196 3.42869 12.8869 3.22597 12.2989C3.03337 11.7109 2.74955 10.7072 2.60764 10.0685C2.46573 9.42975 2.28328 8.31454 2.19205 7.58459C2.11096 6.86477 2.04 6.0233 2.04 5.2021H1.27977C0.600627 5.2021 0.489126 5.17169 0.266125 4.94865C0.0127137 4.69519 0.0127137 4.67491 0.00257723 2.93113C-0.00755921 1.26846 0.00257723 1.15694 0.215443 0.903487L0.428308 0.639893ZM1.57373 3.63067H26.0026L26.0532 2.16063H1.51291L1.57373 3.63067ZM3.60101 6.09427C3.64156 6.5809 3.73279 7.46293 3.82402 8.04081C3.90511 8.62883 4.05715 9.51086 4.16866 9.99749C4.3207 10.6768 4.4322 10.9404 4.64507 11.1431C4.79711 11.2952 5.22285 11.6095 5.57762 11.8427C5.94253 12.086 6.51017 12.4003 6.84468 12.5523C7.17918 12.7044 7.77723 12.9376 8.16241 13.0795C8.55774 13.2113 9.39906 13.4445 10.0377 13.5966C11.1324 13.85 11.3655 13.8602 13.7375 13.8703C15.8154 13.8703 16.4338 13.8399 17.1332 13.6878C17.6096 13.5864 18.4306 13.3735 18.9577 13.2113C19.495 13.0491 20.2451 12.7754 20.6302 12.603C21.0256 12.4307 21.6439 12.086 21.9987 11.8528C22.3636 11.6095 22.7792 11.3053 22.9211 11.1735C23.1137 10.9911 23.2353 10.697 23.3975 10.0178C23.5191 9.521 23.6813 8.62883 23.7624 8.04081C23.8435 7.46293 23.9449 6.5809 23.9753 6.09427L24.0259 5.2021H3.53006L3.60101 6.09427ZM5.80062 14.357C5.97294 14.7118 6.34799 15.3606 6.64195 15.8067C6.9359 16.2528 7.41232 16.9118 7.71641 17.2768C8.01037 17.6417 8.57801 18.25 8.97333 18.6252C9.36865 19.0104 10.0478 19.5984 10.4938 19.933C10.9398 20.2675 11.6189 20.7238 11.994 20.9367C12.369 21.1496 12.7441 21.4334 12.8353 21.5551C12.9164 21.6869 12.9874 22.0012 12.9874 22.2648C12.9772 22.7109 13.0076 22.7514 13.261 22.8224C13.4131 22.8528 13.6564 22.8832 13.7881 22.8832C13.93 22.8832 14.1733 22.8528 14.3254 22.8224C14.5788 22.7514 14.5991 22.7109 14.5991 22.2648C14.5991 22.0012 14.67 21.6869 14.7511 21.5551C14.8423 21.4334 15.1261 21.2104 15.3897 21.0583C15.6532 20.9063 16.1398 20.6021 16.4743 20.3791C16.8088 20.156 17.4778 19.639 17.9441 19.2436C18.4205 18.8381 19.13 18.1385 19.5152 17.6823C19.9106 17.2261 20.4681 16.5063 20.762 16.0805C21.056 15.6445 21.4817 14.945 21.7047 14.509C21.9277 14.0832 22.1 13.7081 22.1 13.6777C22.1 13.6473 21.8162 13.7689 21.4716 13.9413C21.1269 14.1136 20.3768 14.4076 19.8193 14.6003C19.2618 14.7828 18.3495 15.0261 17.792 15.1376C17.2345 15.2491 16.3425 15.3809 15.7952 15.4417C15.2478 15.5026 14.3456 15.5533 13.7881 15.5533C13.2306 15.5533 12.3386 15.5026 11.7913 15.4417C11.2439 15.3809 10.3417 15.2491 9.78424 15.1376C9.22674 15.0261 8.31446 14.7828 7.75696 14.6003C7.19945 14.4076 6.45949 14.1136 6.11485 13.9413C5.77021 13.7689 5.48639 13.6473 5.48639 13.6777C5.48639 13.7081 5.6283 14.0123 5.80062 14.357ZM9.6322 26.0464C9.22674 26.3809 8.56787 27.0399 8.14214 27.5164C7.72655 27.9929 7.09809 28.8141 6.74331 29.3413C6.38854 29.8685 5.83103 30.8722 5.49653 31.5717C5.16203 32.2712 4.72616 33.3662 4.53357 34.0049C4.34097 34.6436 4.11797 35.5358 4.02674 35.9818C3.93552 36.4279 3.82402 37.1579 3.7632 37.604C3.71252 38.05 3.63142 38.7901 3.58074 39.2565L3.49965 40.1081C4.19906 40.0371 4.91875 39.5099 8.61855 36.5901L12.9874 33.1431C12.9772 31.957 13.0178 31.7745 13.18 31.592C13.2915 31.4703 13.4638 31.3588 13.5651 31.3588C13.6665 31.3487 13.8287 31.3487 13.9402 31.3588C14.0517 31.3689 14.2341 31.4805 14.3254 31.6021C14.4673 31.7643 14.5078 31.9975 14.5078 32.4841V33.1431C19.1807 36.7828 21.1675 38.344 21.948 38.9625C23.0833 39.8546 23.438 40.0777 23.7016 40.0777L24.0259 40.0878C23.9449 38.709 23.8435 37.8067 23.7624 37.1984C23.6813 36.58 23.4786 35.5763 23.3265 34.968C23.1643 34.3496 22.8805 33.4371 22.6879 32.9404C22.4953 32.4334 22.1406 31.6427 21.9074 31.1662C21.6642 30.6897 21.2384 29.9394 20.9445 29.4934C20.6606 29.0473 20.0525 28.2565 19.6166 27.7293C19.1706 27.2021 18.4002 26.4316 17.8934 26.0058C17.3967 25.5901 16.6061 25.0021 16.1499 24.7081L15.3086 24.1708C14.4065 24.404 13.9909 24.4749 13.7881 24.4749C13.5955 24.4749 13.2509 24.4242 13.0279 24.3634C12.8049 24.3026 12.5312 24.2316 12.4197 24.2113C12.2879 24.1809 11.8926 24.3837 11.2844 24.7993C10.7675 25.1542 10.0275 25.7118 9.6322 26.0464ZM6.77372 40.0371C12.1764 40.0777 15.3289 40.0777 17.2751 40.0574L20.8026 40.0371C15.8864 36.1846 14.295 34.9477 14.0922 34.8058L13.7273 34.5422L6.77372 40.0371ZM1.52304 43.1293H26.0532V41.6086H1.52304V43.1293Z" fill="#FF712C"/>
<path d="M12.9875 27.8293C12.9976 25.5799 12.9976 25.5697 13.2409 25.3265C13.3726 25.1845 13.5855 25.073 13.7173 25.073C13.849 25.0629 14.0721 25.1541 14.5079 25.4785V27.861C14.5079 30.1117 14.4978 30.2537 14.3052 30.4463C14.1836 30.5679 13.9707 30.6491 13.7477 30.6491C13.474 30.6491 13.3422 30.5781 13.1902 30.3753C12.9976 30.1117 12.9773 29.9495 12.9875 27.8306V27.8293Z" fill="#FF712C"/>
</g>
<defs>
<clipPath id="clip0_2_1430">
<rect width="28" height="44" fill="white" transform="translate(0 0.639893)"/>
</clipPath>
</defs>
</svg>
