<svg xmlns="http://www.w3.org/2000/svg" width="19" height="18" viewBox="0 0 19 18" fill="none">
  <g clip-path="url(#clip0_1_130)">
    <path d="M8.84893 1.92682C9.14828 1.00551 10.4517 1.00551 10.751 1.92682L12.0451 5.9096C12.179 6.32163 12.563 6.60059 12.9962 6.60059H17.1839C18.1527 6.60059 18.5554 7.8402 17.7717 8.4096L14.3838 10.8711C14.0333 11.1257 13.8866 11.5771 14.0205 11.9891L15.3146 15.9719C15.6139 16.8932 14.5594 17.6593 13.7757 17.0899L10.3878 14.6284C10.0373 14.3738 9.56268 14.3738 9.2122 14.6285L5.82424 17.0899C5.04053 17.6593 3.98605 16.8932 4.2854 15.9719L5.57948 11.9891C5.71336 11.5771 5.5667 11.1257 5.21621 10.8711L1.82826 8.4096C1.04454 7.8402 1.44732 6.60059 2.41604 6.60059H6.60379C7.03701 6.60059 7.42097 6.32163 7.55484 5.9096L8.84893 1.92682Z" stroke="#FF712C" stroke-linejoin="round"/>
  </g>
  <defs>
    <clipPath id="clip0_1_130">
      <rect width="18" height="18" fill="white" transform="translate(0.799988)"/>
    </clipPath>
  </defs>
</svg>