<svg width="46" height="50" viewBox="0 0 46 50" fill="none" xmlns="http://www.w3.org/2000/svg">
<g clip-path="url(#clip0_3_2253)">
<path fill-rule="evenodd" clip-rule="evenodd" d="M23.4505 10.65C13.9608 10.65 6.25286 18.3861 6.25286 27.9474C6.25286 37.5087 13.9608 45.2448 23.4505 45.2448C25.6266 45.2448 27.7047 44.8391 29.6168 44.1001C30.4713 43.7699 31.4316 44.1949 31.7619 45.0494C32.0921 45.9038 31.6671 46.8642 30.8126 47.1944C28.5254 48.0783 26.0423 48.5621 23.4505 48.5621C12.1122 48.5621 2.93555 39.3243 2.93555 27.9474C2.93555 16.5705 12.1122 7.3327 23.4505 7.3327C34.7888 7.3327 43.9655 16.5705 43.9655 27.9474C43.9655 32.3706 42.5772 36.4736 40.2139 39.8335C39.6869 40.5828 38.6522 40.7629 37.903 40.2359C37.1537 39.7089 36.9735 38.6743 37.5006 37.925C39.483 35.1066 40.6481 31.6666 40.6481 27.9474C40.6481 18.3861 32.9403 10.65 23.4505 10.65Z" fill="#FF712C"/>
<path fill-rule="evenodd" clip-rule="evenodd" d="M35.8972 5.70971C36.5466 5.06367 37.5968 5.06645 38.2428 5.7159L44.5283 12.0346C45.1743 12.684 45.1715 13.7342 44.5221 14.3803C43.8726 15.0263 42.8224 15.0235 42.1764 14.3741L35.891 8.05539C35.2449 7.40594 35.2477 6.35574 35.8972 5.70971Z" fill="#FF712C"/>
<path fill-rule="evenodd" clip-rule="evenodd" d="M10.9996 5.70971C10.3501 5.06367 9.29992 5.06645 8.65389 5.7159L2.36846 12.0346C1.72243 12.684 1.7252 13.7342 2.37465 14.3803C3.0241 15.0263 4.0743 15.0235 4.72033 14.3741L11.0058 8.05539C11.6518 7.40594 11.6491 6.35574 10.9996 5.70971Z" fill="#FF712C"/>
<path fill-rule="evenodd" clip-rule="evenodd" d="M23.4478 2.06732C24.3638 2.06732 25.1064 2.80993 25.1064 3.72598V8.99154C25.1064 9.90759 24.3638 10.6502 23.4478 10.6502C22.5317 10.6502 21.7891 9.90759 21.7891 8.99154V3.72598C21.7891 2.80993 22.5317 2.06732 23.4478 2.06732Z" fill="#FF712C"/>
<path fill-rule="evenodd" clip-rule="evenodd" d="M17.5996 2.67312C17.5996 1.75707 18.3422 1.01447 19.2582 1.01447H27.6388C28.5548 1.01447 29.2974 1.75707 29.2974 2.67312C29.2974 3.58917 28.5548 4.33177 27.6388 4.33177H19.2582C18.3422 4.33177 17.5996 3.58917 17.5996 2.67312Z" fill="#FF712C"/>
<path fill-rule="evenodd" clip-rule="evenodd" d="M23.4478 12.5991C24.3638 12.5991 25.1064 13.3417 25.1064 14.2578V29.0014C25.1064 29.9174 24.3638 30.66 23.4478 30.66C22.5317 30.66 21.7891 29.9174 21.7891 29.0014V14.2578C21.7891 13.3417 22.5317 12.5991 23.4478 12.5991Z" fill="#FF712C"/>
</g>
<defs>
<clipPath id="clip0_3_2253">
<rect width="45" height="49" fill="white" transform="translate(0.910156 0.25)"/>
</clipPath>
</defs>
</svg>
