<svg width="53" height="53" viewBox="0 0 53 53" fill="none" xmlns="http://www.w3.org/2000/svg">
<path d="M31.6456 15.5859C29.9463 15.5859 28.2851 16.0898 26.8722 17.0339C25.4593 17.9779 24.358 19.3198 23.7077 20.8898C23.0574 22.4597 22.8873 24.1873 23.2188 25.854C23.5503 27.5206 24.3686 29.0515 25.5702 30.2531C26.7718 31.4547 28.3027 32.273 29.9694 32.6046C31.6361 32.9361 33.3636 32.7659 34.9336 32.1156C36.5035 31.4653 37.8454 30.3641 38.7895 28.9512C39.7336 27.5382 40.2375 25.8771 40.2375 24.1778C40.2375 21.899 39.3323 19.7137 37.721 18.1024C36.1097 16.4911 33.9243 15.5859 31.6456 15.5859ZM31.6456 28.4737C30.7959 28.4737 29.9653 28.2218 29.2589 27.7497C28.5524 27.2777 28.0018 26.6067 27.6766 25.8217C27.3515 25.0368 27.2664 24.173 27.4322 23.3397C27.5979 22.5063 28.0071 21.7409 28.6079 21.1401C29.2087 20.5393 29.9742 20.1301 30.8075 19.9644C31.6408 19.7986 32.5046 19.8837 33.2896 20.2088C34.0746 20.534 34.7455 21.0846 35.2175 21.7911C35.6896 22.4975 35.9415 23.3281 35.9415 24.1778C35.9415 25.3171 35.4889 26.4098 34.6833 27.2155C33.8776 28.0211 32.7849 28.4737 31.6456 28.4737ZM33.7936 6.99396H29.4976C25.5099 6.99396 21.6854 8.57809 18.8657 11.3979C16.0459 14.2176 14.4618 18.042 14.4618 22.0298V28.4737H12.3138C11.7441 28.4737 11.1978 28.7 10.795 29.1028C10.3922 29.5057 10.1658 30.052 10.1658 30.6217C10.1658 31.1914 10.3922 31.7377 10.795 32.1405C11.1978 32.5434 11.7441 32.7697 12.3138 32.7697H14.4618V37.0656H5.8699C5.30022 37.0656 4.75387 37.2919 4.35105 37.6947C3.94823 38.0976 3.72192 38.6439 3.72192 39.2136V43.5095C3.72192 44.0792 3.94823 44.6256 4.35105 45.0284C4.75387 45.4312 5.30022 45.6575 5.8699 45.6575C6.43958 45.6575 6.98592 45.4312 7.38874 45.0284C7.79157 44.6256 8.01787 44.0792 8.01787 43.5095V41.3616H33.7936C37.7813 41.3616 41.6057 39.7774 44.4255 36.9577C47.2452 34.1379 48.8294 30.3135 48.8294 26.3257V22.0298C48.8294 18.042 47.2452 14.2176 44.4255 11.3979C41.6057 8.57809 37.7813 6.99396 33.7936 6.99396ZM44.5334 26.3257C44.5334 27.7361 44.2556 29.1327 43.7159 30.4357C43.1762 31.7387 42.3851 32.9227 41.3878 33.92C40.3905 34.9173 39.2066 35.7083 37.9035 36.2481C36.6005 36.7878 35.2039 37.0656 33.7936 37.0656H18.7577V22.0298C18.7577 19.1814 19.8893 16.4497 21.9034 14.4356C23.9175 12.4214 26.6492 11.2899 29.4976 11.2899H33.7936C35.2039 11.2899 36.6005 11.5677 37.9035 12.1074C39.2066 12.6472 40.3905 13.4383 41.3878 14.4356C42.3851 15.4328 43.1762 16.6168 43.7159 17.9198C44.2556 19.2228 44.5334 20.6194 44.5334 22.0298V26.3257Z" fill="#FF712C"/>
</svg>
