<svg width="48" height="50" viewBox="0 0 48 50" fill="none" xmlns="http://www.w3.org/2000/svg">
<g clip-path="url(#clip0_3_2266)">
<path fill-rule="evenodd" clip-rule="evenodd" d="M23.8476 4.33171C18.0459 4.33171 13.3428 9.03487 13.3428 14.8365C13.3428 20.6382 18.0459 25.3413 23.8476 25.3413C29.6492 25.3413 34.3524 20.6382 34.3524 14.8365C34.3524 9.03487 29.6492 4.33171 23.8476 4.33171ZM10.0254 14.8365C10.0254 7.20278 16.2138 1.0144 23.8476 1.0144C31.4813 1.0144 37.6697 7.20278 37.6697 14.8365C37.6697 22.4703 31.4813 28.6586 23.8476 28.6586C16.2138 28.6586 10.0254 22.4703 10.0254 14.8365Z" fill="#FF712C"/>
<path fill-rule="evenodd" clip-rule="evenodd" d="M23.8504 28.6586C13.9749 28.6586 5.89242 34.8669 3.88161 42.9251C3.62202 43.9654 4.48241 45.2452 6.1581 45.2452H23.8504C24.7664 45.2452 25.509 45.9878 25.509 46.9038C25.509 47.8199 24.7664 48.5625 23.8504 48.5625H6.1581C2.94818 48.5625 -0.260275 45.8219 0.662992 42.1219C3.08657 32.4096 12.6422 25.3413 23.8504 25.3413C35.0586 25.3413 44.6142 32.4096 47.0378 42.1219C47.961 45.8219 44.7526 48.5625 41.5427 48.5625H34.908C33.992 48.5625 33.2494 47.8199 33.2494 46.9038C33.2494 45.9878 33.992 45.2452 34.908 45.2452H41.5427C43.2183 45.2452 44.0787 43.9654 43.8192 42.9251C41.8083 34.8669 33.7258 28.6586 23.8504 28.6586Z" fill="#FF712C"/>
</g>
<defs>
<clipPath id="clip0_3_2266">
<rect width="47" height="49" fill="white" transform="translate(0.310547 0.25)"/>
</clipPath>
</defs>
</svg>
