<svg width="32" height="32" viewBox="0 0 32 32" fill="none" xmlns="http://www.w3.org/2000/svg">
<rect width="32" height="32" rx="16" fill="#0088CC"/>
<g clip-path="url(#clip0_19_462)">
<path d="M21.7051 17.2184C21.9655 17.4684 22.2311 17.721 22.5019 17.9762C22.7728 18.2314 23.0228 18.4997 23.2519 18.7809C23.3561 18.9059 23.4577 19.0335 23.5566 19.1637C23.6556 19.2939 23.7415 19.432 23.8144 19.5778C23.9186 19.7861 23.9342 19.9867 23.8613 20.1794C23.7884 20.3721 23.6582 20.4736 23.4707 20.484H21.1426C20.8405 20.5049 20.5696 20.4606 20.3301 20.3512C20.0905 20.2419 19.8717 20.083 19.6738 19.8747C19.5071 19.7184 19.3483 19.5544 19.1973 19.3825C19.0462 19.2106 18.8926 19.0413 18.7363 18.8747C18.6738 18.8018 18.6087 18.734 18.541 18.6715C18.4733 18.609 18.403 18.5518 18.3301 18.4997C18.1634 18.3955 18.015 18.359 17.8848 18.3903C17.7545 18.4215 17.6426 18.5205 17.5488 18.6872C17.4551 18.8538 17.3952 19.0283 17.3691 19.2106C17.3431 19.3929 17.3249 19.5778 17.3144 19.7653C17.2936 20.0361 17.2337 20.221 17.1348 20.32C17.0358 20.4189 16.8457 20.4736 16.5644 20.484C15.9811 20.5049 15.4134 20.4632 14.8613 20.359C14.3092 20.2549 13.7728 20.057 13.2519 19.7653C12.7936 19.5049 12.3848 19.195 12.0254 18.8356C11.666 18.4762 11.3301 18.0882 11.0176 17.6715C10.7155 17.2653 10.4342 16.8538 10.1738 16.4372C9.90298 16.0101 9.64777 15.5778 9.40819 15.1403C9.16861 14.7028 8.93944 14.2549 8.72069 13.7965C8.50194 13.3486 8.2884 12.8955 8.08007 12.4372C7.98632 12.2288 7.9733 12.07 8.041 11.9606C8.10871 11.8512 8.25715 11.7965 8.48632 11.7965C8.86132 11.7861 9.23892 11.7809 9.61913 11.7809C9.99934 11.7809 10.3769 11.7861 10.7519 11.7965C10.9082 11.7965 11.0384 11.8382 11.1426 11.9215C11.2467 12.0049 11.3301 12.1195 11.3926 12.2653C11.5905 12.7653 11.817 13.2549 12.0723 13.734C12.3275 14.2132 12.6113 14.6768 12.9238 15.1247C13.0071 15.2393 13.0957 15.3538 13.1894 15.4684C13.2832 15.583 13.3874 15.682 13.5019 15.7653C13.6374 15.8486 13.7571 15.8773 13.8613 15.8512C13.9655 15.8252 14.0488 15.734 14.1113 15.5778C14.153 15.484 14.1816 15.3877 14.1973 15.2887C14.2129 15.1898 14.2259 15.0882 14.2363 14.984C14.2676 14.6299 14.2832 14.2783 14.2832 13.9294C14.2832 13.5804 14.2571 13.234 14.2051 12.8903C14.1738 12.6715 14.0957 12.4945 13.9707 12.359C13.8457 12.2236 13.6738 12.1351 13.4551 12.0934C13.3509 12.0726 13.2988 12.0413 13.2988 11.9997C13.2988 11.958 13.3249 11.9059 13.3769 11.8434C13.4707 11.7288 13.5696 11.6403 13.6738 11.5778C13.778 11.5153 13.9134 11.484 14.0801 11.484H16.7051C16.9134 11.5257 17.0514 11.5986 17.1191 11.7028C17.1868 11.807 17.2363 11.958 17.2676 12.1559V15.0778C17.2676 15.1611 17.2936 15.2913 17.3457 15.4684C17.3978 15.6455 17.4967 15.7601 17.6426 15.8122C17.7571 15.8538 17.8561 15.8408 17.9394 15.7731C18.0228 15.7054 18.0957 15.6351 18.1582 15.5622C18.4811 15.2288 18.7598 14.8695 18.9941 14.484C19.2285 14.0986 19.4446 13.7028 19.6426 13.2965C19.7259 13.1195 19.8066 12.9372 19.8848 12.7497C19.9629 12.5622 20.0384 12.3747 20.1113 12.1872C20.1738 12.0518 20.2493 11.9502 20.3379 11.8825C20.4264 11.8148 20.5488 11.7809 20.7051 11.7809L23.2363 11.7965C23.2676 11.7965 23.3014 11.7965 23.3379 11.7965C23.3743 11.7965 23.4134 11.7965 23.4551 11.7965C23.6634 11.8382 23.8014 11.9085 23.8691 12.0075C23.9368 12.1064 23.9342 12.2601 23.8613 12.4684C23.7571 12.8018 23.6139 13.1064 23.4316 13.3825C23.2493 13.6585 23.0592 13.9372 22.8613 14.2184C22.653 14.5101 22.4394 14.7965 22.2207 15.0778C22.0019 15.359 21.7884 15.6455 21.5801 15.9372C21.3821 16.208 21.2936 16.4294 21.3144 16.6012C21.3353 16.7731 21.4655 16.9788 21.7051 17.2184Z" fill="white"/>
</g>
<defs>
<clipPath id="clip0_19_462">
<rect width="16" height="16" fill="white" transform="matrix(1 0 0 -1 8 24)"/>
</clipPath>
</defs>
</svg>
